<?xml version="1.0" encoding="UTF-8"?>
<svg xmlns="http://www.w3.org/2000/svg" xmlns:xlink="http://www.w3.org/1999/xlink" width="187.5pt" height="449.999982pt" viewBox="0 0 187.5 449.999982" version="1.1">
<defs>
<clipPath id="clip1">
  <path d="M 0 63 L 187.5 63 L 187.5 388.875 L 0 388.875 Z M 0 63 "/>
</clipPath>
<clipPath id="clip2">
  <path d="M 9 63 L 172 63 L 172 388.875 L 9 388.875 Z M 9 63 "/>
</clipPath>
<clipPath id="clip3">
  <path d="M 9 69 L 167 69 L 167 388.875 L 9 388.875 Z M 9 69 "/>
</clipPath>
<clipPath id="clip4">
  <path d="M 14 107 L 187.5 107 L 187.5 388.875 L 14 388.875 Z M 14 107 "/>
</clipPath>
<clipPath id="clip5">
  <path d="M 0 84 L 179 84 L 179 388.875 L 0 388.875 Z M 0 84 "/>
</clipPath>
</defs>
<g id="surface1">
<g clip-path="url(#clip1)" clip-rule="nonzero">
<path style=" stroke:none;fill-rule:nonzero;fill:rgb(96.859741%,90.979004%,86.268616%);fill-opacity:1;" d="M 5.316406 388.671875 C 5.15625 388.671875 5.027344 388.542969 5.027344 388.382813 C 5.027344 388.222656 5.15625 388.09375 5.316406 388.09375 L 9.710938 388.09375 L 9.730469 387.953125 C 4.042969 386.589844 0.0703125 381.554688 0.0703125 375.707031 C 0.0703125 370.027344 3.902344 365.03125 9.390625 363.550781 L 9.441406 363.539063 L 9.441406 187.941406 C 9.441406 186.6875 10.460938 185.667969 11.714844 185.667969 C 12.96875 185.667969 13.988281 186.6875 13.988281 187.941406 L 13.988281 204.292969 L 23.015625 204.292969 L 23.191406 202.332031 C 23.222656 201.992188 23.5 201.738281 23.839844 201.738281 L 26.667969 201.898438 L 26.667969 201.886719 L 26.957031 201.914063 L 30.164063 202.09375 C 30.339844 202.105469 30.5 202.183594 30.617188 202.320313 C 30.734375 202.453125 30.789063 202.625 30.773438 202.800781 L 30.640625 204.292969 L 30.953125 204.292969 L 30.953125 200.207031 C 30.953125 199.847656 31.246094 199.554688 31.605469 199.554688 L 37.910156 199.554688 C 38.265625 199.554688 38.558594 199.847656 38.558594 200.207031 L 38.703125 200.207031 L 38.703125 197.320313 C 38.703125 196.960938 38.992188 196.671875 39.351563 196.671875 L 47.910156 196.671875 C 48.269531 196.671875 48.558594 196.960938 48.558594 197.320313 L 48.558594 201.371094 L 48.707031 201.234375 L 48.726563 201.191406 L 48.726563 201.058594 L 49.140625 201.0625 L 53.054688 201.0625 C 53.414063 201.0625 53.707031 201.351563 53.707031 201.710938 L 53.707031 204.292969 L 54.261719 204.292969 L 53.472656 197.484375 C 53.453125 197.308594 53.503906 197.132813 53.621094 196.996094 C 53.734375 196.859375 53.894531 196.777344 54.070313 196.761719 C 54.070313 196.761719 57.125 196.539063 57.125 196.539063 C 57.5 196.539063 57.777344 196.785156 57.8125 197.113281 L 58.644531 204.292969 L 62.316406 204.292969 L 62.316406 200.207031 C 62.316406 199.847656 62.605469 199.554688 62.964844 199.554688 L 66.453125 199.554688 C 66.8125 199.554688 67.101563 199.847656 67.101563 200.207031 L 67.246094 200.207031 L 67.246094 199.078125 C 67.246094 198.71875 67.539063 198.425781 67.894531 198.425781 L 74.484375 198.425781 C 74.839844 198.425781 75.132813 198.71875 75.132813 199.078125 L 75.277344 199.078125 L 75.277344 194.183594 C 75.277344 193.828125 75.566406 193.535156 75.925781 193.535156 L 82.933594 193.535156 C 83.292969 193.535156 83.582031 193.828125 83.582031 194.183594 L 83.582031 198.074219 L 83.726563 198.074219 C 83.726563 197.714844 84.019531 197.421875 84.378906 197.421875 L 91.667969 197.421875 C 92.027344 197.421875 92.316406 197.714844 92.316406 198.074219 L 92.460938 198.074219 L 92.460938 194.183594 C 92.460938 193.828125 92.753906 193.535156 93.109375 193.535156 L 99.558594 193.535156 C 99.914063 193.535156 100.207031 193.828125 100.207031 194.183594 L 100.207031 197.320313 L 100.351563 197.320313 C 100.351563 196.960938 100.640625 196.671875 101 196.671875 L 107.535156 196.671875 L 107.535156 192.929688 C 107.535156 192.570313 107.828125 192.28125 108.183594 192.28125 L 110.308594 192.28125 L 110.917969 177.53125 L 110.773438 177.523438 L 110.757813 177.90625 L 105.621094 177.121094 C 92.433594 175.957031 71.882813 172.570313 71.675781 172.535156 C 70.972656 172.503906 70.375 172.207031 69.890625 171.660156 C 68.726563 170.339844 68.226563 167.519531 68.515625 163.929688 L 68.523438 163.832031 L 68.425781 163.851563 C 67 164.15625 65.722656 164.382813 64.640625 164.523438 C 64.375 164.558594 64.121094 164.578125 63.886719 164.578125 C 62.015625 164.578125 61.699219 163.425781 61.675781 162.738281 L 61.667969 162.519531 L 61.546875 162.699219 C 61.488281 162.773438 61.402344 162.816406 61.3125 162.816406 C 61.25 162.816406 61.191406 162.796875 61.140625 162.761719 C 61.078125 162.714844 61.039063 162.648438 61.027344 162.570313 C 61.015625 162.496094 61.035156 162.417969 61.078125 162.355469 L 61.171875 162.234375 L 61.03125 162.226563 C 60.945313 162.230469 60.855469 162.234375 60.757813 162.234375 C 59.847656 162.234375 58.714844 161.964844 58.472656 160.683594 L 58.449219 160.550781 L 58.351563 160.644531 C 58.308594 160.683594 58.242188 160.730469 58.15625 160.730469 C 58.09375 160.730469 58.03125 160.710938 57.980469 160.671875 C 57.921875 160.621094 57.882813 160.554688 57.871094 160.476563 C 57.863281 160.402344 57.882813 160.328125 57.929688 160.265625 L 57.992188 160.183594 L 57.949219 160.082031 C 57.515625 159.949219 56.734375 159.621094 56.359375 158.90625 C 56.09375 158.390625 56.078125 157.757813 56.316406 157.027344 L 56.1875 156.964844 C 56.105469 157.09375 56.011719 157.140625 55.914063 157.140625 C 55.859375 157.140625 55.804688 157.125 55.757813 157.09375 C 55.683594 157.046875 55.636719 156.960938 55.632813 156.863281 L 55.628906 156.792969 L 55.46875 156.792969 C 54.71875 156.792969 53.699219 156.671875 53.121094 156.089844 C 52.824219 155.792969 52.675781 155.394531 52.675781 154.910156 C 52.679688 154.238281 53.546875 153.28125 54.992188 152.355469 L 55.085938 152.292969 L 37.351563 141.523438 C 37.199219 141.429688 37.097656 141.289063 37.054688 141.117188 C 37.015625 140.945313 37.042969 140.769531 37.136719 140.621094 L 51.925781 116.882813 C 52.046875 116.691406 52.253906 116.578125 52.480469 116.578125 C 52.601563 116.578125 52.71875 116.613281 52.820313 116.675781 L 89.867188 139.796875 C 90.015625 139.890625 90.117188 140.035156 90.15625 140.207031 C 90.195313 140.375 90.164063 140.550781 90.070313 140.699219 L 82.484375 152.59375 L 82.546875 152.632813 C 82.636719 152.691406 82.6875 152.800781 82.675781 152.914063 L 82.664063 152.984375 L 103.042969 155.589844 L 103.089844 155.457031 C 103 155.394531 102.949219 155.292969 102.960938 155.1875 C 102.980469 155.042969 103.105469 154.933594 103.25 154.933594 L 103.3125 154.941406 L 103.417969 154.890625 C 106.238281 145.050781 110.433594 131.0625 114.421875 120.316406 C 115.4375 117.578125 117.585938 115.378906 120.316406 114.289063 L 120.355469 114.273438 L 120.363281 114.234375 L 122.957031 113.222656 L 122.949219 113.167969 L 123.90625 112.824219 L 124.125 112.230469 C 124.164063 112.109375 124.273438 112.027344 124.402344 112.027344 C 124.429688 112.027344 124.460938 112.035156 124.488281 112.042969 C 124.574219 112.070313 124.636719 112.132813 124.667969 112.222656 L 124.691406 112.289063 L 130.527344 110.199219 L 133.359375 109.074219 L 133.359375 106.078125 C 133.359375 106.042969 133.367188 106.007813 133.382813 105.96875 L 133.335938 105.769531 L 133.320313 105.707031 L 133.253906 105.71875 C 132.023438 105.933594 131.140625 106.078125 130.640625 106.144531 C 130.234375 106.195313 129.84375 106.222656 129.488281 106.222656 C 125.578125 106.222656 125.054688 103.128906 124.398438 99.207031 L 123.445313 93.40625 L 123.402344 93.394531 C 123.292969 93.363281 123.25 93.351563 123.207031 93.335938 C 121.957031 92.828125 121.203125 90.433594 120.867188 89.046875 C 119.023438 87.023438 118.019531 84.5 117.9375 81.71875 C 117.746094 74.984375 123.132813 68.160156 130.46875 65.847656 C 131.472656 65.460938 132.492188 65.171875 133.511719 64.988281 C 133.617188 64.96875 133.71875 64.957031 133.824219 64.945313 L 134.164063 64.898438 L 134.152344 64.878906 L 138.996094 64.039063 L 139.070313 64.046875 C 139.894531 63.894531 140.742188 63.820313 141.589844 63.820313 C 148.25 63.820313 154.492188 68.382813 156.433594 74.671875 C 157.878906 79.363281 157.050781 83.378906 154.101563 85.976563 L 151.699219 95.785156 L 151.695313 106.90625 L 152.773438 107.464844 L 161.257813 111.605469 L 161.292969 111.546875 C 161.34375 111.453125 161.441406 111.394531 161.546875 111.394531 C 161.71875 111.40625 161.839844 111.542969 161.828125 111.703125 L 161.820313 111.878906 L 165.203125 113.53125 L 172.609375 117.097656 L 172.574219 117.113281 C 175.472656 118.632813 177.550781 121.34375 178.320313 124.613281 C 181.316406 137.410156 185.574219 160.175781 187.132813 173.664063 C 187.878906 180.144531 184.75 184.660156 178.761719 185.746094 C 178.699219 185.757813 178.640625 185.761719 178.582031 185.769531 L 178.382813 185.796875 L 178.382813 185.804688 L 177.953125 185.871094 L 178.382813 190.914063 L 178.351563 190.984375 L 181.480469 230.992188 C 181.050781 231.179688 177.59375 232.632813 171.507813 233.90625 L 171.539063 234.046875 L 172.125 233.921875 L 157.847656 292.605469 L 172.707031 373.203125 C 172.28125 373.457031 171.804688 373.714844 171.210938 374.011719 L 171.167969 374.03125 L 171.792969 388.09375 L 175.078125 388.09375 C 175.238281 388.09375 175.367188 388.222656 175.367188 388.382813 C 175.367188 388.542969 175.238281 388.671875 175.078125 388.671875 Z M 155.46875 388.09375 L 165.425781 388.09375 L 163.476563 380.933594 Z M 15.890625 363.539063 L 15.945313 363.550781 C 21.429688 365.03125 25.261719 370.027344 25.261719 375.707031 C 25.261719 381.554688 21.289063 386.589844 15.605469 387.953125 L 15.621094 388.09375 L 104.132813 388.09375 L 104.144531 388.035156 C 104.464844 386.171875 106.792969 384.992188 109.265625 383.992188 L 109.359375 383.957031 L 109.292969 383.878906 C 107.347656 381.597656 106.273438 378.695313 106.273438 375.707031 C 106.273438 370.027344 110.105469 365.03125 115.59375 363.550781 L 115.644531 363.539063 L 115.644531 358.222656 L 15.890625 358.222656 Z M 107.96875 324.105469 C 108.304688 324.105469 108.585938 324.363281 108.617188 324.695313 L 108.953125 328.46875 L 116.621094 328.46875 L 116.621094 328.445313 L 117.546875 328.445313 L 117.546875 317.519531 L 116.578125 297.09375 L 13.988281 297.09375 L 13.988281 315.296875 L 14.132813 315.296875 C 14.132813 314.9375 14.425781 314.648438 14.78125 314.648438 L 23.625 314.648438 C 23.980469 314.648438 24.273438 314.9375 24.273438 315.296875 L 24.273438 319.6875 L 24.417969 319.6875 L 24.433594 319.609375 L 24.433594 319.035156 L 30.808594 319.035156 C 31.167969 319.035156 31.457031 319.328125 31.457031 319.6875 L 31.601563 319.6875 L 31.601563 316.550781 C 31.601563 316.191406 31.894531 315.902344 32.25 315.902344 L 38.695313 315.902344 C 39.054688 315.902344 39.347656 316.191406 39.347656 316.550781 L 39.347656 319.789063 L 40.042969 319.789063 L 40.042969 319.796875 L 47.429688 319.789063 C 47.789063 319.789063 48.082031 320.082031 48.082031 320.4375 L 48.222656 320.4375 L 48.222656 316.550781 C 48.222656 316.191406 48.515625 315.902344 48.875 315.902344 L 55.882813 315.902344 C 56.242188 315.902344 56.53125 316.191406 56.53125 316.550781 L 56.53125 321.441406 L 56.675781 321.453125 L 56.675781 320.792969 L 63.914063 320.792969 C 64.269531 320.792969 64.5625 321.085938 64.5625 321.441406 L 64.5625 322.570313 L 64.707031 322.570313 C 64.707031 322.214844 64.996094 321.921875 65.355469 321.921875 L 68.84375 321.921875 C 69.199219 321.921875 69.492188 322.214844 69.492188 322.570313 L 69.492188 328.445313 L 72.960938 328.445313 L 73.996094 319.476563 C 74.03125 319.148438 74.308594 318.902344 74.640625 318.902344 L 77.738281 319.128906 C 77.914063 319.140625 78.074219 319.226563 78.1875 319.363281 C 78.300781 319.5 78.355469 319.671875 78.332031 319.851563 L 77.347656 328.386719 L 77.488281 328.40625 L 77.421875 328.445313 L 78.101563 328.445313 L 78.101563 324.078125 C 78.101563 323.71875 78.394531 323.425781 78.753906 323.425781 L 83.25 323.425781 L 83.25 319.6875 C 83.25 319.328125 83.539063 319.035156 83.898438 319.035156 L 86.347656 319.035156 L 86.347656 318.902344 L 86.925781 318.902344 L 86.925781 319.035156 L 92.457031 319.035156 C 92.8125 319.035156 93.105469 319.328125 93.105469 319.6875 L 93.105469 322.570313 L 93.25 322.570313 L 93.257813 321.894531 L 93.835938 321.894531 L 93.910156 321.921875 L 100.203125 321.921875 C 100.5625 321.921875 100.855469 322.214844 100.855469 322.570313 L 100.855469 328.445313 L 101.328125 328.445313 L 101.035156 325.167969 C 101.019531 324.992188 101.074219 324.820313 101.191406 324.6875 C 101.308594 324.550781 101.46875 324.472656 101.644531 324.460938 L 106.207031 324.203125 L 106.507813 324.171875 L 106.566406 324.183594 Z M 98.234375 253.78125 L 104.8125 254.992188 C 105.164063 255.058594 105.398438 255.394531 105.332031 255.75 L 103.375 266.378906 L 105.394531 266.378906 L 105.394531 257.621094 C 105.394531 257.261719 105.6875 256.96875 106.042969 256.96875 L 114.671875 256.96875 L 113.671875 235.964844 L 13.988281 235.964844 L 13.988281 266.378906 L 66.851563 266.378906 L 66.851563 257.621094 C 66.851563 257.261719 67.144531 256.96875 67.5 256.96875 L 72.957031 256.96875 C 73.316406 256.96875 73.609375 257.261719 73.609375 257.621094 L 73.609375 266.070313 L 73.75 266.070313 C 73.75 265.710938 74.042969 265.421875 74.402344 265.421875 L 78.726563 265.421875 C 79.082031 265.421875 79.375 265.710938 79.375 266.070313 L 79.519531 266.070313 L 79.519531 261.226563 C 79.519531 260.867188 79.808594 260.578125 80.167969 260.578125 L 85.933594 260.578125 C 86.292969 260.578125 86.582031 260.867188 86.582031 261.226563 L 86.582031 266.378906 L 91.164063 266.378906 L 93.523438 253.570313 C 93.578125 253.261719 93.847656 253.039063 94.160156 253.039063 C 94.199219 253.039063 94.238281 253.042969 94.277344 253.050781 L 97.941406 253.726563 L 97.941406 253.722656 Z M 150.445313 236.089844 C 150.484375 236.089844 150.519531 236.058594 150.519531 236.015625 C 150.519531 235.976563 150.484375 235.945313 150.445313 235.945313 C 150.445313 235.945313 149.660156 235.941406 149.660156 235.941406 L 149.65625 236.085938 C 149.65625 236.085938 150.445313 236.089844 150.445313 236.089844 Z M 150.9375 235.945313 L 150.9375 236.089844 L 151.417969 236.085938 L 151.414063 235.941406 Z M 152.023438 235.933594 L 152.023438 236.078125 L 152.121094 236.074219 C 152.488281 236.070313 152.855469 236.066406 153.214844 236.058594 L 153.210938 235.914063 C 152.851563 235.921875 152.023438 235.933594 152.023438 235.933594 Z M 153.921875 235.894531 L 153.925781 236.039063 C 153.925781 236.039063 154.675781 236.015625 154.964844 236.003906 L 154.960938 235.859375 C 154.667969 235.871094 153.921875 235.894531 153.921875 235.894531 Z M 148.109375 235.9375 C 148.222656 235.957031 148.332031 235.976563 148.445313 235.996094 L 148.46875 235.851563 C 148.355469 235.835938 148.246094 235.816406 148.136719 235.792969 Z M 155.6875 235.828125 L 155.695313 235.972656 C 156.019531 235.957031 156.34375 235.945313 156.664063 235.925781 L 156.65625 235.785156 C 156.335938 235.800781 156.011719 235.8125 155.6875 235.828125 Z M 157.382813 235.742188 L 157.390625 235.886719 C 157.695313 235.867188 158.003906 235.847656 158.304688 235.828125 L 158.292969 235.683594 C 157.992188 235.703125 157.6875 235.722656 157.382813 235.742188 Z M 147.269531 235.730469 C 147.367188 235.761719 147.46875 235.789063 147.566406 235.816406 L 147.605469 235.675781 C 147.503906 235.648438 147.410156 235.621094 147.3125 235.59375 Z M 159.023438 235.632813 L 159.03125 235.773438 L 159.894531 235.707031 L 159.882813 235.566406 Z M 160.589844 235.503906 L 160.605469 235.648438 L 161.4375 235.570313 L 161.421875 235.425781 Z M 162.113281 235.355469 L 162.125 235.5 L 162.917969 235.414063 L 162.902344 235.269531 Z M 163.570313 235.195313 L 163.589844 235.335938 L 164.351563 235.242188 L 164.332031 235.101563 Z M 164.976563 235.015625 L 164.996094 235.160156 L 165.722656 235.058594 L 165.703125 234.917969 Z M 166.332031 234.828125 L 166.351563 234.96875 L 167.046875 234.863281 L 167.023438 234.722656 Z M 167.625 234.625 L 167.648438 234.769531 L 168.261719 234.664063 L 168.289063 234.515625 Z M 168.863281 234.417969 L 168.890625 234.558594 L 169.511719 234.445313 L 169.484375 234.304688 Z M 170.050781 234.199219 L 170.074219 234.339844 L 170.664063 234.226563 L 170.636719 234.082031 Z M 141.871094 230.117188 L 142.011719 230.082031 C 141.992188 230.007813 141.976563 229.9375 141.960938 229.863281 L 141.808594 229.851563 C 141.808594 229.851563 141.851563 230.042969 141.871094 230.117188 Z M 141.601563 227.917969 L 141.746094 227.921875 L 142.003906 214.417969 L 141.863281 214.414063 Z M 69.164063 163.691406 L 69.199219 163.832031 L 69.179688 163.6875 Z M 121.765625 90.09375 C 122.070313 91.015625 122.566406 92.214844 123.195313 92.667969 L 123.335938 92.769531 L 123.03125 90.90625 C 122.648438 90.628906 122.339844 90.402344 122.054688 90.171875 C 122.023438 90.144531 121.992188 90.117188 121.964844 90.089844 L 121.882813 90.015625 L 121.6875 89.851563 Z M 121.335938 88.515625 L 121.378906 88.707031 L 121.46875 88.820313 C 121.609375 88.964844 121.746094 89.113281 121.894531 89.25 L 122 89.152344 C 121.8125 88.929688 121.632813 88.695313 121.464844 88.457031 Z M 122.71875 71.410156 C 119.90625 74.449219 118.414063 78.105469 118.515625 81.699219 C 118.582031 83.9375 119.296875 86.042969 120.585938 87.78125 L 120.644531 87.859375 L 120.703125 87.78125 C 120.738281 87.734375 120.785156 87.699219 120.84375 87.683594 L 120.929688 87.65625 L 120.886719 87.578125 C 119.867188 85.851563 119.3125 83.90625 119.238281 81.796875 C 119.105469 78.246094 120.382813 74.589844 122.828125 71.503906 Z M 122.71875 71.410156 "/>
</g>
<path style=" stroke:none;fill-rule:nonzero;fill:rgb(39.99939%,61.178589%,93.328857%);fill-opacity:1;" d="M 90.132813 140.738281 L 82.390625 152.875 L 82.152344 153.25 L 75.398438 163.839844 L 75.378906 163.871094 C 75.167969 164.203125 74.730469 164.304688 74.394531 164.101563 L 72.503906 162.953125 L 68.347656 160.429688 C 68.347656 160.429688 70.394531 157.785156 70.980469 156.820313 C 72.632813 154.109375 69.902344 154.265625 69.902344 154.265625 C 69.902344 154.265625 70.980469 152.570313 69.902344 151.636719 C 69.769531 151.523438 69.625 151.453125 69.472656 151.398438 C 69.238281 151.316406 68.992188 151.285156 68.753906 151.292969 C 68.132813 151.316406 67.582031 151.558594 67.582031 151.558594 C 67.605469 151.40625 67.609375 151.261719 67.601563 151.125 C 67.523438 149.964844 66.375 149.449219 64.507813 150.347656 C 62.609375 151.261719 59.628906 153.546875 59.628906 153.546875 C 59.628906 153.546875 61.054688 151.949219 60.324219 150.941406 C 59.6875 150.066406 56.980469 150.992188 54.949219 152.292969 L 37.3125 141.582031 C 36.96875 141.375 36.863281 140.925781 37.074219 140.585938 L 51.867188 116.84375 C 52.078125 116.507813 52.523438 116.402344 52.859375 116.613281 L 89.90625 139.734375 C 90.246094 139.949219 90.347656 140.398438 90.132813 140.738281 Z M 78.726563 265.347656 L 74.402344 265.347656 C 74.003906 265.347656 73.679688 265.671875 73.679688 266.070313 L 73.679688 291.75 C 73.679688 292.148438 74.003906 292.472656 74.402344 292.472656 L 78.726563 292.472656 C 79.125 292.472656 79.445313 292.148438 79.445313 291.75 L 79.445313 266.070313 C 79.445313 265.671875 79.125 265.347656 78.726563 265.347656 Z M 116.753906 256.898438 L 106.042969 256.898438 C 105.644531 256.898438 105.324219 257.222656 105.324219 257.621094 L 105.324219 291.75 C 105.324219 292.148438 105.644531 292.472656 106.042969 292.472656 L 116.753906 292.472656 C 117.152344 292.472656 117.476563 292.148438 117.476563 291.75 L 117.476563 257.621094 C 117.476563 257.222656 117.152344 256.898438 116.753906 256.898438 Z M 100.277344 230.621094 L 100.277344 194.183594 C 100.277344 193.785156 99.957031 193.460938 99.558594 193.460938 L 93.113281 193.460938 C 92.714844 193.460938 92.390625 193.785156 92.390625 194.183594 L 92.390625 230.621094 C 92.390625 231.019531 92.714844 231.34375 93.113281 231.34375 L 99.558594 231.34375 C 99.957031 231.34375 100.277344 231.019531 100.277344 230.621094 Z M 82.933594 193.460938 L 75.925781 193.460938 C 75.527344 193.460938 75.203125 193.785156 75.203125 194.183594 L 75.203125 230.621094 C 75.203125 231.019531 75.527344 231.34375 75.925781 231.34375 L 82.933594 231.34375 C 83.332031 231.34375 83.65625 231.019531 83.65625 230.621094 L 83.65625 194.183594 C 83.65625 193.785156 83.332031 193.460938 82.933594 193.460938 Z M 67.175781 230.621094 L 67.175781 200.207031 C 67.175781 199.804688 66.851563 199.484375 66.453125 199.484375 L 62.964844 199.484375 C 62.566406 199.484375 62.242188 199.804688 62.242188 200.207031 L 62.242188 204.21875 L 60.871094 209.171875 L 61.902344 230.621094 C 61.902344 231.019531 62.566406 231.34375 62.964844 231.34375 L 66.453125 231.34375 C 66.851563 231.34375 67.175781 231.019531 67.175781 230.621094 Z M 37.910156 231.34375 C 38.308594 231.34375 38.628906 231.019531 38.628906 230.621094 L 38.628906 200.207031 C 38.628906 199.804688 38.308594 199.484375 37.910156 199.484375 L 31.605469 199.484375 C 31.207031 199.484375 30.882813 199.804688 30.882813 200.207031 L 30.882813 204.21875 L 30.242188 214.773438 L 29.898438 230.621094 C 29.898438 231.019531 31.207031 231.34375 31.605469 231.34375 Z M 38.695313 315.828125 L 32.25 315.828125 C 31.851563 315.828125 31.53125 316.152344 31.53125 316.550781 L 31.53125 352.988281 C 31.53125 353.253906 31.679688 353.472656 31.890625 353.597656 C 32 353.664063 32.117188 353.707031 32.25 353.707031 L 38.695313 353.707031 C 38.832031 353.707031 38.949219 353.664063 39.054688 353.597656 C 39.269531 353.472656 39.78125 353.640625 39.78125 353.375 L 39.84375 330.035156 L 39.417969 319.71875 L 39.417969 316.550781 C 39.417969 316.152344 39.09375 315.828125 38.695313 315.828125 Z M 55.882813 315.828125 L 48.875 315.828125 C 48.476563 315.828125 48.152344 316.152344 48.152344 316.550781 L 48.152344 352.988281 C 48.152344 353.253906 48.300781 353.472656 48.515625 353.597656 C 48.621094 353.664063 48.738281 353.707031 48.875 353.707031 L 55.882813 353.707031 C 56.015625 353.707031 56.132813 353.664063 56.242188 353.597656 C 56.453125 353.472656 56.964844 353.863281 56.964844 353.597656 L 57.011719 329.34375 L 56.605469 320.71875 L 56.605469 316.550781 C 56.605469 316.152344 56.28125 315.828125 55.882813 315.828125 Z M 68.84375 321.847656 L 65.355469 321.847656 C 64.957031 321.847656 64.632813 322.171875 64.632813 322.570313 L 64.632813 352.988281 C 64.632813 353.253906 64.785156 353.472656 64.996094 353.597656 C 65.101563 353.664063 65.222656 353.707031 65.355469 353.707031 L 68.84375 353.707031 C 68.976563 353.707031 69.09375 353.664063 69.203125 353.597656 C 69.414063 353.472656 69.890625 353.558594 69.890625 353.292969 L 70.996094 332.070313 L 69.5625 328.398438 L 69.5625 322.570313 C 69.5625 322.171875 69.242188 321.847656 68.84375 321.847656 Z M 100.203125 321.847656 L 93.898438 321.847656 C 93.5 321.847656 93.179688 322.171875 93.179688 322.570313 L 93.179688 352.988281 C 93.179688 353.253906 93.328125 353.472656 93.539063 353.597656 C 93.648438 353.664063 93.765625 353.707031 93.898438 353.707031 L 100.203125 353.707031 C 100.339844 353.707031 100.457031 353.664063 100.5625 353.597656 C 100.777344 353.472656 101.980469 353.601563 101.980469 353.339844 L 101.363281 331.007813 L 100.925781 328.398438 L 100.925781 322.570313 C 100.925781 322.171875 100.601563 321.847656 100.203125 321.847656 Z M 100.203125 321.847656 "/>
<path style=" stroke:none;fill-rule:nonzero;fill:rgb(96.859741%,90.979004%,86.268616%);fill-opacity:1;" d="M 73.398438 157.945313 C 73.332031 157.945313 73.269531 157.929688 73.210938 157.894531 L 43.488281 139.847656 C 43.40625 139.796875 43.347656 139.714844 43.324219 139.621094 C 43.304688 139.527344 43.320313 139.429688 43.371094 139.347656 L 53.554688 123.003906 C 53.605469 122.921875 53.6875 122.863281 53.78125 122.84375 C 53.871094 122.820313 53.96875 122.835938 54.050781 122.886719 L 83.714844 141.402344 C 83.796875 141.453125 83.855469 141.535156 83.875 141.628906 C 83.894531 141.722656 83.878906 141.820313 83.828125 141.902344 L 73.703125 157.777344 C 73.632813 157.886719 73.515625 157.945313 73.398438 157.945313 Z M 44.175781 139.417969 L 73.28125 157.09375 L 83.023438 141.820313 L 53.976563 123.691406 Z M 44.175781 139.417969 "/>
<g clip-path="url(#clip2)" clip-rule="nonzero">
<path style=" stroke:none;fill-rule:nonzero;fill:rgb(96.859741%,90.979004%,86.268616%);fill-opacity:1;" d="M 171.878906 388.382813 L 165.429688 388.382813 L 163.4375 381.0625 L 155.253906 388.382813 L 152.492188 388.382813 L 162.660156 378.207031 L 166.285156 374.582031 L 165.019531 374.457031 L 161.546875 374.105469 L 161.269531 373.097656 L 171.15625 372.085938 L 171.242188 374.082031 Z M 151.078125 387.664063 L 144.078125 384.109375 L 141.375 382.738281 L 139.097656 381.582031 L 137.933594 380.988281 L 137.089844 380.5625 C 137.089844 380.5625 134.769531 381.84375 130.960938 383.324219 C 129.355469 383.945313 127.683594 384.585938 126.40625 385.386719 C 126.140625 385.554688 125.898438 385.726563 125.675781 385.90625 C 124.816406 386.589844 124.253906 387.390625 124.21875 388.382813 L 152.492188 388.382813 L 151.667969 387.964844 Z M 142.378906 191.273438 L 138.234375 191.894531 C 139.640625 191.683594 139.710938 187.472656 139.121094 182.980469 L 131.691406 184.371094 C 128.785156 187.6875 122.980469 190.058594 122.167969 190.378906 L 122.167969 212 C 126.535156 213.175781 133.082031 214.351563 141.933594 214.417969 Z M 142.914063 163.445313 C 142.761719 148.171875 145.410156 138.355469 147.296875 130.089844 C 147.410156 129.605469 147.519531 129.125 147.621094 128.648438 C 147.984375 127.015625 148.414063 125.160156 148.871094 123.246094 C 144.285156 125.253906 139.164063 126.28125 134.605469 124.328125 C 132.78125 123.546875 131.046875 122.28125 129.472656 120.417969 C 129.210938 121.886719 128.933594 123.496094 128.632813 125.234375 C 127.074219 134.316406 125.039063 146.972656 122.976563 162.0625 C 122.960938 162.183594 122.945313 162.296875 122.929688 162.417969 C 122.660156 166.472656 122.472656 170.535156 122.371094 174.601563 C 125.359375 173.601563 129.429688 172.996094 131.691406 172.644531 C 132.488281 172.519531 133.84375 172.300781 135.269531 172.070313 L 142.769531 170.78125 Z M 117.867188 81.71875 C 117.667969 74.820313 123.152344 68.078125 130.445313 65.777344 C 131.429688 65.402344 132.449219 65.105469 133.5 64.917969 C 133.679688 64.882813 133.855469 64.871094 134.035156 64.84375 L 134.023438 64.828125 L 139.054688 63.957031 L 139.054688 63.972656 C 146.457031 62.625 154.269531 67.40625 156.503906 74.648438 C 157.980469 79.441406 157.066406 83.460938 154.148438 86.03125 L 151.769531 95.800781 L 151.765625 95.824219 L 148.960938 96.195313 L 146.65625 96.5 L 143.808594 91.90625 C 145.328125 91.539063 146.460938 90.367188 146.835938 88.929688 C 146.980469 88.367188 147.011719 87.769531 146.902344 87.160156 C 146.789063 86.527344 146.53125 85.960938 146.175781 85.472656 C 145.765625 84.910156 145.222656 84.464844 144.601563 84.167969 C 143.847656 83.8125 142.984375 83.679688 142.105469 83.839844 C 140.066406 84.210938 138.65625 86.023438 138.726563 88.039063 C 136.890625 87.417969 135.1875 86.519531 133.738281 85.347656 C 131.878906 83.84375 130.433594 81.898438 129.703125 79.527344 C 128.578125 75.886719 129.082031 72.316406 130.796875 69.496094 C 124.679688 71.832031 120.851563 78.226563 121.96875 84.9375 C 122.15625 86.066406 122.460938 87.90625 122.792969 89.898438 C 122.804688 89.976563 122.816406 90.058594 122.832031 90.136719 C 122.871094 90.394531 122.914063 90.65625 122.960938 90.917969 C 122.632813 90.703125 122.3125 90.472656 122.007813 90.226563 C 119.4375 88.140625 117.964844 85.121094 117.867188 81.71875 Z M 118.589844 81.699219 C 118.671875 84.644531 119.867188 87.273438 121.945313 89.199219 C 120.289063 87.234375 119.273438 84.703125 119.164063 81.796875 C 119.027344 78.082031 120.414063 74.433594 122.773438 71.460938 C 120.101563 74.347656 118.480469 78 118.589844 81.699219 Z M 115.574219 358.292969 L 115.574219 376.4375 C 115.574219 377.914063 116.648438 379.132813 118.058594 379.367188 C 118.21875 379.394531 118.382813 379.417969 118.554688 379.417969 L 119.1875 379.417969 C 120.832031 379.417969 122.167969 378.082031 122.167969 376.4375 L 122.167969 358.292969 Z M 9.371094 358.292969 L 9.371094 376.4375 C 9.371094 378.082031 10.703125 379.417969 12.351563 379.417969 L 12.984375 379.417969 C 14.628906 379.417969 15.964844 378.082031 15.964844 376.4375 L 15.964844 358.292969 Z M 73.679688 291.75 L 73.679688 257.621094 C 73.679688 257.222656 73.355469 256.898438 72.957031 256.898438 L 67.5 256.898438 C 67.101563 256.898438 66.78125 257.222656 66.78125 257.621094 L 66.78125 291.75 C 66.78125 292.148438 67.101563 292.472656 67.5 292.472656 L 72.957031 292.472656 C 73.355469 292.472656 73.679688 292.148438 73.679688 291.75 Z M 80.167969 292.472656 L 85.933594 292.472656 C 86.332031 292.472656 86.65625 292.148438 86.65625 291.75 L 86.65625 261.226563 C 86.65625 260.828125 86.332031 260.503906 85.933594 260.503906 L 80.167969 260.503906 C 79.769531 260.503906 79.445313 260.828125 79.445313 261.226563 L 79.445313 291.75 C 79.445313 292.148438 79.769531 292.472656 80.167969 292.472656 Z M 105.402344 255.761719 C 105.476563 255.371094 105.214844 254.992188 104.824219 254.921875 L 94.292969 252.980469 C 93.898438 252.90625 93.523438 253.167969 93.453125 253.558594 L 91.105469 266.308594 L 86.882813 289.253906 C 86.808594 289.644531 87.070313 290.019531 87.460938 290.09375 L 97.992188 292.035156 C 98.382813 292.105469 98.761719 291.847656 98.832031 291.453125 L 103.460938 266.308594 Z M 101 231.34375 L 106.742188 231.34375 C 107.140625 231.34375 107.464844 231.019531 107.464844 230.621094 C 107.464844 231.019531 107.785156 231.34375 108.183594 231.34375 L 117.023438 231.34375 C 117.199219 231.34375 117.351563 231.273438 117.476563 231.171875 C 117.636719 231.039063 117.746094 230.847656 117.746094 230.621094 L 117.746094 194.523438 C 117.65625 194.597656 117.566406 194.667969 117.476563 194.742188 C 117.328125 194.859375 117.183594 194.96875 117.042969 195.074219 C 115.949219 195.886719 115.011719 196.355469 114.652344 195.941406 C 113.777344 194.933594 115.0625 192.945313 115.59375 192.207031 L 108.183594 192.207031 C 107.785156 192.207031 107.464844 192.53125 107.464844 192.929688 L 107.464844 197.320313 C 107.464844 196.921875 107.140625 196.597656 106.742188 196.597656 L 101 196.597656 C 100.601563 196.597656 100.277344 196.921875 100.277344 197.320313 L 100.277344 230.621094 C 100.277344 231.019531 100.601563 231.34375 101 231.34375 Z M 84.378906 231.34375 L 91.667969 231.34375 C 92.066406 231.34375 92.390625 231.019531 92.390625 230.621094 L 92.390625 198.074219 C 92.390625 197.675781 92.066406 197.351563 91.667969 197.351563 L 84.378906 197.351563 C 83.980469 197.351563 83.65625 197.675781 83.65625 198.074219 L 83.65625 230.621094 C 83.65625 231.019531 83.980469 231.34375 84.378906 231.34375 Z M 67.894531 231.34375 L 74.484375 231.34375 C 74.882813 231.34375 75.203125 231.019531 75.203125 230.621094 L 75.203125 199.078125 C 75.203125 198.675781 74.882813 198.355469 74.484375 198.355469 L 67.894531 198.355469 C 67.496094 198.355469 67.175781 198.675781 67.175781 199.078125 L 67.175781 230.621094 C 67.175781 231.019531 67.496094 231.34375 67.894531 231.34375 Z M 58.003906 231.292969 L 61.054688 231.070313 C 61.460938 231.039063 61.765625 230.675781 61.71875 230.265625 L 58.707031 204.21875 L 57.886719 197.105469 C 57.839844 196.71875 57.5 196.4375 57.117188 196.464844 L 54.066406 196.691406 C 53.65625 196.722656 53.355469 197.085938 53.402344 197.492188 L 54.179688 204.21875 L 57.234375 230.65625 C 57.28125 231.039063 57.617188 231.320313 58.003906 231.292969 Z M 53.054688 200.988281 L 49.144531 200.988281 C 48.945313 200.988281 48.761719 201.070313 48.632813 201.203125 L 48.632813 197.320313 C 48.632813 196.921875 48.308594 196.597656 47.910156 196.597656 L 39.351563 196.597656 C 38.953125 196.597656 38.628906 196.921875 38.628906 197.320313 L 38.628906 230.621094 C 38.628906 231.019531 38.953125 231.34375 39.351563 231.34375 L 47.910156 231.34375 C 48.179688 231.34375 48.402344 231.191406 48.527344 230.972656 C 48.652344 231.191406 48.878906 231.34375 49.144531 231.34375 L 53.054688 231.34375 C 53.453125 231.34375 53.777344 231.019531 53.777344 230.621094 L 53.777344 201.710938 C 53.777344 201.3125 53.453125 200.988281 53.054688 200.988281 Z M 21.316406 230.945313 L 27.605469 231.304688 C 27.992188 231.324219 28.328125 231.035156 28.363281 230.648438 L 30.71875 204.21875 L 30.84375 202.808594 C 30.878906 202.402344 30.574219 202.046875 30.167969 202.023438 L 23.878906 201.667969 C 23.492188 201.644531 23.15625 201.9375 23.121094 202.324219 L 22.953125 204.21875 L 20.640625 230.164063 C 20.601563 230.570313 20.910156 230.925781 21.316406 230.945313 Z M 30.808594 318.964844 L 25.066406 318.964844 C 24.667969 318.964844 24.34375 319.289063 24.34375 319.6875 L 24.34375 315.296875 C 24.34375 314.898438 24.023438 314.574219 23.625 314.574219 L 14.78125 314.574219 C 14.382813 314.574219 14.0625 314.898438 14.0625 315.296875 L 14.0625 352.988281 C 14.0625 353.253906 14.210938 353.472656 14.425781 353.597656 C 14.53125 353.664063 14.648438 353.707031 14.78125 353.707031 L 23.625 353.707031 C 23.757813 353.707031 23.875 353.664063 23.984375 353.597656 C 24.195313 353.472656 24.34375 353.253906 24.34375 352.988281 C 24.34375 353.253906 24.496094 353.472656 24.707031 353.597656 C 24.816406 353.664063 24.933594 353.707031 25.066406 353.707031 L 30.808594 353.707031 C 30.941406 353.707031 31.058594 353.664063 31.167969 353.597656 C 31.378906 353.472656 31.53125 353.253906 31.53125 352.988281 L 31.53125 319.6875 C 31.53125 319.289063 31.207031 318.964844 30.808594 318.964844 Z M 47.429688 319.71875 L 40.140625 319.71875 C 39.742188 319.71875 39.417969 320.039063 39.417969 320.4375 L 39.417969 352.988281 C 39.417969 353.253906 39.566406 353.472656 39.78125 353.597656 C 39.886719 353.664063 40.007813 353.707031 40.140625 353.707031 L 47.429688 353.707031 C 47.566406 353.707031 47.683594 353.664063 47.789063 353.597656 C 48.003906 353.472656 48.152344 353.253906 48.152344 352.988281 L 48.152344 320.4375 C 48.152344 320.039063 47.828125 319.71875 47.429688 319.71875 Z M 63.914063 320.71875 L 57.324219 320.71875 C 56.925781 320.71875 56.605469 321.042969 56.605469 321.441406 L 56.605469 352.988281 C 56.605469 353.253906 56.753906 353.472656 56.964844 353.597656 C 57.074219 353.664063 57.191406 353.707031 57.324219 353.707031 L 63.914063 353.707031 C 64.046875 353.707031 64.164063 353.664063 64.273438 353.597656 C 64.484375 353.472656 64.632813 353.253906 64.632813 352.988281 L 64.632813 321.441406 C 64.632813 321.042969 64.3125 320.71875 63.914063 320.71875 Z M 77.742188 319.058594 L 74.691406 318.832031 C 74.308594 318.804688 73.96875 319.085938 73.921875 319.46875 L 72.890625 328.398438 L 70.089844 352.632813 C 70.042969 353.039063 70.347656 353.40625 70.753906 353.433594 L 72.992188 353.597656 L 73.804688 353.660156 C 73.917969 353.667969 74.027344 353.640625 74.128906 353.597656 C 74.363281 353.503906 74.542969 353.292969 74.574219 353.023438 L 77.417969 328.398438 L 78.40625 319.859375 C 78.453125 319.453125 78.152344 319.085938 77.742188 319.058594 Z M 92.457031 318.964844 L 83.898438 318.964844 C 83.5 318.964844 83.175781 319.289063 83.175781 319.6875 L 83.175781 323.570313 C 83.046875 323.4375 82.863281 323.355469 82.664063 323.355469 L 78.753906 323.355469 C 78.355469 323.355469 78.03125 323.675781 78.03125 324.078125 L 78.03125 352.988281 C 78.03125 353.253906 78.179688 353.472656 78.394531 353.597656 C 78.5 353.664063 78.617188 353.707031 78.753906 353.707031 L 82.664063 353.707031 C 82.796875 353.707031 82.914063 353.664063 83.023438 353.597656 C 83.128906 353.535156 83.21875 353.449219 83.28125 353.339844 C 83.34375 353.449219 83.429688 353.535156 83.539063 353.597656 C 83.644531 353.664063 83.765625 353.707031 83.898438 353.707031 L 92.457031 353.707031 C 92.589844 353.707031 92.707031 353.664063 92.816406 353.597656 C 93.027344 353.472656 93.179688 353.253906 93.179688 352.988281 L 93.179688 319.6875 C 93.179688 319.289063 92.855469 318.964844 92.457031 318.964844 Z M 108.6875 324.691406 C 108.652344 324.300781 108.316406 324.011719 107.929688 324.03125 L 101.640625 324.390625 C 101.234375 324.414063 100.929688 324.769531 100.964844 325.175781 L 101.25 328.398438 L 103.445313 353.011719 C 103.46875 353.28125 103.640625 353.496094 103.871094 353.597656 C 103.972656 353.644531 104.085938 353.675781 104.203125 353.667969 L 105.4375 353.597656 L 110.492188 353.3125 C 110.898438 353.289063 111.203125 352.933594 111.167969 352.527344 L 109.019531 328.398438 Z M 108.6875 324.691406 "/>
</g>
<g clip-path="url(#clip3)" clip-rule="nonzero">
<path style=" stroke:none;fill-rule:nonzero;fill:rgb(98.429871%,70.199585%,47.059631%);fill-opacity:1;" d="M 166.285156 374.582031 L 162.660156 378.207031 L 152.492188 388.382813 L 151.667969 387.964844 L 151.078125 387.664063 L 144.078125 384.109375 L 141.375 382.738281 L 139.097656 381.582031 L 137.933594 380.988281 L 137.089844 380.5625 C 137.089844 380.5625 139.4375 378.144531 141.789063 375.699219 C 142.246094 375.222656 142.703125 374.746094 143.144531 374.285156 C 143.675781 373.734375 144.171875 373.210938 144.621094 372.738281 C 144.71875 372.636719 144.816406 372.53125 144.90625 372.4375 L 146.246094 372.570313 L 151.007813 373.046875 L 161.546875 374.105469 L 165.019531 374.457031 Z M 122.878906 113.175781 L 124.308594 112.605469 L 124.316406 112.582031 L 122.878906 113.152344 C 122.878906 113.152344 122.878906 113.167969 122.878906 113.175781 Z M 122.792969 89.898438 C 122.804688 89.976563 122.816406 90.058594 122.832031 90.136719 C 122.871094 90.394531 122.914063 90.65625 122.960938 90.917969 C 123.625 94.960938 124.328125 99.222656 124.328125 99.222656 C 125.050781 103.527344 125.660156 106.859375 130.648438 106.214844 C 131.316406 106.128906 132.550781 105.917969 133.738281 105.707031 L 133.738281 108.847656 L 130.503906 110.128906 L 131.441406 109.792969 C 131.441406 109.792969 131.039063 111.808594 130.359375 115.511719 C 130.101563 116.910156 129.804688 118.554688 129.472656 120.417969 C 131.046875 122.28125 132.78125 123.546875 134.605469 124.328125 C 139.164063 126.28125 144.285156 125.253906 148.871094 123.246094 C 150.644531 115.785156 152.808594 107.398438 152.808594 107.398438 L 151.769531 106.863281 L 151.769531 95.800781 L 151.765625 95.824219 L 148.960938 96.195313 L 146.65625 96.5 L 143.808594 91.90625 C 145.328125 91.539063 146.460938 90.367188 146.835938 88.929688 C 146.980469 88.367188 147.011719 87.769531 146.902344 87.160156 C 146.789063 86.527344 146.53125 85.960938 146.175781 85.472656 C 145.765625 84.910156 145.222656 84.464844 144.601563 84.167969 C 143.847656 83.8125 142.984375 83.679688 142.105469 83.839844 C 140.066406 84.210938 138.65625 86.023438 138.726563 88.039063 C 136.890625 87.417969 135.1875 86.519531 133.738281 85.347656 C 131.878906 83.84375 130.433594 81.898438 129.703125 79.527344 C 128.578125 75.886719 129.082031 72.316406 130.796875 69.496094 C 124.679688 71.832031 120.851563 78.226563 121.96875 84.9375 C 122.15625 86.066406 122.460938 87.90625 122.792969 89.898438 Z M 56.308594 156.816406 C 55.1875 159.789063 58.355469 160.253906 58.355469 160.253906 C 58.429688 162.921875 61.636719 162.226563 61.636719 162.226563 C 61.636719 162.226563 61.046875 165.070313 64.648438 164.59375 C 66.148438 164.398438 67.796875 164.070313 69.195313 163.757813 L 75.347656 164.65625 C 75.367188 164.390625 75.386719 164.117188 75.398438 163.839844 L 75.378906 163.871094 C 75.167969 164.203125 74.730469 164.304688 74.394531 164.101563 L 72.503906 162.953125 L 68.347656 160.429688 C 68.347656 160.429688 70.394531 157.785156 70.980469 156.820313 C 72.632813 154.109375 69.902344 154.265625 69.902344 154.265625 C 69.902344 154.265625 70.980469 152.570313 69.902344 151.636719 C 69.769531 151.523438 69.625 151.453125 69.472656 151.398438 C 69.238281 151.316406 68.992188 151.285156 68.753906 151.292969 C 68.132813 151.316406 67.582031 151.558594 67.582031 151.558594 C 67.605469 151.40625 67.609375 151.261719 67.601563 151.125 C 67.523438 149.964844 66.375 149.449219 64.507813 150.347656 C 62.609375 151.261719 59.628906 153.546875 59.628906 153.546875 C 59.628906 153.546875 61.054688 151.949219 60.324219 150.941406 C 59.6875 150.066406 56.980469 150.992188 54.949219 152.292969 C 53.640625 153.132813 52.609375 154.132813 52.605469 154.910156 C 52.59375 157.355469 56.308594 156.816406 56.308594 156.816406 Z M 139.121094 182.980469 L 131.691406 184.371094 C 128.785156 187.6875 122.980469 190.058594 122.167969 190.378906 L 122.167969 358.292969 L 9.371094 358.292969 L 9.371094 187.941406 C 9.371094 186.644531 10.421875 185.59375 11.714844 185.59375 C 13.011719 185.59375 14.0625 186.644531 14.0625 187.941406 L 14.0625 231.34375 L 117.476563 231.34375 L 117.476563 231.171875 C 117.636719 231.039063 117.746094 230.847656 117.746094 230.621094 L 117.746094 194.523438 C 117.65625 194.597656 117.566406 194.667969 117.476563 194.742188 C 117.328125 194.859375 117.183594 194.96875 117.042969 195.074219 C 115.949219 195.886719 115.011719 196.355469 114.652344 195.941406 C 113.777344 194.933594 115.0625 192.945313 115.59375 192.207031 C 115.722656 192.03125 115.808594 191.925781 115.808594 191.925781 C 115.808594 191.925781 114.652344 192.371094 114.003906 190.417969 C 113.351563 188.464844 114.074219 187.105469 114.074219 187.105469 C 113.28125 184.960938 113.636719 184.367188 114.074219 183.613281 C 115.152344 181.753906 117.226563 178.105469 119.074219 176.359375 C 119.304688 176.140625 119.53125 175.949219 119.753906 175.796875 C 120.410156 175.347656 121.328125 174.949219 122.371094 174.601563 C 125.359375 173.601563 129.429688 172.996094 131.691406 172.644531 C 132.488281 172.519531 133.84375 172.300781 135.269531 172.070313 C 136.75 171.816406 138.414063 177.597656 139.121094 182.980469 Z M 117.476563 297.164063 L 14.0625 297.164063 L 14.0625 353.597656 L 14.425781 353.597656 C 14.53125 353.664063 14.648438 353.707031 14.78125 353.707031 L 23.625 353.707031 C 23.757813 353.707031 23.875 353.664063 23.984375 353.597656 L 24.707031 353.597656 C 24.816406 353.664063 24.933594 353.707031 25.066406 353.707031 L 30.808594 353.707031 C 30.941406 353.707031 31.058594 353.664063 31.167969 353.597656 L 31.890625 353.597656 C 32 353.664063 32.117188 353.707031 32.25 353.707031 L 38.695313 353.707031 C 38.832031 353.707031 38.949219 353.664063 39.054688 353.597656 L 39.78125 353.597656 C 39.886719 353.664063 40.007813 353.707031 40.140625 353.707031 L 47.429688 353.707031 C 47.566406 353.707031 47.683594 353.664063 47.789063 353.597656 L 48.515625 353.597656 C 48.621094 353.664063 48.738281 353.707031 48.875 353.707031 L 55.882813 353.707031 C 56.015625 353.707031 56.132813 353.664063 56.242188 353.597656 L 56.964844 353.597656 C 57.074219 353.664063 57.191406 353.707031 57.324219 353.707031 L 63.914063 353.707031 C 64.046875 353.707031 64.164063 353.664063 64.273438 353.597656 L 64.996094 353.597656 C 65.101563 353.664063 65.222656 353.707031 65.355469 353.707031 L 68.84375 353.707031 C 68.976563 353.707031 69.09375 353.664063 69.203125 353.597656 L 72.992188 353.597656 L 73.804688 353.660156 C 73.917969 353.667969 74.027344 353.640625 74.128906 353.597656 L 78.394531 353.597656 C 78.5 353.664063 78.617188 353.707031 78.753906 353.707031 L 82.664063 353.707031 C 82.796875 353.707031 82.914063 353.664063 83.023438 353.597656 L 83.539063 353.597656 C 83.644531 353.664063 83.765625 353.707031 83.898438 353.707031 L 92.457031 353.707031 C 92.589844 353.707031 92.707031 353.664063 92.816406 353.597656 L 93.539063 353.597656 C 93.648438 353.664063 93.765625 353.707031 93.898438 353.707031 L 100.203125 353.707031 C 100.339844 353.707031 100.457031 353.664063 100.5625 353.597656 L 103.871094 353.597656 C 103.972656 353.644531 104.085938 353.675781 104.203125 353.667969 L 105.4375 353.597656 L 117.476563 353.597656 Z M 117.476563 236.039063 L 14.0625 236.039063 L 14.0625 292.472656 L 117.476563 292.472656 Z M 117.476563 236.039063 "/>
</g>
<g clip-path="url(#clip4)" clip-rule="nonzero">
<path style=" stroke:none;fill-rule:nonzero;fill:rgb(75.689697%,59.609985%,48.629761%);fill-opacity:1;" d="M 141.082031 373.097656 L 144.621094 372.738281 C 144.171875 373.210938 143.675781 373.734375 143.144531 374.285156 C 142.703125 374.746094 142.246094 375.222656 141.789063 375.699219 C 139.4375 378.144531 137.089844 380.5625 137.089844 380.5625 C 137.089844 380.5625 134.769531 381.84375 130.960938 383.324219 C 129.355469 383.945313 127.683594 384.585938 126.40625 385.386719 C 126.140625 385.554688 125.898438 385.726563 125.675781 385.90625 C 124.816406 386.589844 124.253906 387.390625 124.21875 388.382813 L 104.027344 388.382813 C 104.121094 385.859375 107.582031 384.5625 110.769531 383.324219 C 114.582031 381.84375 116.902344 380.5625 116.902344 380.5625 C 116.902344 380.5625 117.355469 380.09375 118.058594 379.367188 C 118.21875 379.394531 118.382813 379.417969 118.554688 379.417969 L 119.1875 379.417969 C 120.832031 379.417969 122.167969 378.082031 122.167969 376.4375 L 122.167969 375.105469 C 123.097656 374.140625 123.996094 373.199219 124.714844 372.4375 L 141.355469 374.105469 Z M 146.246094 372.570313 L 151.007813 373.046875 L 150.964844 372.085938 Z M 110.0625 177.503906 C 110.289063 177.519531 110.515625 177.535156 110.738281 177.535156 C 110.773438 177.535156 110.8125 177.53125 110.847656 177.53125 L 110.238281 192.207031 L 115.59375 192.207031 C 115.722656 192.03125 115.808594 191.925781 115.808594 191.925781 C 115.808594 191.925781 114.652344 192.371094 114.003906 190.417969 C 113.351563 188.464844 114.074219 187.105469 114.074219 187.105469 C 113.28125 184.960938 113.636719 184.367188 114.074219 183.613281 C 115.152344 181.753906 117.226563 178.105469 119.074219 176.359375 C 119.304688 176.140625 119.53125 175.949219 119.753906 175.796875 C 120.410156 175.347656 121.328125 174.949219 122.371094 174.601563 C 122.472656 170.535156 122.660156 166.472656 122.929688 162.417969 C 122.945313 162.296875 122.960938 162.183594 122.976563 162.0625 C 125.039063 146.972656 127.074219 134.316406 128.632813 125.234375 C 128.933594 123.496094 129.210938 121.886719 129.472656 120.417969 C 129.804688 118.554688 130.101563 116.910156 130.359375 115.511719 C 131.039063 111.808594 131.441406 109.792969 131.441406 109.792969 L 130.503906 110.128906 L 124.402344 112.316406 L 124.316406 112.582031 L 124.308594 112.605469 L 122.878906 113.175781 L 120.292969 114.207031 C 120.292969 114.210938 120.292969 114.21875 120.292969 114.222656 C 117.640625 115.28125 115.425781 117.402344 114.351563 120.292969 C 110.132813 131.671875 105.71875 146.574219 103.160156 155.53125 L 82.390625 152.875 L 82.152344 153.25 L 75.398438 163.839844 C 75.386719 164.117188 75.367188 164.390625 75.347656 164.65625 L 71.664063 172.605469 C 71.664063 172.605469 97.457031 176.875 110.011719 177.507813 C 110.027344 177.507813 110.042969 177.503906 110.0625 177.503906 Z M 187.203125 173.65625 C 185.6875 160.546875 181.558594 138.125 178.390625 124.597656 C 177.605469 121.246094 175.453125 118.539063 172.644531 117.109375 L 172.640625 117.035156 L 165.234375 113.464844 L 152.808594 107.398438 C 152.808594 107.398438 150.644531 115.785156 148.871094 123.246094 C 148.414063 125.160156 147.984375 127.015625 147.621094 128.648438 C 147.519531 129.125 147.410156 129.605469 147.296875 130.089844 C 145.914063 136.136719 144.128906 143.011719 143.328125 152.246094 C 143.03125 155.636719 141.816406 168.902344 141.816406 168.902344 L 140.71875 171.132813 L 135.269531 172.070313 C 136.75 171.816406 138.414063 177.597656 139.121094 182.980469 C 139.121094 182.980469 136.757813 186.851563 138.234375 191.894531 L 142.378906 191.273438 L 139.121094 216.800781 L 139.121094 231.171875 C 139.035156 235.597656 144.910156 238.714844 149.335938 238.746094 C 158.925781 238.820313 172.109375 233.855469 172.109375 233.855469 C 178.304688 232.507813 181.558594 231.035156 181.558594 231.035156 L 178.03125 185.933594 L 178.460938 185.867188 L 178.457031 185.859375 C 178.5625 185.84375 178.667969 185.835938 178.773438 185.816406 C 184.457031 184.789063 188.007813 180.621094 187.203125 173.65625 Z M 66.78125 291.75 L 66.78125 266.308594 L 14.0625 266.308594 L 14.0625 292.472656 L 67.5 292.472656 C 67.101563 292.472656 66.78125 292.148438 66.78125 291.75 Z M 105.324219 291.75 L 105.324219 266.308594 L 103.460938 266.308594 L 98.832031 291.453125 C 98.761719 291.847656 98.382813 292.105469 97.992188 292.035156 L 87.460938 290.09375 C 87.070313 290.019531 86.808594 289.644531 86.882813 289.253906 L 91.105469 266.308594 L 86.65625 266.308594 L 86.65625 291.75 C 86.65625 292.148438 86.332031 292.472656 85.933594 292.472656 L 106.042969 292.472656 C 105.644531 292.472656 105.324219 292.148438 105.324219 291.75 Z M 79.445313 291.75 C 79.445313 292.148438 79.125 292.472656 78.726563 292.472656 L 80.167969 292.472656 C 79.769531 292.472656 79.445313 292.148438 79.445313 291.75 Z M 72.957031 292.472656 L 74.402344 292.472656 C 74.003906 292.472656 73.679688 292.148438 73.679688 291.75 C 73.679688 292.148438 73.355469 292.472656 72.957031 292.472656 Z M 117.476563 291.75 C 117.476563 292.148438 117.152344 292.472656 116.753906 292.472656 L 117.476563 292.472656 Z M 48.152344 352.988281 C 48.152344 353.253906 48.003906 353.472656 47.789063 353.597656 L 48.515625 353.597656 C 48.300781 353.472656 48.152344 353.253906 48.152344 352.988281 Z M 39.417969 352.988281 C 39.417969 353.253906 39.269531 353.472656 39.054688 353.597656 L 39.78125 353.597656 C 39.566406 353.472656 39.417969 353.253906 39.417969 352.988281 Z M 24.34375 352.988281 C 24.34375 353.253906 24.195313 353.472656 23.984375 353.597656 L 24.707031 353.597656 C 24.496094 353.472656 24.34375 353.253906 24.34375 352.988281 Z M 83.023438 353.597656 L 83.539063 353.597656 C 83.429688 353.535156 83.34375 353.449219 83.28125 353.339844 C 83.21875 353.449219 83.128906 353.535156 83.023438 353.597656 Z M 117.476563 353.597656 L 117.476563 328.398438 L 109.019531 328.398438 L 111.167969 352.527344 C 111.203125 352.933594 110.898438 353.289063 110.492188 353.3125 L 105.4375 353.597656 Z M 14.0625 352.988281 L 14.0625 353.597656 L 14.425781 353.597656 C 14.210938 353.472656 14.0625 353.253906 14.0625 352.988281 Z M 56.605469 352.988281 C 56.605469 353.253906 56.453125 353.472656 56.242188 353.597656 L 56.964844 353.597656 C 56.753906 353.472656 56.605469 353.253906 56.605469 352.988281 Z M 70.089844 352.632813 L 72.890625 328.398438 L 69.5625 328.398438 L 69.5625 352.988281 C 69.5625 353.253906 69.414063 353.472656 69.203125 353.597656 L 72.992188 353.597656 L 70.753906 353.433594 C 70.347656 353.40625 70.042969 353.039063 70.089844 352.632813 Z M 93.179688 352.988281 C 93.179688 353.253906 93.027344 353.472656 92.816406 353.597656 L 93.539063 353.597656 C 93.328125 353.472656 93.179688 353.253906 93.179688 352.988281 Z M 64.632813 352.988281 C 64.632813 353.253906 64.484375 353.472656 64.273438 353.597656 L 64.996094 353.597656 C 64.785156 353.472656 64.632813 353.253906 64.632813 352.988281 Z M 103.445313 353.011719 L 101.25 328.398438 L 100.925781 328.398438 L 100.925781 352.988281 C 100.925781 353.253906 100.777344 353.472656 100.5625 353.597656 L 103.871094 353.597656 C 103.640625 353.496094 103.46875 353.28125 103.445313 353.011719 Z M 78.03125 352.988281 L 78.03125 328.398438 L 77.417969 328.398438 L 74.574219 353.023438 C 74.542969 353.292969 74.363281 353.503906 74.128906 353.597656 L 78.394531 353.597656 C 78.179688 353.472656 78.03125 353.253906 78.03125 352.988281 Z M 31.53125 352.988281 C 31.53125 353.253906 31.378906 353.472656 31.167969 353.597656 L 31.890625 353.597656 C 31.679688 353.472656 31.53125 353.253906 31.53125 352.988281 Z M 91.667969 231.34375 L 93.113281 231.34375 C 92.714844 231.34375 92.390625 231.019531 92.390625 230.621094 C 92.390625 231.019531 92.066406 231.34375 91.667969 231.34375 Z M 99.558594 231.34375 L 101 231.34375 C 100.601563 231.34375 100.277344 231.019531 100.277344 230.621094 C 100.277344 231.019531 99.957031 231.34375 99.558594 231.34375 Z M 107.464844 230.621094 C 107.464844 231.019531 107.140625 231.34375 106.742188 231.34375 L 108.183594 231.34375 C 107.785156 231.34375 107.464844 231.019531 107.464844 230.621094 Z M 67.175781 230.621094 C 67.175781 231.019531 66.851563 231.34375 66.453125 231.34375 L 67.894531 231.34375 C 67.496094 231.34375 67.175781 231.019531 67.175781 230.621094 Z M 30.882813 230.621094 L 30.882813 204.21875 L 30.71875 204.21875 L 28.363281 230.648438 C 28.328125 231.035156 27.992188 231.324219 27.605469 231.304688 L 21.316406 230.945313 C 20.910156 230.925781 20.601563 230.570313 20.640625 230.164063 L 22.953125 204.21875 L 14.0625 204.21875 L 14.0625 231.34375 L 31.605469 231.34375 C 31.207031 231.34375 30.882813 231.019531 30.882813 230.621094 Z M 38.628906 230.621094 C 38.628906 231.019531 38.308594 231.34375 37.910156 231.34375 L 39.351563 231.34375 C 38.953125 231.34375 38.628906 231.019531 38.628906 230.621094 Z M 83.65625 230.621094 C 83.65625 231.019531 83.332031 231.34375 82.933594 231.34375 L 84.378906 231.34375 C 83.980469 231.34375 83.65625 231.019531 83.65625 230.621094 Z M 62.242188 230.621094 L 62.242188 204.21875 L 58.707031 204.21875 L 61.71875 230.265625 C 61.765625 230.675781 61.460938 231.039063 61.054688 231.070313 L 58.003906 231.292969 C 57.617188 231.320313 57.28125 231.039063 57.234375 230.65625 L 54.179688 204.21875 L 53.777344 204.21875 L 53.777344 230.621094 C 53.777344 231.019531 53.453125 231.34375 53.054688 231.34375 L 62.964844 231.34375 C 62.566406 231.34375 62.242188 231.019531 62.242188 230.621094 Z M 74.484375 231.34375 L 75.925781 231.34375 C 75.527344 231.34375 75.203125 231.019531 75.203125 230.621094 C 75.203125 231.019531 74.882813 231.34375 74.484375 231.34375 Z M 48.527344 230.972656 C 48.402344 231.191406 48.179688 231.34375 47.910156 231.34375 L 49.144531 231.34375 C 48.878906 231.34375 48.652344 231.191406 48.527344 230.972656 Z M 117.476563 231.171875 C 117.351563 231.273438 117.199219 231.34375 117.023438 231.34375 L 117.476563 231.34375 Z M 117.476563 231.171875 "/>
</g>
<path style=" stroke:none;fill-rule:nonzero;fill:rgb(96.859741%,90.979004%,86.268616%);fill-opacity:1;" d="M 127.898438 83.726563 C 127.800781 83.726563 127.703125 83.6875 127.632813 83.613281 C 127.496094 83.464844 127.503906 83.238281 127.652344 83.101563 C 130.207031 80.734375 133.382813 81.757813 133.519531 81.800781 C 133.707031 81.863281 133.808594 82.066406 133.746094 82.257813 C 133.683594 82.445313 133.480469 82.550781 133.292969 82.484375 C 133.175781 82.449219 130.378906 81.558594 128.140625 83.632813 C 128.070313 83.695313 127.984375 83.726563 127.898438 83.726563 Z M 120.636719 84.832031 C 122.40625 83.648438 124.566406 84.328125 124.589844 84.335938 C 124.78125 84.398438 124.984375 84.292969 125.042969 84.105469 C 125.105469 83.914063 125.003906 83.710938 124.8125 83.648438 C 124.710938 83.617188 122.300781 82.847656 120.234375 84.234375 C 120.070313 84.34375 120.023438 84.570313 120.136719 84.734375 C 120.203125 84.839844 120.320313 84.894531 120.433594 84.894531 C 120.503906 84.894531 120.574219 84.875 120.636719 84.832031 Z M 120.636719 84.832031 "/>
<path style=" stroke:none;fill-rule:nonzero;fill:rgb(39.99939%,61.178589%,93.328857%);fill-opacity:1;" d="M 89.929688 353.941406 L 89.207031 353.941406 L 89.207031 331.453125 L 89.929688 331.453125 Z M 60.980469 353.941406 L 60.257813 353.941406 L 60.257813 336.335938 L 60.980469 336.335938 Z M 17.472656 353.660156 L 16.753906 353.660156 L 16.753906 345.699219 L 17.472656 345.699219 Z M 105.84375 353.59375 L 103.800781 333.40625 L 104.515625 333.332031 L 106.5625 353.519531 Z M 28.015625 351.847656 L 27.292969 351.847656 L 27.292969 318.964844 L 28.015625 318.964844 Z M 44.144531 349.679688 L 43.425781 349.679688 L 43.425781 319.71875 L 44.144531 319.71875 Z M 21.101563 348.074219 L 20.382813 348.074219 L 20.382813 323.839844 L 21.101563 323.839844 Z M 107.988281 345.457031 L 105.84375 324.167969 L 106.5625 324.09375 L 108.703125 345.386719 Z M 87 345.421875 L 86.277344 345.421875 L 86.277344 318.832031 L 87 318.832031 Z M 17.472656 342.171875 L 16.753906 342.171875 L 16.753906 314.574219 L 17.472656 314.574219 Z M 60.980469 331.800781 L 60.257813 331.800781 L 60.257813 320.71875 L 60.980469 320.71875 Z M 89.929688 324.679688 L 89.207031 324.679688 L 89.207031 318.964844 L 89.929688 318.964844 Z M 71.640625 292.472656 L 70.917969 292.472656 L 70.917969 264.332031 L 71.640625 264.332031 Z M 96.496094 291.761719 L 95.789063 291.625 L 101.570313 261.820313 L 102.277344 261.957031 Z M 91.132813 290.769531 L 90.425781 290.640625 L 91.449219 284.941406 L 92.15625 285.070313 Z M 82.808594 288.148438 L 82.089844 288.148438 L 82.089844 260.503906 L 82.808594 260.503906 Z M 92.925781 282.214844 L 92.21875 282.074219 L 97.886719 253.636719 L 98.59375 253.777344 Z M 71.640625 261.328125 L 70.917969 261.328125 L 70.917969 256.898438 L 71.640625 256.898438 Z M 114.917969 231.34375 L 114.199219 231.34375 L 114.199219 207.339844 L 114.917969 207.339844 Z M 111.21875 231.34375 L 110.5 231.34375 L 110.5 225.429688 L 111.21875 225.429688 Z M 89.929688 231.34375 L 89.207031 231.34375 L 89.207031 211.777344 L 89.929688 211.777344 Z M 45.652344 231.308594 L 44.929688 231.308594 L 44.929688 207.0625 L 45.652344 207.0625 Z M 71.550781 231.296875 L 70.828125 231.296875 L 70.828125 217.117188 L 71.550781 217.117188 Z M 104.230469 227.105469 L 103.511719 227.105469 L 103.511719 196.597656 L 104.230469 196.597656 Z M 25.21875 224.695313 L 24.5 224.628906 L 26.601563 201.808594 L 27.320313 201.875 Z M 86.71875 221.308594 L 85.996094 221.308594 L 85.996094 197.351563 L 86.71875 197.351563 Z M 111.21875 219.183594 L 110.5 219.183594 L 110.5 192.207031 L 111.21875 192.207031 Z M 71.550781 214.421875 L 70.828125 214.421875 L 70.828125 198.355469 L 71.550781 198.355469 Z M 45.652344 203.335938 L 44.929688 203.335938 L 44.929688 196.597656 L 45.652344 196.597656 Z M 114.917969 199.96875 L 114.199219 199.96875 L 114.199219 192.207031 L 114.917969 192.207031 Z M 114.917969 199.96875 "/>
<path style=" stroke:none;fill-rule:nonzero;fill:rgb(96.859741%,90.979004%,86.268616%);fill-opacity:1;" d="M 115.3125 258.703125 L 107.488281 258.703125 C 107.289063 258.703125 107.125 258.863281 107.125 259.0625 L 107.125 290.304688 C 107.125 290.503906 107.289063 290.667969 107.488281 290.667969 L 115.3125 290.667969 C 115.511719 290.667969 115.671875 290.503906 115.671875 290.304688 L 115.671875 259.0625 C 115.671875 258.863281 115.511719 258.703125 115.3125 258.703125 Z M 114.949219 289.945313 L 107.847656 289.945313 L 107.847656 267.070313 L 114.949219 267.070313 Z M 114.949219 266.347656 L 107.847656 266.347656 L 107.847656 259.425781 L 114.949219 259.425781 Z M 32.691406 229.714844 L 36.820313 229.714844 C 37.019531 229.714844 37.183594 229.550781 37.183594 229.351563 L 37.183594 201.472656 C 37.183594 201.273438 37.019531 201.113281 36.820313 201.113281 L 32.691406 201.113281 C 32.492188 201.113281 32.332031 201.273438 32.332031 201.472656 L 32.332031 229.351563 C 32.332031 229.550781 32.492188 229.714844 32.691406 229.714844 Z M 33.054688 201.835938 L 36.460938 201.835938 L 36.460938 228.992188 L 33.054688 228.992188 Z M 57.359375 324.511719 C 57.359375 324.710938 57.195313 324.871094 56.996094 324.871094 L 47.738281 324.871094 C 47.535156 324.871094 47.375 324.710938 47.375 324.511719 C 47.375 324.3125 47.535156 324.148438 47.738281 324.148438 L 56.996094 324.148438 C 57.195313 324.148438 57.359375 324.3125 57.359375 324.511719 Z M 57.359375 346.300781 C 57.359375 346.5 57.195313 346.664063 56.996094 346.664063 L 47.738281 346.664063 C 47.535156 346.664063 47.375 346.5 47.375 346.300781 C 47.375 346.101563 47.535156 345.941406 47.738281 345.941406 L 56.996094 345.941406 C 57.195313 345.941406 57.359375 346.101563 57.359375 346.300781 Z M 39.992188 322.867188 L 30.847656 322.867188 C 30.648438 322.867188 30.488281 323.027344 30.488281 323.226563 L 30.488281 328.953125 C 30.488281 329.15625 30.648438 329.316406 30.847656 329.316406 L 39.992188 329.316406 C 40.191406 329.316406 40.351563 329.15625 40.351563 328.953125 L 40.351563 323.226563 C 40.351563 323.027344 40.191406 322.867188 39.992188 322.867188 Z M 39.632813 328.59375 L 31.207031 328.59375 L 31.207031 323.589844 L 39.632813 323.589844 Z M 39.992188 341.496094 L 30.847656 341.496094 C 30.648438 341.496094 30.488281 341.65625 30.488281 341.855469 L 30.488281 347.585938 C 30.488281 347.785156 30.648438 347.945313 30.847656 347.945313 L 39.992188 347.945313 C 40.191406 347.945313 40.351563 347.785156 40.351563 347.585938 L 40.351563 341.855469 C 40.351563 341.65625 40.191406 341.496094 39.992188 341.496094 Z M 39.632813 347.222656 L 31.207031 347.222656 L 31.207031 342.21875 L 39.632813 342.21875 Z M 92.429688 329.324219 L 100.960938 329.324219 L 100.960938 331.746094 L 92.429688 331.746094 Z M 92.429688 345.316406 L 100.960938 345.316406 L 100.960938 347.738281 L 92.429688 347.738281 Z M 84.148438 201.546875 L 74.746094 201.546875 C 74.546875 201.546875 74.386719 201.707031 74.386719 201.90625 L 74.386719 205.695313 C 74.386719 205.894531 74.546875 206.058594 74.746094 206.058594 L 84.148438 206.058594 C 84.347656 206.058594 84.507813 205.894531 84.507813 205.695313 L 84.507813 201.90625 C 84.507813 201.707031 84.347656 201.546875 84.148438 201.546875 Z M 83.789063 205.335938 L 75.105469 205.335938 L 75.105469 202.265625 L 83.789063 202.265625 Z M 74.746094 222.765625 L 84.148438 222.765625 L 84.148438 226.558594 L 74.746094 226.558594 Z M 101.464844 200.855469 L 91.203125 200.855469 C 91.003906 200.855469 90.84375 201.015625 90.84375 201.214844 L 90.84375 226.199219 C 90.84375 226.398438 91.003906 226.558594 91.203125 226.558594 L 101.464844 226.558594 C 101.664063 226.558594 101.824219 226.398438 101.824219 226.199219 L 101.824219 201.214844 C 101.824219 201.015625 101.664063 200.855469 101.464844 200.855469 Z M 101.105469 225.835938 L 91.5625 225.835938 L 91.5625 201.578125 L 101.105469 201.578125 Z M 101.105469 225.835938 "/>
<g clip-path="url(#clip5)" clip-rule="nonzero">
<path style=" stroke:none;fill-rule:nonzero;fill:rgb(19.219971%,12.939453%,7.839966%);fill-opacity:1;" d="M 69.195313 163.757813 L 75.347656 164.65625 C 75.019531 169.207031 73.75 172.320313 71.664063 172.605469 C 68.917969 172.484375 68.082031 168.421875 68.441406 163.921875 C 68.699219 163.867188 68.949219 163.8125 69.195313 163.757813 Z M 134.261719 122.167969 C 134.328125 122.167969 134.394531 122.179688 134.460938 122.183594 C 135.203125 122.226563 135.925781 122.484375 136.511719 122.941406 L 137.113281 123.410156 C 137.179688 123.460938 137.257813 123.488281 137.335938 123.488281 C 137.441406 123.488281 137.546875 123.441406 137.621094 123.347656 C 137.742188 123.191406 137.714844 122.964844 137.558594 122.84375 L 136.957031 122.371094 C 136.203125 121.785156 135.269531 121.460938 134.320313 121.449219 C 134.300781 121.449219 134.28125 121.445313 134.261719 121.445313 L 130.425781 121.445313 C 130.417969 121.445313 130.414063 121.445313 130.410156 121.449219 C 130.664063 121.703125 130.925781 121.9375 131.1875 122.167969 Z M 142.503906 122.835938 C 142.34375 122.957031 142.308594 123.179688 142.429688 123.339844 C 142.5 123.4375 142.609375 123.488281 142.71875 123.488281 C 142.792969 123.488281 142.867188 123.464844 142.933594 123.417969 L 143.648438 122.886719 C 144.273438 122.421875 145.046875 122.167969 145.828125 122.167969 L 149.128906 122.167969 C 149.183594 121.925781 149.242188 121.683594 149.300781 121.445313 L 145.828125 121.445313 C 144.894531 121.445313 143.96875 121.75 143.21875 122.304688 Z M 142.367188 191.964844 C 142.367188 191.964844 142.367188 191.96875 142.371094 191.96875 C 142.386719 191.96875 142.40625 191.964844 142.425781 191.964844 L 142.511719 191.949219 C 143.835938 191.808594 154.128906 190.734375 162.875 190.96875 C 166.144531 191.054688 168.539063 191.175781 170.398438 191.273438 C 174.445313 191.480469 175.953125 191.574219 178.425781 190.976563 C 178.4375 190.972656 178.449219 190.972656 178.460938 190.96875 L 178.03125 185.933594 L 178.027344 185.933594 L 175.472656 186.363281 L 169.964844 187.175781 L 155.957031 189.238281 L 142.378906 191.242188 L 142.320313 191.25 C 142.265625 191.257813 142.21875 191.277344 142.175781 191.304688 L 141.355469 191.429688 L 138.113281 212.9375 L 137.910156 214.300781 C 131.070313 213.972656 125.84375 212.988281 122.167969 212 L 122.167969 376.4375 C 122.167969 376.558594 122.144531 376.671875 122.132813 376.785156 C 121.957031 378.265625 120.714844 379.417969 119.1875 379.417969 L 118.554688 379.417969 C 118.382813 379.417969 118.21875 379.394531 118.058594 379.367188 C 116.648438 379.132813 115.574219 377.914063 115.574219 376.4375 L 115.574219 363.484375 C 110.179688 364.9375 106.203125 369.851563 106.203125 375.707031 C 106.203125 378.847656 107.347656 381.714844 109.238281 383.925781 C 110.949219 385.929688 113.269531 387.386719 115.914063 388.023438 L 15.621094 388.023438 C 21.191406 386.6875 25.335938 381.6875 25.335938 375.707031 C 25.335938 369.851563 21.359375 364.9375 15.964844 363.484375 L 15.964844 376.4375 C 15.964844 378.082031 14.628906 379.417969 12.984375 379.417969 L 12.351563 379.417969 C 10.703125 379.417969 9.371094 378.082031 9.371094 376.4375 L 9.371094 363.484375 C 3.976563 364.9375 0 369.851563 0 375.707031 C 0 381.6875 4.144531 386.6875 9.710938 388.023438 L 5.316406 388.023438 C 5.117188 388.023438 4.957031 388.183594 4.957031 388.382813 C 4.957031 388.582031 5.117188 388.742188 5.316406 388.742188 L 175.078125 388.742188 C 175.277344 388.742188 175.4375 388.582031 175.4375 388.382813 C 175.4375 388.183594 175.277344 388.023438 175.078125 388.023438 L 121.824219 388.023438 C 122.832031 387.78125 123.789063 387.425781 124.6875 386.960938 C 125.183594 386.703125 125.65625 386.417969 126.109375 386.097656 C 126.34375 385.9375 126.574219 385.765625 126.796875 385.585938 C 127.183594 385.273438 127.554688 384.941406 127.90625 384.585938 C 130.011719 382.4375 131.347656 379.546875 131.503906 376.339844 L 141 375.890625 L 141.097656 376.417969 C 141.097656 376.417969 141.429688 376.480469 142.027344 376.574219 C 142.171875 376.597656 142.335938 376.621094 142.515625 376.648438 C 142.890625 376.703125 143.339844 376.765625 143.847656 376.832031 C 144.863281 376.960938 146.121094 377.101563 147.550781 377.214844 C 148.671875 377.304688 149.898438 377.378906 151.199219 377.417969 C 154.582031 377.527344 158.460938 377.414063 162.277344 376.796875 C 162.386719 376.777344 162.496094 376.761719 162.605469 376.742188 C 163.238281 376.636719 163.867188 376.515625 164.488281 376.378906 C 166.855469 375.859375 169.148438 375.117188 171.234375 374.078125 C 171.234375 374.078125 171.238281 374.078125 171.242188 374.074219 C 171.769531 373.8125 172.289063 373.539063 172.785156 373.238281 L 157.917969 292.621094 L 172.222656 233.828125 C 166.84375 235.003906 159.222656 236.085938 149.566406 236.015625 C 147.996094 236.003906 146.542969 235.53125 145.316406 234.738281 C 143.085938 233.296875 141.621094 230.773438 141.675781 227.917969 L 141.730469 224.894531 L 141.933594 214.417969 C 141.929688 214.417969 141.929688 214.417969 141.925781 214.417969 L 141.949219 213.3125 L 142.351563 191.964844 C 142.355469 191.964844 142.359375 191.964844 142.363281 191.964844 C 142.363281 191.964844 142.367188 191.964844 142.367188 191.964844 L 142.363281 191.964844 Z M 130.925781 89.3125 C 131.371094 89.230469 131.628906 88.613281 131.507813 87.933594 C 131.382813 87.253906 130.921875 86.769531 130.476563 86.847656 C 130.03125 86.929688 129.769531 87.546875 129.894531 88.226563 C 130.015625 88.90625 130.480469 89.394531 130.925781 89.3125 Z M 131.632813 90.628906 C 131.929688 90.628906 132.132813 90.601563 132.152344 90.597656 C 132.351563 90.566406 132.484375 90.382813 132.457031 90.183594 C 132.425781 89.988281 132.238281 89.855469 132.042969 89.882813 C 132.035156 89.886719 130.917969 90.039063 130.234375 89.53125 C 130.074219 89.414063 129.851563 89.445313 129.730469 89.605469 C 129.609375 89.765625 129.644531 89.992188 129.804688 90.109375 C 130.390625 90.546875 131.140625 90.628906 131.632813 90.628906 Z M 133.738281 97.734375 C 133.542969 97.519531 133.351563 97.3125 133.164063 97.113281 C 132.386719 96.28125 131.648438 95.496094 130.949219 94.160156 C 130.855469 93.984375 130.636719 93.917969 130.460938 94.011719 C 130.285156 94.101563 130.214844 94.320313 130.308594 94.496094 C 131.054688 95.917969 131.859375 96.777344 132.636719 97.605469 C 133.015625 98.007813 133.378906 98.398438 133.738281 98.847656 C 134.054688 99.242188 134.371094 99.679688 134.683594 100.21875 C 134.75 100.332031 134.871094 100.394531 134.996094 100.394531 C 135.058594 100.394531 135.121094 100.378906 135.175781 100.347656 C 135.347656 100.246094 135.40625 100.023438 135.304688 99.851563 C 134.789063 98.96875 134.261719 98.316406 133.738281 97.734375 Z M 117.476563 297.164063 L 116.507813 297.164063 L 117.476563 317.519531 Z M 118.871094 377.820313 C 119.257813 377.820313 119.609375 377.6875 119.894531 377.46875 C 120.042969 377.355469 120.175781 377.222656 120.28125 377.066406 C 120.324219 377.007813 120.355469 376.9375 120.386719 376.871094 C 120.5 376.640625 120.570313 376.390625 120.570313 376.121094 C 120.570313 375.730469 120.433594 375.371094 120.210938 375.085938 C 119.898438 374.683594 119.417969 374.417969 118.871094 374.417969 C 117.933594 374.417969 117.171875 375.179688 117.171875 376.121094 C 117.171875 377.058594 117.933594 377.820313 118.871094 377.820313 Z M 116.753906 256.898438 C 117.152344 256.898438 117.476563 257.222656 117.476563 257.621094 L 117.476563 236.039063 L 113.605469 236.039063 L 114.59375 256.898438 Z M 12.667969 377.820313 C 13.605469 377.820313 14.367188 377.058594 14.367188 376.121094 C 14.367188 375.179688 13.605469 374.417969 12.667969 374.417969 C 11.730469 374.417969 10.96875 375.179688 10.96875 376.121094 C 10.96875 377.058594 11.730469 377.820313 12.667969 377.820313 Z M 25.082031 318.964844 L 24.359375 318.964844 L 24.359375 353.238281 L 14.0625 353.238281 L 14.0625 353.960938 L 117.746094 353.960938 L 117.746094 353.238281 L 117.476563 353.238281 L 117.476563 328.371094 L 116.554688 328.371094 L 116.550781 328.398438 L 114.996094 353.238281 L 103.511719 353.238281 C 103.480469 353.167969 103.453125 353.09375 103.445313 353.011719 L 101.25 328.398438 L 101.25 328.371094 L 100.925781 328.371094 L 100.925781 329.324219 L 100.960938 329.324219 L 100.960938 331.746094 L 100.925781 331.746094 L 100.925781 345.316406 L 100.960938 345.316406 L 100.960938 347.738281 L 100.925781 347.738281 L 100.925781 352.988281 C 100.925781 353.078125 100.90625 353.160156 100.875 353.238281 L 93.910156 353.238281 L 93.910156 321.820313 L 93.1875 321.820313 L 93.1875 353.035156 C 93.1875 353.019531 93.179688 353.003906 93.179688 352.988281 C 93.179688 353.078125 93.15625 353.160156 93.128906 353.238281 L 83.183594 353.238281 L 83.183594 323.355469 L 82.464844 323.355469 L 82.464844 353.238281 L 78.082031 353.238281 C 78.050781 353.160156 78.03125 353.078125 78.03125 352.988281 L 78.03125 328.371094 L 77.421875 328.371094 L 77.417969 328.398438 L 74.574219 353.023438 C 74.5625 353.101563 74.535156 353.171875 74.503906 353.238281 L 70.332031 353.238281 C 70.164063 353.085938 70.0625 352.871094 70.089844 352.632813 L 72.890625 328.398438 L 72.894531 328.371094 L 69.5625 328.371094 L 69.5625 352.988281 C 69.5625 353.078125 69.542969 353.160156 69.511719 353.238281 L 64.683594 353.238281 C 64.65625 353.160156 64.632813 353.078125 64.632813 352.988281 C 64.632813 353.078125 64.613281 353.160156 64.582031 353.238281 L 57.324219 353.238281 L 57.324219 320.71875 L 56.605469 320.71875 L 56.605469 353.238281 L 40.113281 353.238281 L 40.113281 319.71875 L 39.390625 319.71875 L 39.390625 353.238281 L 25.082031 353.238281 Z M 14.0625 231.34375 L 14.0625 231.703125 L 117.746094 231.703125 L 117.746094 231.34375 L 117.765625 204.21875 L 117.765625 195.117188 C 119.390625 193.917969 121.179688 192.246094 121.984375 191.46875 C 122.054688 191.402344 122.113281 191.34375 122.167969 191.292969 C 122.3125 191.152344 122.402344 191.0625 122.421875 191.042969 C 122.5625 190.902344 122.5625 190.675781 122.421875 190.53125 C 122.351563 190.460938 122.257813 190.425781 122.167969 190.425781 C 122.121094 190.425781 122.074219 190.433594 122.03125 190.453125 C 122.023438 190.457031 122.015625 190.464844 122.007813 190.46875 C 121.972656 190.484375 121.941406 190.503906 121.914063 190.53125 C 121.890625 190.554688 119.75 192.675781 117.765625 194.210938 C 117.757813 194.214844 117.753906 194.222656 117.746094 194.226563 C 117.65625 194.296875 117.566406 194.363281 117.476563 194.429688 C 117.382813 194.503906 117.285156 194.574219 117.191406 194.640625 C 117.128906 194.6875 117.09375 194.746094 117.070313 194.816406 L 117.050781 194.992188 C 117.054688 195.011719 117.0625 195.03125 117.070313 195.054688 C 117.058594 195.058594 117.050781 195.066406 117.042969 195.074219 L 117.042969 230.980469 L 107.476563 230.980469 L 107.476563 196.597656 L 106.753906 196.597656 L 106.753906 230.980469 L 62.355469 230.980469 C 62.289063 230.875 62.242188 230.753906 62.242188 230.621094 L 62.242188 204.21875 L 58.707031 204.21875 L 61.71875 230.265625 C 61.75 230.570313 61.59375 230.847656 61.34375 230.980469 L 57.371094 230.980469 C 57.300781 230.886719 57.25 230.78125 57.234375 230.65625 L 54.179688 204.21875 L 53.777344 204.21875 L 53.777344 230.621094 C 53.777344 230.753906 53.730469 230.875 53.667969 230.980469 L 49.171875 230.980469 L 49.355469 204.21875 L 49.375 200.992188 L 49.140625 200.988281 L 48.65625 200.984375 L 48.652344 201.1875 L 48.632813 204.21875 L 48.632813 204.300781 L 48.449219 230.753906 L 48.449219 230.980469 L 38.742188 230.980469 C 38.675781 230.875 38.628906 230.753906 38.628906 230.621094 C 38.628906 230.753906 38.582031 230.875 38.519531 230.980469 L 30.992188 230.980469 C 30.929688 230.875 30.882813 230.753906 30.882813 230.621094 L 30.882813 204.21875 L 30.71875 204.21875 L 28.363281 230.648438 C 28.351563 230.773438 28.300781 230.882813 28.234375 230.980469 L 16.546875 230.980469 L 14.984375 204.21875 L 14.0625 204.21875 Z M 14.0625 292.832031 L 117.746094 292.832031 L 117.746094 292.109375 L 117.445313 292.109375 L 117.425781 291.988281 C 117.410156 292.03125 117.390625 292.070313 117.363281 292.109375 L 105.433594 292.109375 C 105.371094 292.003906 105.324219 291.882813 105.324219 291.75 L 105.324219 266.308594 L 103.460938 266.308594 L 98.832031 291.453125 C 98.761719 291.847656 98.382813 292.105469 97.992188 292.035156 L 96.496094 291.757813 L 96.496094 291.761719 L 96.132813 291.691406 L 90.820313 290.710938 L 90.425781 290.640625 L 87.460938 290.09375 C 87.070313 290.019531 86.808594 289.644531 86.882813 289.253906 L 91.105469 266.308594 L 86.65625 266.308594 L 86.65625 291.75 C 86.65625 291.882813 86.609375 292.003906 86.546875 292.109375 L 79.558594 292.109375 C 79.492188 292.003906 79.445313 291.882813 79.445313 291.75 C 79.445313 291.882813 79.398438 292.003906 79.335938 292.109375 L 16.546875 292.109375 L 14.984375 266.308594 L 14.0625 266.308594 Z M 57.871094 160.222656 C 57.75 160.378906 57.78125 160.605469 57.9375 160.726563 C 58.003906 160.777344 58.082031 160.800781 58.15625 160.800781 C 58.246094 160.800781 58.332031 160.761719 58.402344 160.695313 C 58.414063 160.683594 58.433594 160.675781 58.445313 160.660156 C 59.515625 159.269531 60.8125 157.886719 62.101563 156.632813 C 63.398438 155.367188 64.6875 154.238281 65.738281 153.355469 C 65.945313 153.183594 66.140625 153.019531 66.324219 152.867188 C 66.347656 152.851563 66.367188 152.835938 66.386719 152.816406 C 67.40625 151.984375 68.085938 151.472656 68.105469 151.457031 C 68.136719 151.433594 68.15625 151.402344 68.179688 151.375 C 68.210938 151.328125 68.238281 151.277344 68.246094 151.21875 C 68.257813 151.128906 68.238281 151.03125 68.175781 150.953125 C 68.058594 150.792969 67.832031 150.761719 67.671875 150.878906 C 67.667969 150.882813 67.632813 150.910156 67.578125 150.949219 C 67.53125 150.984375 67.46875 151.035156 67.390625 151.09375 C 67.195313 151.246094 66.902344 151.476563 66.539063 151.765625 C 66.285156 151.96875 65.992188 152.207031 65.671875 152.472656 C 65.488281 152.625 65.292969 152.789063 65.085938 152.960938 C 64.023438 153.859375 62.75 154.992188 61.464844 156.25 C 60.21875 157.46875 58.976563 158.800781 57.929688 160.152344 C 57.910156 160.175781 57.890625 160.199219 57.871094 160.222656 Z M 55.914063 157.214844 C 56.03125 157.214844 56.148438 157.15625 56.21875 157.050781 C 56.226563 157.035156 56.238281 157.019531 56.25 157.003906 C 56.832031 156.121094 57.714844 155.222656 58.550781 154.480469 C 59.105469 153.980469 59.632813 153.554688 60.03125 153.242188 C 60.460938 152.914063 60.746094 152.710938 60.753906 152.703125 C 60.917969 152.589844 60.957031 152.363281 60.84375 152.199219 C 60.757813 152.078125 60.605469 152.023438 60.46875 152.058594 C 60.425781 152.066406 60.378906 152.085938 60.339844 152.113281 C 60.261719 152.167969 59.121094 152.976563 57.902344 154.085938 C 57.070313 154.847656 56.199219 155.75 55.613281 156.65625 C 55.570313 156.71875 55.558594 156.792969 55.5625 156.863281 C 55.566406 156.976563 55.617188 157.089844 55.71875 157.15625 C 55.78125 157.195313 55.847656 157.214844 55.914063 157.214844 Z M 64.773438 158.257813 C 63.386719 159.558594 62.007813 160.980469 61.035156 162.296875 C 61.03125 162.304688 61.023438 162.308594 61.019531 162.3125 C 60.902344 162.472656 60.9375 162.699219 61.097656 162.820313 C 61.160156 162.867188 61.238281 162.890625 61.3125 162.890625 C 61.421875 162.890625 61.53125 162.839844 61.601563 162.742188 C 61.601563 162.742188 61.605469 162.738281 61.605469 162.738281 C 62.578125 161.421875 63.996094 159.96875 65.417969 158.648438 C 65.460938 158.605469 65.507813 158.558594 65.554688 158.515625 C 66.886719 157.285156 68.199219 156.1875 69.140625 155.421875 C 69.359375 155.238281 69.5625 155.078125 69.734375 154.941406 C 70.199219 154.570313 70.492188 154.347656 70.503906 154.335938 C 70.511719 154.332031 70.511719 154.324219 70.519531 154.320313 C 70.660156 154.195313 70.6875 153.984375 70.574219 153.832031 C 70.476563 153.703125 70.316406 153.664063 70.171875 153.710938 C 70.136719 153.722656 70.101563 153.738281 70.066406 153.761719 C 70.007813 153.808594 69.636719 154.09375 69.078125 154.539063 C 68.894531 154.683594 68.699219 154.84375 68.480469 155.023438 C 67.714844 155.648438 66.742188 156.464844 65.722656 157.382813 C 65.40625 157.664063 65.089844 157.957031 64.773438 158.257813 Z M 138.234375 191.894531 C 139.640625 191.683594 139.710938 187.472656 139.121094 182.980469 L 134.042969 183.929688 C 134.851563 188.230469 136.394531 192.023438 138.234375 191.894531 Z M 126.074219 99.292969 C 126.074219 99.492188 126.234375 99.652344 126.433594 99.652344 C 126.539063 99.652344 129.054688 99.636719 132.078125 98.625 C 132.265625 98.5625 132.367188 98.359375 132.304688 98.167969 C 132.242188 97.980469 132.035156 97.878906 131.847656 97.941406 C 128.941406 98.914063 126.457031 98.929688 126.433594 98.929688 C 126.234375 98.929688 126.074219 99.09375 126.074219 99.292969 Z M 110.960938 165.789063 L 110.964844 165.53125 C 110.964844 165.53125 110.558594 169.34375 109.464844 171.703125 C 108.179688 174.46875 107.074219 175.328125 106.144531 176.460938 C 105.960938 176.6875 105.78125 176.925781 105.609375 177.191406 L 110.441406 177.929688 C 110.445313 177.929688 110.449219 177.933594 110.453125 177.933594 C 110.460938 177.933594 110.464844 177.933594 110.46875 177.933594 L 110.828125 177.988281 L 110.832031 177.628906 C 110.832031 177.621094 110.839844 177.609375 110.839844 177.597656 L 110.84375 177.53125 L 110.847656 177.472656 L 110.859375 177.320313 L 111.621094 166.660156 L 111.707031 165.445313 C 111.714844 165.359375 111.6875 165.273438 111.636719 165.203125 C 111.507813 165.03125 111.398438 164.859375 111.28125 164.6875 C 109.726563 162.355469 109.328125 159.699219 109.578125 157.0625 C 110.226563 150.152344 115.273438 143.425781 115.34375 143.328125 C 115.378906 143.28125 115.402344 143.226563 115.414063 143.167969 L 117.140625 132.316406 C 117.15625 132.210938 117.121094 132.113281 117.058594 132.035156 C 117.003906 131.96875 116.929688 131.917969 116.839844 131.90625 C 116.640625 131.871094 116.457031 132.007813 116.425781 132.203125 L 114.714844 142.964844 C 114.109375 143.773438 109.757813 149.789063 108.898438 156.265625 C 108.476563 159.429688 108.886719 162.699219 110.980469 165.527344 Z M 142.601563 170.808594 L 142.769531 170.78125 L 143.328125 170.6875 L 164.757813 167.027344 L 167.773438 166.515625 L 170.375 166.070313 C 170.433594 166.0625 170.484375 166.035156 170.53125 166 C 170.632813 165.921875 170.695313 165.792969 170.671875 165.65625 C 170.636719 165.457031 170.449219 165.328125 170.253906 165.359375 L 167.699219 165.796875 L 164.671875 166.3125 L 161.898438 142.855469 C 161.875 142.65625 161.695313 142.511719 161.5 142.539063 C 161.300781 142.5625 161.160156 142.742188 161.183594 142.941406 L 162.628906 155.183594 L 163.960938 166.433594 L 143.328125 169.953125 L 142.785156 170.046875 L 142.898438 164.210938 L 143.328125 163.488281 L 159.308594 136.703125 L 159.523438 136.347656 C 159.601563 136.214844 159.585938 136.042969 159.484375 135.925781 L 159.085938 135.460938 L 154.246094 129.816406 L 155.125 129.78125 L 158.046875 129.664063 L 158.8125 129.632813 L 160.425781 129.570313 C 160.609375 129.5625 160.761719 129.414063 160.773438 129.230469 L 161.121094 123.824219 L 161.269531 121.542969 L 161.472656 118.367188 L 161.707031 114.714844 L 161.875 112.089844 L 161.890625 111.851563 L 161.894531 111.832031 L 161.902344 111.707031 C 161.914063 111.507813 161.761719 111.335938 161.566406 111.324219 C 161.425781 111.316406 161.296875 111.394531 161.230469 111.511719 C 161.226563 111.515625 161.222656 111.523438 161.21875 111.527344 C 161.199219 111.570313 161.183594 111.613281 161.179688 111.660156 L 161.175781 111.726563 L 160.941406 115.390625 L 160.703125 119.066406 L 160.476563 122.597656 L 160.257813 125.996094 L 160.074219 128.859375 L 159.105469 128.898438 L 157.917969 128.949219 L 153.472656 129.128906 C 153.332031 129.132813 153.210938 129.214844 153.15625 129.34375 C 153.101563 129.46875 153.121094 129.617188 153.210938 129.722656 L 154.253906 130.9375 L 158.769531 136.199219 L 149.667969 151.453125 L 143.328125 162.078125 L 142.933594 162.746094 L 142.914063 162.777344 C 142.894531 158.945313 143.050781 155.449219 143.328125 152.25 L 143.328125 152.234375 C 143.328125 152.234375 141.679688 161.074219 140.71875 171.132813 L 142.589844 170.808594 C 142.59375 170.808594 142.597656 170.808594 142.601563 170.808594 Z M 139.472656 104.589844 L 138.359375 104.800781 L 133.738281 105.671875 L 133.261719 105.761719 L 133.269531 105.789063 L 133.316406 105.945313 C 133.296875 105.984375 133.289063 106.03125 133.289063 106.078125 L 133.289063 112.316406 C 133.289063 112.515625 133.449219 112.679688 133.648438 112.679688 C 133.847656 112.679688 134.007813 112.515625 134.007813 112.316406 L 134.007813 108.273438 C 134.863281 106.902344 138.828125 106.855469 139.472656 104.589844 Z M 130.84375 100.285156 C 130.773438 100.097656 130.5625 100 130.378906 100.070313 C 129.332031 100.460938 127.90625 100.46875 127.890625 100.46875 C 127.691406 100.46875 127.53125 100.628906 127.53125 100.828125 C 127.53125 101.027344 127.691406 101.1875 127.890625 101.1875 C 127.953125 101.1875 129.460938 101.183594 130.628906 100.746094 C 130.816406 100.675781 130.914063 100.46875 130.84375 100.285156 Z M 120.796875 89.066406 C 120.667969 88.542969 120.59375 88.144531 120.574219 88.015625 C 120.554688 87.917969 120.582031 87.820313 120.640625 87.742188 C 120.6875 87.679688 120.753906 87.628906 120.835938 87.609375 C 120.839844 87.605469 120.839844 87.605469 120.84375 87.605469 L 122.351563 87.242188 L 125.230469 86.554688 C 125.328125 86.53125 125.433594 86.550781 125.515625 86.605469 C 125.601563 86.664063 125.65625 86.753906 125.671875 86.851563 C 125.683594 86.929688 125.707031 87.097656 125.734375 87.324219 C 125.820313 87.285156 125.90625 87.246094 126 87.21875 C 126.011719 87.171875 126.019531 87.144531 126.019531 87.140625 C 126.066406 86.949219 126.257813 86.828125 126.453125 86.871094 C 126.605469 86.90625 126.707031 87.03125 126.726563 87.179688 C 126.800781 87.1875 126.875 87.183594 126.949219 87.199219 C 127.0625 87.222656 127.167969 87.265625 127.269531 87.308594 C 127.191406 86.800781 127.179688 86.449219 127.175781 86.410156 C 127.171875 86.234375 127.296875 86.082031 127.464844 86.050781 L 133.207031 84.894531 L 133.738281 84.789063 L 135.382813 84.457031 C 135.394531 84.453125 135.40625 84.457031 135.421875 84.457031 C 135.433594 84.457031 135.441406 84.449219 135.453125 84.449219 L 140.578125 84.449219 C 140.269531 84.652344 139.992188 84.898438 139.753906 85.171875 L 135.902344 85.171875 C 135.980469 85.570313 136.074219 86.191406 136.101563 86.90625 C 136.140625 88.089844 135.976563 89.519531 135.1875 90.566406 C 134.8125 91.066406 134.324219 91.433594 133.738281 91.671875 C 133.253906 91.867188 132.703125 91.976563 132.082031 91.992188 C 132.035156 91.992188 131.988281 91.992188 131.945313 91.992188 C 130.746094 91.992188 129.738281 91.613281 128.945313 90.855469 C 128.230469 90.171875 127.804688 89.292969 127.550781 88.492188 C 127.441406 88.199219 127.167969 87.984375 126.796875 87.90625 C 126.726563 87.890625 126.65625 87.886719 126.585938 87.882813 C 126.402344 88.660156 126.0625 90.105469 125.730469 91.496094 C 125.683594 91.6875 125.636719 91.882813 125.589844 92.070313 C 125.578125 92.117188 125.570313 92.160156 125.558594 92.203125 C 125.34375 93.101563 125.144531 93.914063 125.011719 94.425781 C 124.898438 94.867188 124.945313 95.238281 125.140625 95.5 C 125.316406 95.738281 125.617188 95.875 125.988281 95.890625 C 126.625 95.90625 128.304688 95.695313 128.320313 95.691406 C 128.511719 95.667969 128.699219 95.804688 128.722656 96.003906 C 128.75 96.203125 128.609375 96.382813 128.414063 96.410156 C 128.347656 96.417969 126.933594 96.597656 126.160156 96.609375 C 126.199219 97.46875 126.113281 98.171875 126.019531 98.847656 C 125.898438 99.710938 125.785156 100.53125 125.9375 101.703125 C 125.960938 101.902344 125.820313 102.082031 125.625 102.105469 C 125.609375 102.109375 125.59375 102.109375 125.578125 102.109375 C 125.398438 102.109375 125.246094 101.976563 125.222656 101.792969 C 125.058594 100.527344 125.183594 99.621094 125.304688 98.746094 C 125.402344 98.042969 125.488281 97.367188 125.433594 96.515625 C 125.078125 96.410156 124.773438 96.21875 124.5625 95.933594 C 124.234375 95.496094 124.148438 94.898438 124.316406 94.246094 C 124.367188 94.035156 124.433594 93.769531 124.507813 93.46875 C 124.355469 93.53125 124.179688 93.570313 123.96875 93.570313 C 123.796875 93.570313 123.59375 93.53125 123.378906 93.464844 C 123.3125 93.441406 123.25 93.429688 123.179688 93.402344 C 121.90625 92.886719 121.144531 90.496094 120.796875 89.066406 Z M 127.917969 86.695313 C 127.945313 87.027344 128.027344 87.601563 128.21875 88.226563 C 128.222656 88.238281 128.230469 88.246094 128.234375 88.257813 C 128.238281 88.269531 128.238281 88.28125 128.242188 88.292969 C 128.6875 89.695313 129.71875 91.34375 132.066406 91.269531 C 132.722656 91.253906 133.273438 91.109375 133.738281 90.859375 C 134.078125 90.675781 134.378906 90.441406 134.609375 90.132813 C 135.375 89.117188 135.4375 87.609375 135.34375 86.472656 C 135.300781 85.960938 135.234375 85.515625 135.175781 85.234375 L 133.917969 85.488281 L 133.738281 85.523438 Z M 121.457031 88.722656 C 121.558594 89.15625 121.6875 89.617188 121.835938 90.070313 C 122.199219 91.171875 122.6875 92.210938 123.238281 92.609375 C 123.308594 92.660156 123.378906 92.703125 123.449219 92.734375 C 124.0625 92.980469 124.324219 92.769531 124.410156 92.703125 C 124.605469 92.546875 124.753906 92.28125 124.863281 91.941406 C 124.886719 91.875 124.910156 91.800781 124.929688 91.726563 C 124.84375 91.773438 124.761719 91.816406 124.683594 91.855469 C 124.28125 92.035156 123.957031 92.089844 123.929688 92.09375 C 123.910156 92.097656 123.894531 92.097656 123.875 92.097656 C 123.699219 92.097656 123.546875 91.972656 123.519531 91.792969 C 123.492188 91.617188 123.601563 91.457031 123.765625 91.402344 C 123.785156 91.394531 123.800781 91.382813 123.820313 91.378906 C 123.824219 91.378906 124 91.347656 124.230469 91.257813 C 124.363281 91.210938 124.507813 91.140625 124.65625 91.046875 C 124.816406 90.949219 124.96875 90.820313 125.101563 90.660156 C 125.113281 90.539063 125.121094 90.417969 125.128906 90.292969 C 125.023438 90.507813 124.859375 90.660156 124.660156 90.695313 C 124.214844 90.777344 123.75 90.292969 123.628906 89.609375 C 123.503906 88.929688 123.765625 88.3125 124.210938 88.234375 C 124.574219 88.167969 124.945313 88.480469 125.140625 88.972656 C 125.128906 88.667969 125.109375 88.367188 125.085938 88.078125 C 125.082031 88.015625 125.074219 87.957031 125.070313 87.898438 C 125.054688 87.710938 125.035156 87.523438 125.011719 87.351563 L 122.46875 87.957031 L 121.347656 88.226563 C 121.363281 88.308594 121.382813 88.398438 121.402344 88.484375 C 121.417969 88.5625 121.4375 88.640625 121.457031 88.722656 Z M 142.675781 86.960938 C 142.925781 86.917969 143.175781 86.96875 143.386719 87.113281 C 143.597656 87.261719 143.738281 87.476563 143.78125 87.726563 C 143.828125 87.980469 143.773438 88.230469 143.628906 88.441406 C 143.484375 88.652344 143.265625 88.792969 143.015625 88.835938 C 142.945313 88.847656 142.890625 88.882813 142.84375 88.925781 C 142.753906 89.007813 142.699219 89.128906 142.722656 89.257813 C 142.730469 89.285156 142.742188 89.3125 142.753906 89.339844 C 142.8125 89.46875 142.9375 89.550781 143.078125 89.550781 C 143.101563 89.550781 143.121094 89.550781 143.144531 89.546875 C 143.511719 89.480469 143.835938 89.292969 144.082031 89.019531 C 144.128906 88.964844 144.179688 88.914063 144.222656 88.851563 C 144.46875 88.496094 144.5625 88.066406 144.496094 87.640625 C 144.492188 87.625 144.492188 87.613281 144.492188 87.597656 C 144.410156 87.160156 144.164063 86.777344 143.796875 86.519531 C 143.429688 86.265625 142.984375 86.167969 142.542969 86.25 C 142.347656 86.285156 142.21875 86.472656 142.253906 86.671875 C 142.289063 86.867188 142.480469 87 142.675781 86.960938 Z M 118.675781 181.027344 C 118.804688 180.875 118.78125 180.648438 118.628906 180.519531 C 118.625 180.519531 118.625 180.519531 118.621094 180.519531 C 118.46875 180.394531 118.246094 180.417969 118.121094 180.570313 C 115.503906 183.746094 114.238281 185.636719 113.8125 186.304688 C 113.707031 186.472656 113.652344 186.5625 113.640625 186.582031 C 113.539063 186.753906 113.597656 186.972656 113.769531 187.074219 C 113.828125 187.109375 113.890625 187.125 113.953125 187.125 C 113.992188 187.125 114.03125 187.105469 114.070313 187.09375 C 114.148438 187.066406 114.21875 187.023438 114.261719 186.945313 C 114.277344 186.925781 115.429688 184.984375 118.550781 181.183594 C 118.59375 181.128906 118.632813 181.082031 118.675781 181.027344 Z M 115.144531 192.253906 C 115.203125 192.296875 115.273438 192.316406 115.34375 192.316406 C 115.433594 192.316406 115.515625 192.273438 115.582031 192.207031 C 115.59375 192.199219 115.605469 192.191406 115.613281 192.179688 C 115.625 192.167969 115.636719 192.164063 115.644531 192.152344 C 115.644531 192.148438 115.671875 192.105469 115.71875 192.039063 C 115.738281 192.007813 115.761719 191.972656 115.789063 191.929688 C 116.050781 191.539063 116.648438 190.640625 117.476563 189.417969 C 117.546875 189.316406 117.617188 189.210938 117.691406 189.101563 C 118.347656 188.132813 119.128906 186.988281 119.984375 185.753906 C 120.015625 185.710938 120.035156 185.664063 120.042969 185.617188 C 120.070313 185.480469 120.015625 185.335938 119.894531 185.253906 C 119.730469 185.136719 119.507813 185.179688 119.394531 185.34375 C 119.308594 185.464844 119.226563 185.585938 119.140625 185.707031 C 118.6875 186.363281 118.257813 186.992188 117.855469 187.578125 C 117.726563 187.765625 117.597656 187.953125 117.476563 188.132813 C 116.019531 190.273438 115.054688 191.734375 115.042969 191.753906 C 115.023438 191.78125 115.015625 191.8125 115.007813 191.84375 C 114.964844 191.972656 114.996094 192.113281 115.097656 192.207031 C 115.113281 192.222656 115.125 192.242188 115.144531 192.253906 Z M 122.554688 162.585938 C 122.574219 162.703125 122.652344 162.796875 122.753906 162.847656 C 122.796875 162.867188 122.84375 162.882813 122.894531 162.886719 C 122.898438 162.886719 122.90625 162.890625 122.910156 162.890625 C 122.929688 162.890625 122.949219 162.886719 122.96875 162.882813 C 123.164063 162.851563 123.300781 162.667969 123.269531 162.472656 L 123.125 161.550781 L 123.082031 161.292969 L 123.03125 160.980469 L 121.675781 152.410156 L 118.832031 134.429688 L 123.675781 128.601563 C 123.765625 128.492188 123.78125 128.34375 123.722656 128.214844 C 123.664063 128.089844 123.535156 128.007813 123.398438 128.007813 L 119.703125 128.007813 L 123.480469 116.335938 L 124.40625 113.480469 L 124.742188 112.429688 L 124.746094 112.429688 C 124.746094 112.421875 124.746094 112.417969 124.746094 112.410156 C 124.765625 112.339844 124.757813 112.265625 124.734375 112.199219 C 124.699219 112.097656 124.625 112.011719 124.511719 111.972656 C 124.320313 111.914063 124.121094 112.015625 124.058594 112.207031 L 123.882813 112.753906 L 123.875 112.777344 L 123.644531 113.480469 L 123.15625 114.992188 L 118.867188 128.257813 C 118.828125 128.367188 118.847656 128.488281 118.917969 128.582031 C 118.984375 128.675781 119.09375 128.730469 119.207031 128.730469 L 122.628906 128.730469 L 118.171875 134.09375 C 118.105469 134.175781 118.074219 134.28125 118.09375 134.382813 L 121.378906 155.148438 Z M 140.109375 165.601563 C 140.273438 165.601563 140.421875 165.492188 140.460938 165.324219 C 140.507813 165.132813 140.386719 164.9375 140.191406 164.890625 C 134.125 163.464844 130.960938 163.21875 125.476563 163.753906 C 125.28125 163.773438 125.136719 163.949219 125.15625 164.148438 C 125.175781 164.347656 125.355469 164.492188 125.546875 164.472656 C 130.9375 163.945313 134.050781 164.1875 140.027344 165.59375 C 140.054688 165.601563 140.082031 165.601563 140.109375 165.601563 Z M 68.800781 160.28125 C 68.789063 160.273438 68.777344 160.273438 68.765625 160.269531 C 68.742188 160.257813 68.722656 160.25 68.699219 160.246094 C 68.675781 160.238281 68.652344 160.234375 68.628906 160.234375 C 68.609375 160.234375 68.585938 160.234375 68.5625 160.238281 C 68.539063 160.242188 68.515625 160.246094 68.496094 160.253906 C 68.488281 160.257813 68.484375 160.257813 68.480469 160.257813 C 68.464844 160.265625 68.449219 160.273438 68.4375 160.28125 C 68.414063 160.292969 68.394531 160.308594 68.375 160.328125 C 68.367188 160.335938 68.355469 160.339844 68.347656 160.347656 L 68.300781 160.398438 L 66.769531 162.105469 C 66.636719 162.253906 66.648438 162.484375 66.796875 162.617188 C 66.867188 162.679688 66.953125 162.707031 67.039063 162.707031 C 67.136719 162.707031 67.234375 162.667969 67.308594 162.589844 L 68.683594 161.054688 L 68.8125 161.132813 L 72.019531 163.078125 L 74.207031 164.410156 C 74.382813 164.515625 74.574219 164.5625 74.765625 164.5625 C 74.980469 164.5625 75.1875 164.492188 75.367188 164.375 C 75.488281 164.292969 75.597656 164.195313 75.683594 164.066406 L 77.726563 160.859375 L 82.542969 153.308594 L 82.695313 153.070313 C 82.722656 153.023438 82.738281 152.972656 82.746094 152.921875 C 82.761719 152.789063 82.707031 152.648438 82.585938 152.574219 C 82.585938 152.574219 82.582031 152.574219 82.582031 152.574219 C 82.414063 152.464844 82.195313 152.515625 82.085938 152.683594 L 81.996094 152.828125 L 81.761719 153.191406 L 77.710938 159.542969 L 75.421875 163.128906 L 75.074219 163.675781 C 74.96875 163.84375 74.75 163.894531 74.582031 163.792969 L 68.960938 160.378906 Z M 103.152344 155.5625 C 103.171875 155.566406 103.1875 155.578125 103.207031 155.578125 L 107.359375 156.085938 C 107.375 156.085938 107.390625 156.085938 107.40625 156.085938 C 107.417969 156.085938 107.429688 156.082031 107.445313 156.078125 C 107.605469 156.0625 107.742188 155.9375 107.761719 155.769531 C 107.785156 155.570313 107.644531 155.390625 107.449219 155.367188 L 103.351563 154.871094 L 103.292969 154.863281 C 103.09375 154.839844 102.914063 154.980469 102.890625 155.179688 C 102.875 155.316406 102.941406 155.445313 103.050781 155.519531 C 103.082031 155.539063 103.113281 155.550781 103.152344 155.5625 Z M 103.152344 155.5625 "/>
</g>
<path style=" stroke:none;fill-rule:nonzero;fill:rgb(75.689697%,59.609985%,48.629761%);fill-opacity:1;" d="M 140.628906 376.070313 C 140.464844 376.070313 140.316406 375.953125 140.277344 375.785156 C 140.15625 375.222656 127.863281 319.160156 124.800781 299.128906 C 123.980469 293.78125 123.792969 291.109375 124.074219 288.917969 C 125.714844 276.164063 131.386719 236.050781 131.441406 235.644531 C 131.472656 235.449219 131.652344 235.3125 131.851563 235.339844 C 132.046875 235.367188 132.1875 235.550781 132.15625 235.746094 C 132.101563 236.148438 126.429688 276.261719 124.789063 289.011719 C 124.515625 291.125 124.707031 293.746094 125.511719 299.019531 C 128.574219 319.027344 140.859375 375.066406 140.984375 375.628906 C 141.027344 375.824219 140.902344 376.019531 140.707031 376.0625 C 140.683594 376.066406 140.65625 376.070313 140.628906 376.070313 Z M 140.628906 376.070313 "/>
<path style=" stroke:none;fill-rule:nonzero;fill:rgb(75.689697%,59.609985%,48.629761%);fill-opacity:0.2;" d="M 126.847656 375.707031 C 126.847656 380.109375 123.269531 383.691406 118.871094 383.691406 C 114.472656 383.691406 110.890625 380.109375 110.890625 375.707031 C 110.890625 372.484375 112.816406 369.707031 115.574219 368.445313 L 115.574219 369.246094 C 113.226563 370.453125 111.613281 372.894531 111.613281 375.707031 C 111.613281 379.710938 114.867188 382.96875 118.871094 382.96875 C 122.871094 382.96875 126.128906 379.710938 126.128906 375.707031 C 126.128906 372.890625 124.515625 370.453125 122.167969 369.246094 L 122.167969 368.445313 C 124.925781 369.707031 126.847656 372.484375 126.847656 375.707031 Z M 15.964844 368.445313 L 15.964844 369.246094 C 18.3125 370.453125 19.925781 372.894531 19.925781 375.707031 C 19.925781 379.710938 16.667969 382.96875 12.667969 382.96875 C 8.664063 382.96875 5.410156 379.710938 5.410156 375.707031 C 5.410156 372.890625 7.023438 370.453125 9.371094 369.246094 L 9.371094 368.445313 C 6.613281 369.707031 4.6875 372.484375 4.6875 375.707031 C 4.6875 380.109375 8.265625 383.691406 12.667969 383.691406 C 17.066406 383.691406 20.644531 380.109375 20.644531 375.707031 C 20.644531 372.484375 18.722656 369.707031 15.964844 368.445313 Z M 15.964844 368.445313 "/>
</g>
</svg>
