<?xml version="1.0" encoding="UTF-8" standalone="no"?>
<!-- Created with Inkscape (http://www.inkscape.org/) -->

<svg
   version="1.1"
   id="svg2"
   xml:space="preserve"
   width="3120"
   height="2080"
   viewBox="0 0 3120 2080"
   sodipodi:docname="Online Book Library illustration.ai"
   xmlns:inkscape="http://www.inkscape.org/namespaces/inkscape"
   xmlns:sodipodi="http://sodipodi.sourceforge.net/DTD/sodipodi-0.dtd"
   xmlns="http://www.w3.org/2000/svg"
   xmlns:svg="http://www.w3.org/2000/svg"><defs
     id="defs6"><clipPath
       clipPathUnits="userSpaceOnUse"
       id="clipPath18"><path
         d="M 0,1560 H 2340 V 0 H 0 Z"
         id="path16" /></clipPath></defs><sodipodi:namedview
     id="namedview4"
     pagecolor="#ffffff"
     bordercolor="#666666"
     borderopacity="1.0"
     inkscape:pageshadow="2"
     inkscape:pageopacity="0.0"
     inkscape:pagecheckerboard="0" /><g
     id="g8"
     inkscape:groupmode="layer"
     inkscape:label="Online Book Library illustration"
     transform="matrix(1.3333333,0,0,-1.3333333,0,2080)"><path
       d="M 0,0 H 2340 V 1560 H 0 Z"
       style="fill:#ffffff;fill-opacity:1;fill-rule:nonzero;stroke:none"
       id="path10" /><g
       id="g12"><g
         id="g14"
         clip-path="url(#clipPath18)"><g
           id="g20"
           transform="translate(1662.8125,577.2666)"><path
             d="m 0,0 c -3.463,38.345 -28.272,77.036 -65.78,85.722 -56.689,13.128 -104.265,-42.938 -131.062,-94.588 -9.191,-17.718 -17.777,-35.748 -25.747,-54.048 18.208,84.098 24.644,170.75 18.719,256.595 -2.285,33.12 -6.609,66.91 -21.641,96.512 -15.031,29.602 -42.664,54.616 -75.639,58.463 -26.081,3.042 -52.274,-7.371 -73.435,-22.918 -48.978,-35.985 -73.905,-97.586 -79.184,-158.134 -5.278,-60.547 6.644,-121.128 18.506,-180.737 3.142,-15.789 6.284,-31.577 9.426,-47.364 -4.422,11.024 -9.259,21.885 -14.549,32.521 -12.277,24.681 -29.757,50.413 -56.708,56.203 -27.538,5.915 -56.151,-12.735 -68.641,-37.98 -12.49,-25.246 -11.604,-55.184 -5.53,-82.686 18.234,-82.564 79.529,-150.252 137.057,-212.217 h 273.386 c 55.245,56.376 100.867,122.157 134.308,193.655 C -10.203,-76.127 3.463,-38.344 0,0"
             style="fill:#ddeae8;fill-opacity:1;fill-rule:nonzero;stroke:none"
             id="path22" /></g><g
           id="g24"
           transform="translate(756.1001,273.0234)"><path
             d="m 0,0 c -4.808,124.13 -29.349,264.407 -72.42,380.925 -8.437,22.823 -18.065,46.125 -35.622,62.972 -17.558,16.848 -45.138,25.592 -66.859,14.625 -32.152,-16.231 -33.171,-62.386 -21.34,-96.404 12.875,-37.019 34.994,-69.962 54.805,-103.78 8.414,-14.361 16.414,-28.941 24.108,-43.678 -10.017,14.899 -21.498,28.643 -35.193,40.465 -17.62,15.209 -42.435,27.031 -63.698,17.561 -18.8,-8.374 -27.71,-31.302 -25.569,-51.771 2.141,-20.469 13.053,-38.897 24.685,-55.875 C -170.334,96.777 -107.301,39.738 -34.72,0 Z"
             style="fill:#ddeae8;fill-opacity:1;fill-rule:nonzero;stroke:none"
             id="path26" /></g><g
           id="g28"
           transform="translate(1766.2393,272.6104)"><path
             d="M 0,0 H -1.334 V 382.385 H -185.8 V 0 h -1.333 v 383.052 c 0,0.367 0.299,0.666 0.666,0.666 h 185.8 C -0.3,383.718 0,383.419 0,383.052 Z"
             style="fill:#000000;fill-opacity:1;fill-rule:nonzero;stroke:none"
             id="path30" /></g><g
           id="g32"
           transform="translate(1578.3877,272.6104)"><path
             d="M 0,0 H -1.334 V 485.084 H -137.073 V 0 h -1.333 v 485.75 c 0,0.367 0.3,0.667 0.667,0.667 H -0.667 c 0.367,0 0.667,-0.3 0.667,-0.667 z"
             style="fill:#000000;fill-opacity:1;fill-rule:nonzero;stroke:none"
             id="path34" /></g><path
           d="m 1810,933.085 h -428.661 v 21.32 H 1810 Z"
           style="fill:#dc6e36;fill-opacity:1;fill-rule:nonzero;stroke:none"
           id="path36" /><path
           d="m 1810,1168.051 h -428.661 v 4.83 H 1810 Z"
           style="fill:#dc6e36;fill-opacity:1;fill-rule:nonzero;stroke:none"
           id="path38" /><path
           d="m 1810,1111.939 h -428.661 v 4.83 H 1810 Z"
           style="fill:#dc6e36;fill-opacity:1;fill-rule:nonzero;stroke:none"
           id="path40" /><g
           id="g42"
           transform="translate(1209.7168,272.6104)"><path
             d="m 0,0 h -493.885 c -14.107,0 -25.542,11.436 -25.542,25.543 v 900.362 c 0,14.107 11.435,25.543 25.542,25.543 H 0 c 14.107,0 25.543,-11.436 25.543,-25.543 V 25.543 C 25.543,11.436 14.107,0 0,0"
             style="fill:#39302a;fill-opacity:1;fill-rule:nonzero;stroke:none"
             id="path44" /></g><g
           id="g46"
           transform="translate(1204.418,290.1875)"><path
             d="m 0,0 h -484.62 c -8.178,0 -14.808,6.63 -14.808,14.809 V 901.93 c 0,8.178 6.63,14.808 14.808,14.808 H 0 c 8.178,0 14.808,-6.63 14.808,-14.808 V 14.809 C 14.808,6.63 8.178,0 0,0"
             style="fill:#f3f1f0;fill-opacity:1;fill-rule:nonzero;stroke:none"
             id="path48" /></g><g
           id="g50"
           transform="translate(1063.9126,1179.9395)"><path
             d="m 0,0 h -202.276 c -15.87,0 -28.734,12.865 -28.734,28.734 v 0.946 c 0,0.627 0.508,1.135 1.135,1.135 H 27.599 c 0.627,0 1.135,-0.508 1.135,-1.135 V 28.734 C 28.734,12.865 15.869,0 0,0"
             style="fill:#39302a;fill-opacity:1;fill-rule:nonzero;stroke:none"
             id="path52" /></g><g
           id="g54"
           transform="translate(866.3071,1200.3472)"><path
             d="m 0,0 c 0,-2.227 -1.806,-4.033 -4.033,-4.033 -2.227,0 -4.033,1.806 -4.033,4.033 0,2.228 1.806,4.033 4.033,4.033 C -1.806,4.033 0,2.228 0,0"
             style="fill:#ffffff;fill-opacity:1;fill-rule:nonzero;stroke:none"
             id="path56" /></g><path
           d="M 1196.32,921.805 H 729.229 v 1.333 h 467.091 z"
           style="fill:#000000;fill-opacity:1;fill-rule:nonzero;stroke:none"
           id="path58" /><path
           d="M 1196.32,397.22 H 729.229 v 1.333 h 467.091 z"
           style="fill:#000000;fill-opacity:1;fill-rule:nonzero;stroke:none"
           id="path60" /><path
           d="m 1176.779,363.874 h -428.01 v 4.943 h 428.01 z"
           style="fill:#d1d8dc;fill-opacity:1;fill-rule:nonzero;stroke:none"
           id="path62" /><path
           d="m 1176.779,657.707 h -428.01 v -73.694 h 428.01 z"
           style="fill:#d1d8dc;fill-opacity:1;fill-rule:nonzero;stroke:none"
           id="path64" /><path
           d="M 843.101,557.585 H 748.77 v -73.693 h 94.331 z"
           style="fill:#d1d8dc;fill-opacity:1;fill-rule:nonzero;stroke:none"
           id="path66" /><path
           d="m 952.014,557.585 h -94.331 v -73.693 h 94.331 z"
           style="fill:#d1d8dc;fill-opacity:1;fill-rule:nonzero;stroke:none"
           id="path68" /><path
           d="m 1064.396,557.585 h -94.331 v -73.693 h 94.331 z"
           style="fill:#d1d8dc;fill-opacity:1;fill-rule:nonzero;stroke:none"
           id="path70" /><path
           d="m 1176.779,557.585 h -94.331 v -73.693 h 94.331 z"
           style="fill:#d1d8dc;fill-opacity:1;fill-rule:nonzero;stroke:none"
           id="path72" /><path
           d="M 1176.779,789.755 H 958.202 v 4.944 h 218.577 z"
           style="fill:#d1d8dc;fill-opacity:1;fill-rule:nonzero;stroke:none"
           id="path74" /><path
           d="M 1176.779,755.89 H 958.202 v 4.944 h 218.577 z"
           style="fill:#d1d8dc;fill-opacity:1;fill-rule:nonzero;stroke:none"
           id="path76" /><path
           d="M 1176.779,722.024 H 958.202 v 4.944 h 218.577 z"
           style="fill:#d1d8dc;fill-opacity:1;fill-rule:nonzero;stroke:none"
           id="path78" /><path
           d="M 1082.617,847.651 H 958.202 v 4.944 h 124.415 z"
           style="fill:#d1d8dc;fill-opacity:1;fill-rule:nonzero;stroke:none"
           id="path80" /><path
           d="M 922.199,876.942 H 748.77 V 698.826 h 173.429 z"
           style="fill:#d1d8dc;fill-opacity:1;fill-rule:nonzero;stroke:none"
           id="path82" /><path
           d="m 1176.779,337.707 h -428.01 v 4.944 h 428.01 z"
           style="fill:#d1d8dc;fill-opacity:1;fill-rule:nonzero;stroke:none"
           id="path84" /><g
           id="g86"
           transform="translate(1307.7637,899.2476)"><path
             d="M 0,0 C 0,0 -92.542,-149.017 -92.79,-244.538 -93,-325.976 40.157,-581.351 40.157,-581.351 h 34.431 c 0,0 -67.471,305.199 -97.97,326.929 0,0 121.48,144.697 160.625,235.649 z"
             style="fill:#00bd92;fill-opacity:1;fill-rule:nonzero;stroke:none"
             id="path88" /></g><g
           id="g90"
           transform="translate(1475.1621,896.2505)"><path
             d="m 0,0 c -5.503,-50.348 -82.193,-251.213 -82.193,-251.213 20.797,-88.417 -84.381,-327.141 -84.381,-327.141 h -33.156 c 0,0 26.506,204.083 42.322,327.614 13.599,133.791 18.606,259.131 18.606,259.131 z"
             style="fill:#00c89c;fill-opacity:1;fill-rule:nonzero;stroke:none"
             id="path92" /></g><g
           id="g94"
           transform="translate(1279.6689,317.8965)"><path
             d="m 0,0 -14.005,-23.901 c 0,0 -35.256,-13.109 -35.737,-21.385 h 65.709 c 0,0 4.502,1.047 4.984,6.03 C 21.433,-34.272 26.306,0 26.306,0 Z"
             style="fill:#39302a;fill-opacity:1;fill-rule:nonzero;stroke:none"
             id="path96" /></g><g
           id="g98"
           transform="translate(1483.4639,991.6953)"><path
             d="m 0,0 c 0.326,55.262 6.255,155.366 -30.962,174.183 -37.346,18.88 -72.74,7.139 -72.74,7.139 0,0 -25.041,-2.936 -37.886,-29.914 -11.543,-24.232 -36.743,-121.145 -39.354,-178.642 -1.079,-23.762 -1.457,-55.917 6.252,-66.876 0,0 10.45,-19.69 83.449,-20.247 73,-0.557 76.852,12.19 82.982,18.912 C -2.408,-85.937 -0.346,-58.65 0,0"
             style="fill:#f9b300;fill-opacity:1;fill-rule:nonzero;stroke:none"
             id="path100" /></g><path
           d="M 1254.023,271.943 H 602 v 1.334 h 652.023 z"
           style="fill:#000000;fill-opacity:1;fill-rule:nonzero;stroke:none"
           id="path102" /><path
           d="m 785.571,1075.36 h -32.48 v 32.48 h 32.48 z"
           style="fill:#3c45b3;fill-opacity:1;fill-rule:nonzero;stroke:none"
           id="path104" /><path
           d="m 819.025,938.914 h -23.034 v 168.926 h 23.034 z"
           style="fill:#d1d8dc;fill-opacity:1;fill-rule:nonzero;stroke:none"
           id="path106" /><path
           d="m 941.312,968 h -23.034 v 139.84 h 23.034 z"
           style="fill:#d1d8dc;fill-opacity:1;fill-rule:nonzero;stroke:none"
           id="path108" /><path
           d="m 941.312,933.021 h -23.034 v 24.319 h 23.034 z"
           style="fill:#d1d8dc;fill-opacity:1;fill-rule:nonzero;stroke:none"
           id="path110" /><path
           d="m 785.571,1064.042 h -32.48 v 4.519 h 32.48 z"
           style="fill:#3c45b3;fill-opacity:1;fill-rule:nonzero;stroke:none"
           id="path112" /><path
           d="m 1100.424,1095.341 h -32.48 v 4.519 h 32.48 z"
           style="fill:#d1d8dc;fill-opacity:1;fill-rule:nonzero;stroke:none"
           id="path114" /><path
           d="m 1100.424,1055.026 h -32.48 v 4.519 h 32.48 z"
           style="fill:#d1d8dc;fill-opacity:1;fill-rule:nonzero;stroke:none"
           id="path116" /><path
           d="m 1100.424,1014.711 h -32.48 v 4.519 h 32.48 z"
           style="fill:#d1d8dc;fill-opacity:1;fill-rule:nonzero;stroke:none"
           id="path118" /><path
           d="m 1100.424,974.396 h -32.48 v 4.519 h 32.48 z"
           style="fill:#d1d8dc;fill-opacity:1;fill-rule:nonzero;stroke:none"
           id="path120" /><path
           d="m 1100.424,934.08 h -32.48 v 4.519 h 32.48 z"
           style="fill:#d1d8dc;fill-opacity:1;fill-rule:nonzero;stroke:none"
           id="path122" /><path
           d="m 980.866,1103.322 h -26.584 v 4.519 h 26.584 z"
           style="fill:#3c45b3;fill-opacity:1;fill-rule:nonzero;stroke:none"
           id="path124" /><path
           d="m 976.126,949.793 h -17.105 v 144.066 h 17.105 z"
           style="fill:#3c45b3;fill-opacity:1;fill-rule:nonzero;stroke:none"
           id="path126" /><path
           d="m 980.866,935.28 h -26.584 v 4.519 h 26.584 z"
           style="fill:#3c45b3;fill-opacity:1;fill-rule:nonzero;stroke:none"
           id="path128" /><path
           d="m 868.202,1064.042 h -38.607 v 4.519 h 38.607 z"
           style="fill:#a50000;fill-opacity:1;fill-rule:nonzero;stroke:none"
           id="path130" /><path
           d="m 1138.7,1059.545 h -32.446 v 13.535 h 32.446 z"
           style="fill:#a50000;fill-opacity:1;fill-rule:nonzero;stroke:none"
           id="path132" /><path
           d="m 905.468,1064.042 h -34.333 v 4.519 h 34.333 z"
           style="fill:#f9b300;fill-opacity:1;fill-rule:nonzero;stroke:none"
           id="path134" /><g
           id="g136"
           transform="translate(1026.4019,1082.5415)"><path
             d="m 0,0 -28.414,3.04 0.481,4.493 28.414,-3.04 z"
             style="fill:#a50000;fill-opacity:1;fill-rule:nonzero;stroke:none"
             id="path138" /></g><g
           id="g140"
           transform="translate(1025.6396,1075.416)"><path
             d="m 0,0 -28.413,3.04 0.48,4.493 28.414,-3.04 z"
             style="fill:#a50000;fill-opacity:1;fill-rule:nonzero;stroke:none"
             id="path142" /></g><g
           id="g144"
           transform="translate(1018.8779,1012.2041)"><path
             d="M 0,0 -28.414,3.039 -27.933,7.532 0.48,4.493 Z"
             style="fill:#a50000;fill-opacity:1;fill-rule:nonzero;stroke:none"
             id="path146" /></g><g
           id="g148"
           transform="translate(1018.1157,1005.0781)"><path
             d="M 0,0 -28.414,3.04 -27.933,7.533 0.48,4.493 Z"
             style="fill:#a50000;fill-opacity:1;fill-rule:nonzero;stroke:none"
             id="path150" /></g><g
           id="g152"
           transform="translate(1011.354,941.8662)"><path
             d="M 0,0 -28.414,3.039 -27.933,7.532 0.48,4.493 Z"
             style="fill:#a50000;fill-opacity:1;fill-rule:nonzero;stroke:none"
             id="path154" /></g><g
           id="g156"
           transform="translate(1010.5918,934.7402)"><path
             d="M 0,0 -28.414,3.04 -27.933,7.533 0.48,4.493 Z"
             style="fill:#a50000;fill-opacity:1;fill-rule:nonzero;stroke:none"
             id="path158" /></g><path
           d="m 905.468,998.531 h -34.333 v 4.519 h 34.333 z"
           style="fill:#f9b300;fill-opacity:1;fill-rule:nonzero;stroke:none"
           id="path160" /><path
           d="m 905.468,933.021 h -34.333 v 4.519 h 34.333 z"
           style="fill:#f9b300;fill-opacity:1;fill-rule:nonzero;stroke:none"
           id="path162" /><path
           d="m 868.202,941.343 h -38.607 v 4.519 h 38.607 z"
           style="fill:#a50000;fill-opacity:1;fill-rule:nonzero;stroke:none"
           id="path164" /><path
           d="m 753.757,923.138 h 31.148 v 200.518 h -31.148 z m 31.815,-1.333 H 753.09 c -0.369,0 -0.667,0.299 -0.667,0.666 v 201.851 c 0,0.367 0.298,0.667 0.667,0.667 h 32.482 c 0.368,0 0.666,-0.3 0.666,-0.667 V 922.471 c 0,-0.367 -0.298,-0.666 -0.666,-0.666"
           style="fill:#000000;fill-opacity:1;fill-rule:nonzero;stroke:none"
           id="path166" /><path
           d="m 1056.711,1075.36 h -21.589 v 32.48 h 21.589 z"
           style="fill:#f9b300;fill-opacity:1;fill-rule:nonzero;stroke:none"
           id="path168" /><path
           d="m 1168.599,937.54 h -21.589 v 170.3 h 21.589 z"
           style="fill:#3c45b3;fill-opacity:1;fill-rule:nonzero;stroke:none"
           id="path170" /><path
           d="m 1056.711,937.54 h -21.589 v 131.021 h 21.589 z"
           style="fill:#f9b300;fill-opacity:1;fill-rule:nonzero;stroke:none"
           id="path172" /><path
           d="m 1030.343,923.138 h 31.147 v 200.518 h -31.147 z m 31.813,-1.333 h -32.48 c -0.367,0 -0.667,0.299 -0.667,0.666 v 201.851 c 0,0.367 0.3,0.667 0.667,0.667 h 32.48 c 0.367,0 0.667,-0.3 0.667,-0.667 V 922.471 c 0,-0.367 -0.3,-0.666 -0.667,-0.666"
           style="fill:#000000;fill-opacity:1;fill-rule:nonzero;stroke:none"
           id="path174" /><path
           d="m 1065.776,923.138 h 36.816 v 189.266 h -36.816 z m 37.483,-1.333 h -38.15 c -0.367,0 -0.666,0.299 -0.666,0.666 v 190.599 c 0,0.367 0.299,0.666 0.666,0.666 h 38.15 c 0.367,0 0.666,-0.299 0.666,-0.666 V 922.471 c 0,-0.367 -0.299,-0.666 -0.666,-0.666"
           style="fill:#000000;fill-opacity:1;fill-rule:nonzero;stroke:none"
           id="path176" /><path
           d="m 1106.92,923.138 h 31.113 v 159.649 h -31.113 z m 31.78,-1.333 h -32.447 c -0.367,0 -0.666,0.299 -0.666,0.666 v 160.983 c 0,0.367 0.299,0.667 0.666,0.667 h 32.447 c 0.367,0 0.667,-0.3 0.667,-0.667 V 922.471 c 0,-0.367 -0.3,-0.666 -0.667,-0.666"
           style="fill:#000000;fill-opacity:1;fill-rule:nonzero;stroke:none"
           id="path178" /><path
           d="m 1142.247,923.138 h 31.114 v 200.518 h -31.114 z m 31.779,-1.333 h -32.446 c -0.367,0 -0.666,0.299 -0.666,0.666 v 201.851 c 0,0.367 0.299,0.667 0.666,0.667 h 32.446 c 0.368,0 0.667,-0.3 0.667,-0.667 V 922.471 c 0,-0.367 -0.299,-0.666 -0.667,-0.666"
           style="fill:#000000;fill-opacity:1;fill-rule:nonzero;stroke:none"
           id="path180" /><path
           d="m 788.871,923.138 h 37.274 v 200.518 h -37.274 z m 37.941,-1.333 h -38.608 c -0.368,0 -0.666,0.299 -0.666,0.666 v 201.851 c 0,0.367 0.298,0.667 0.666,0.667 h 38.608 c 0.369,0 0.667,-0.3 0.667,-0.667 V 922.471 c 0,-0.367 -0.298,-0.666 -0.667,-0.666"
           style="fill:#000000;fill-opacity:1;fill-rule:nonzero;stroke:none"
           id="path182" /><path
           d="m 830.261,923.138 h 37.274 v 161.91 h -37.274 z m 37.941,-1.333 h -38.607 c -0.369,0 -0.667,0.299 -0.667,0.666 v 163.243 c 0,0.368 0.298,0.667 0.667,0.667 h 38.607 c 0.369,0 0.667,-0.299 0.667,-0.667 V 922.471 c 0,-0.367 -0.298,-0.666 -0.667,-0.666"
           style="fill:#000000;fill-opacity:1;fill-rule:nonzero;stroke:none"
           id="path184" /><path
           d="m 871.802,923.138 h 32.999 v 161.91 h -32.999 z m 33.666,-1.333 h -34.332 c -0.369,0 -0.667,0.299 -0.667,0.666 v 163.243 c 0,0.368 0.298,0.667 0.667,0.667 h 34.332 c 0.368,0 0.666,-0.299 0.666,-0.667 V 922.471 c 0,-0.367 -0.298,-0.666 -0.666,-0.666"
           style="fill:#000000;fill-opacity:1;fill-rule:nonzero;stroke:none"
           id="path186" /><g
           id="g188"
           transform="translate(981.6001,926.1011)"><path
             d="m 0,0 27.087,-2.896 18.773,175.509 -27.086,2.895 z m 27.678,-4.296 c -0.023,0 -0.047,0 -0.07,0.002 l -28.413,3.039 c -0.175,0.021 -0.337,0.107 -0.448,0.245 -0.112,0.138 -0.164,0.315 -0.144,0.489 l 18.916,176.834 c 0.039,0.37 0.388,0.63 0.732,0.594 l 28.414,-3.039 c 0.176,-0.021 0.338,-0.107 0.447,-0.245 0.112,-0.138 0.164,-0.315 0.146,-0.49 L 28.342,-3.7 c -0.036,-0.344 -0.328,-0.596 -0.664,-0.596"
             style="fill:#000000;fill-opacity:1;fill-rule:nonzero;stroke:none"
             id="path190" /></g><path
           d="m 908.973,923.138 h 41.646 v 195.674 h -41.646 z m 42.312,-1.333 h -42.979 c -0.369,0 -0.667,0.299 -0.667,0.666 v 197.008 c 0,0.367 0.298,0.666 0.667,0.666 h 42.979 c 0.368,0 0.666,-0.299 0.666,-0.666 V 922.471 c 0,-0.367 -0.298,-0.666 -0.666,-0.666"
           style="fill:#000000;fill-opacity:1;fill-rule:nonzero;stroke:none"
           id="path192" /><path
           d="m 954.949,923.138 h 25.25 v 195.674 h -25.25 z m 25.917,-1.333 h -26.584 c -0.368,0 -0.667,0.299 -0.667,0.666 v 197.008 c 0,0.367 0.299,0.666 0.667,0.666 h 26.584 c 0.368,0 0.666,-0.299 0.666,-0.666 V 922.471 c 0,-0.367 -0.298,-0.666 -0.666,-0.666"
           style="fill:#000000;fill-opacity:1;fill-rule:nonzero;stroke:none"
           id="path194" /><path
           d="M 868.202,808.925 H 795.85 v 30.03 h 72.352 z"
           style="fill:#3c45b3;fill-opacity:1;fill-rule:nonzero;stroke:none"
           id="path196" /><path
           d="m 844.929,801.969 h -25.807 v 0.924 h 25.807 z"
           style="fill:#3c45b3;fill-opacity:1;fill-rule:nonzero;stroke:none"
           id="path198" /><path
           d="m 853.036,740.2 h -42.021 v 0.925 h 42.021 z"
           style="fill:#3c45b3;fill-opacity:1;fill-rule:nonzero;stroke:none"
           id="path200" /><path
           d="m 853.036,736.409 h -42.021 v 0.924 h 42.021 z"
           style="fill:#3c45b3;fill-opacity:1;fill-rule:nonzero;stroke:none"
           id="path202" /><path
           d="m 847.375,732.617 h -30.699 v 0.925 h 30.699 z"
           style="fill:#3c45b3;fill-opacity:1;fill-rule:nonzero;stroke:none"
           id="path204" /><path
           d="m 786.87,725.281 h 90.313 V 846.985 H 786.87 Z m 90.979,-1.333 h -91.646 c -0.369,0 -0.666,0.3 -0.666,0.667 v 123.036 c 0,0.368 0.297,0.667 0.666,0.667 h 91.646 c 0.368,0 0.667,-0.299 0.667,-0.667 V 724.615 c 0,-0.367 -0.299,-0.667 -0.667,-0.667"
           style="fill:#000000;fill-opacity:1;fill-rule:nonzero;stroke:none"
           id="path206" /><g
           id="g208"
           transform="translate(868.4434,453.3545)"><path
             d="m 0,0 3.094,-9.522 h 10.013 l -8.101,-5.886 3.095,-9.523 -8.101,5.885 -8.101,-5.885 3.095,9.523 -8.101,5.886 h 10.013 z"
             style="fill:#f9b300;fill-opacity:1;fill-rule:nonzero;stroke:none"
             id="path210" /></g><g
           id="g212"
           transform="translate(915.6089,453.3545)"><path
             d="m 0,0 3.094,-9.522 h 10.013 l -8.101,-5.886 3.095,-9.523 -8.101,5.885 -8.101,-5.885 3.095,9.523 -8.101,5.886 h 10.013 z"
             style="fill:#f9b300;fill-opacity:1;fill-rule:nonzero;stroke:none"
             id="path214" /></g><g
           id="g216"
           transform="translate(962.7744,453.3545)"><path
             d="m 0,0 3.094,-9.522 h 10.013 l -8.101,-5.886 3.095,-9.523 -8.101,5.885 -8.101,-5.885 3.095,9.523 -8.101,5.886 h 10.013 z"
             style="fill:#f9b300;fill-opacity:1;fill-rule:nonzero;stroke:none"
             id="path218" /></g><g
           id="g220"
           transform="translate(1009.9399,453.3545)"><path
             d="m 0,0 3.094,-9.522 h 10.013 l -8.101,-5.886 3.095,-9.523 -8.101,5.885 -8.101,-5.885 3.095,9.523 -8.101,5.886 h 10.013 z"
             style="fill:#f9b300;fill-opacity:1;fill-rule:nonzero;stroke:none"
             id="path222" /></g><g
           id="g224"
           transform="translate(1057.1055,453.3545)"><path
             d="m 0,0 3.094,-9.522 h 10.013 l -8.101,-5.886 3.095,-9.523 -8.101,5.885 -8.101,-5.885 3.095,9.523 -8.1,5.886 h 10.012 z"
             style="fill:#f9b300;fill-opacity:1;fill-rule:nonzero;stroke:none"
             id="path226" /></g><g
           id="g228"
           transform="translate(1377.9707,317.8965)"><path
             d="m 0,0 h -26.305 l -0.672,-23.901 c 0,0 -1.56,-1.998 -3.489,-4.911 v 0.002 c -12.292,-1.066 -13.263,-16.476 -13.263,-16.476 h 6 7.263 19.847 l 11.46,8.402 c 0,0 4.502,1.047 4.984,6.03 C 6.307,-25.87 0,0 0,0"
             style="fill:#39302a;fill-opacity:1;fill-rule:nonzero;stroke:none"
             id="path230" /></g><g
           id="g232"
           transform="translate(1268.6221,1227.8389)"><path
             d="m 0,0 -57.264,0.222 22.937,-75.836 55.72,-1.838 z"
             style="fill:#ff4e00;fill-opacity:1;fill-rule:nonzero;stroke:none"
             id="path234" /></g><g
           id="g236"
           transform="translate(1211.3584,1228.0605)"><path
             d="M 0,0 26.26,22.247 34.618,-0.134 Z"
             style="fill:#ff4e00;fill-opacity:1;fill-rule:nonzero;stroke:none"
             id="path238" /></g><g
           id="g240"
           transform="translate(1249.0488,1227.8745)"><path
             d="M 0,0 -8.382,21.528 -34.531,0.052 Z"
             style="fill:#bfc3c5;fill-opacity:1;fill-rule:nonzero;stroke:none"
             id="path242" /></g><g
           id="g244"
           transform="translate(1266.9385,1227.8457)"><path
             d="m 0,0 -0.611,2.613 c 0,0 -47.166,6.785 -50.343,-2.532 z"
             style="fill:#d1d8dc;fill-opacity:1;fill-rule:nonzero;stroke:none"
             id="path246" /></g><g
           id="g248"
           transform="translate(1214.5176,1227.9268)"><path
             d="M 0,0 22.605,-75.796 19.777,-75.702 -3.159,0.134 Z"
             style="fill:#df3e00;fill-opacity:1;fill-rule:nonzero;stroke:none"
             id="path250" /></g><g
           id="g252"
           transform="translate(1240.667,1249.4028)"><path
             d="m 0,0 h -2.711 l -25.271,-21.342 1.833,-0.134 z"
             style="fill:#ababac;fill-opacity:1;fill-rule:nonzero;stroke:none"
             id="path254" /></g><g
           id="g256"
           transform="translate(1263.7842,1214.0737)"><path
             d="m 0,0 h -38.543 l 4.592,-16.736 h 38.43 z"
             style="fill:#f9b300;fill-opacity:1;fill-rule:nonzero;stroke:none"
             id="path258" /></g><g
           id="g260"
           transform="translate(1602.0088,473.6904)"><path
             d="m 0,0 h -24.287 -82.375 l 30.036,-201.08 H -24.287 0 52.338 L 82.375,0 Z"
             style="fill:#e0ce9a;fill-opacity:1;fill-rule:nonzero;stroke:none"
             id="path262" /></g><g
           id="g264"
           transform="translate(1502.2266,427.6348)"><path
             d="M 0,0 H 175.278 L 171.575,-24.842 2.107,-14.109 Z"
             style="fill:#ceba7d;fill-opacity:1;fill-rule:nonzero;stroke:none"
             id="path266" /></g><g
           id="g268"
           transform="translate(1604.4531,473.6045)"><path
             d="m 0,0 c -13.499,20.303 -11.166,53.473 5.884,70.901 7.193,7.354 16.498,12.654 22.523,20.992 18.172,25.147 -1.499,63.789 14.839,90.165 6.96,11.236 19.538,18.329 25.622,30.063 4.774,9.207 5.189,20.651 11.936,28.527 9.804,11.445 30.215,12.03 35.9,25.986 C 91.11,177.756 65.516,88.878 39.921,0"
             style="fill:#6b9a00;fill-opacity:1;fill-rule:nonzero;stroke:none"
             id="path270" /></g><g
           id="g272"
           transform="translate(1577.7217,473.6904)"><path
             d="m 0,0 c 0.699,15.379 -0.76,35.233 -10.863,46.849 -7.504,8.627 -19.452,13.017 -25.373,22.799 -10.793,17.83 2.954,45.515 -12.382,59.627 -4.116,3.787 -9.699,5.718 -13.699,9.627 -11.307,11.054 -4.73,30.821 -11.503,45.11 -3.058,6.45 -8.632,11.293 -14.053,15.939 -12.495,10.709 -24.991,21.419 -37.486,32.129 C -91.037,157.538 -59.845,78.228 -35.044,0"
             style="fill:#6b9a00;fill-opacity:1;fill-rule:nonzero;stroke:none"
             id="path274" /></g><g
           id="g276"
           transform="translate(1621.9434,554.5566)"><path
             d="m 0,0 c -3.949,-3.259 -8.038,-6.402 -11.607,-10.051 -1.151,-1.176 -2.229,-2.429 -3.245,-3.74 -0.097,-22.438 -0.299,-44.813 -0.625,-67.075 l -2.064,-0.005 c 0.018,-0.026 0.033,-0.055 0.051,-0.081 H 11.681 C 12.276,-57.972 5.594,-24.023 0,0"
             style="fill:#5b8000;fill-opacity:1;fill-rule:nonzero;stroke:none"
             id="path278" /></g><g
           id="g280"
           transform="translate(1553.6201,531.5195)"><path
             d="m 0,0 c -2.672,1.957 -5.282,3.96 -7.584,6.233 -3.324,-15.695 -7.273,-42.245 -2.193,-64.062 h 27.21 C 4.735,-42.335 -1.794,-20.383 0,0"
             style="fill:#5b8000;fill-opacity:1;fill-rule:nonzero;stroke:none"
             id="path282" /></g><g
           id="g284"
           transform="translate(1571.1211,473.6045)"><path
             d="m 0,0 c -16.077,19.554 -22.319,49.451 -14.343,73.477 3.406,10.258 9.027,19.813 11.053,30.43 4.248,22.259 -7.856,44.113 -10.793,66.581 -8.069,61.746 41.638,114.13 46.661,178.253 2.911,-115.229 4.45,-233.401 2.768,-348.655"
             style="fill:#6b9a00;fill-opacity:1;fill-rule:nonzero;stroke:none"
             id="path286" /></g><g
           id="g288"
           transform="translate(1332.9805,838.9556)"><path
             d="m 0,0 c 0,0 -26.446,-155.379 -17.37,-155.432 l 6.568,8.398 z"
             style="fill:#39302a;fill-opacity:1;fill-rule:nonzero;stroke:none"
             id="path290" /></g><g
           id="g292"
           transform="translate(1347.5508,1152.7686)"><path
             d="m 0,0 c 0,0 -34.201,-41.375 -56.187,-146.342 -0.367,18.872 -6.075,58.087 -28.896,139.515 l -16.964,-3.532 c 0,0 -10.146,-140.006 23.152,-181.285 33.389,-41.39 74.061,36.087 84.608,95.588 C 14.685,-45.43 0,0 0,0"
             style="fill:#8b4622;fill-opacity:1;fill-rule:nonzero;stroke:none"
             id="path294" /></g><g
           id="g296"
           transform="translate(1262.4678,1145.9419)"><path
             d="m 0,0 c 0,0 -0.461,3.516 -2.286,5.429 l -7.589,0.25 0.006,-0.015 c -2.986,2.364 -6.482,3.608 -8.754,4.214 -1.692,13.255 -8.096,26.604 -6.722,20.805 0.779,-3.288 1.271,-9.644 1.56,-14.77 -5.083,8.801 -12.007,15.562 -12.007,15.562 0,0 6.794,-22.464 7.619,-25.192 0.825,-2.729 11.209,-9.815 11.209,-9.815 l 11.958,2.49 z"
             style="fill:#8b4622;fill-opacity:1;fill-rule:nonzero;stroke:none"
             id="path298" /></g><g
           id="g300"
           transform="translate(1612.8711,977.3716)"><path
             d="m 0,0 3.033,28.213 c 0.372,0.863 3.65,7.811 11.601,5.156 3.042,-1.015 4.8,-4.476 4.706,-9.257 C 19.162,15.083 12.459,4.074 0,0 M -2.84,-13.931 H -38.063 L -43.44,36.083 H 2.537 Z m -34.857,-3.408 -0.223,2.075 h 34.937 l -0.223,-2.075 z M 3.549,45.491 2.681,37.416 h -46.265 l -0.868,8.075 z M 20.673,24.086 c 0.106,5.395 -1.992,9.338 -5.617,10.549 -6.057,2.023 -9.784,-0.952 -11.697,-3.39 l 1.596,14.842 c 0.018,0.188 -0.042,0.375 -0.17,0.516 -0.125,0.141 -0.305,0.221 -0.494,0.221 h -49.485 c -0.191,0 -0.37,-0.08 -0.495,-0.221 -0.127,-0.141 -0.188,-0.328 -0.169,-0.516 l 6.898,-64.164 c 0.036,-0.338 0.322,-0.596 0.664,-0.596 h 35.689 c 0.34,0 0.628,0.258 0.664,0.596 l 1.786,16.619 c 13.421,4.113 20.639,15.9 20.83,25.544"
             style="fill:#000000;fill-opacity:1;fill-rule:nonzero;stroke:none"
             id="path302" /></g><g
           id="g304"
           transform="translate(1620.3408,954.4048)"><path
             d="M 0,0 H -1.333 V 4.294 H -54.442 V 0 h -1.333 v 4.96 c 0,0.368 0.298,0.667 0.666,0.667 H -0.666 C -0.299,5.627 0,5.328 0,4.96 Z"
             style="fill:#000000;fill-opacity:1;fill-rule:nonzero;stroke:none"
             id="path306" /></g><path
           d="m 1658.89,977.076 h 82.735 v 20.673 h -82.735 z m 83.402,-1.334 h -84.069 c -0.368,0 -0.667,0.3 -0.667,0.667 v 22.007 c 0,0.367 0.299,0.667 0.667,0.667 h 84.069 c 0.367,0 0.666,-0.3 0.666,-0.667 v -22.007 c 0,-0.367 -0.299,-0.667 -0.666,-0.667"
           style="fill:#000000;fill-opacity:1;fill-rule:nonzero;stroke:none"
           id="path308" /><path
           d="m 1726.016,979.316 h -51.519 v 16.192 h 51.519 z"
           style="fill:#d1d8dc;fill-opacity:1;fill-rule:nonzero;stroke:none"
           id="path310" /><path
           d="m 1742.958,977.076 h 58.592 v 20.673 h -58.592 z m 59.259,-1.334 h -59.925 c -0.367,0 -0.667,0.3 -0.667,0.667 v 22.007 c 0,0.367 0.3,0.667 0.667,0.667 h 59.925 c 0.367,0 0.666,-0.3 0.666,-0.667 v -22.007 c 0,-0.367 -0.299,-0.667 -0.666,-0.667"
           style="fill:#000000;fill-opacity:1;fill-rule:nonzero;stroke:none"
           id="path312" /><path
           d="m 1674.497,998.415 h -8.876 v 22.004 h 8.876 z"
           style="fill:#a50000;fill-opacity:1;fill-rule:nonzero;stroke:none"
           id="path314" /><path
           d="m 1721.56,998.415 h -8.877 v 22.004 h 8.877 z"
           style="fill:#a50000;fill-opacity:1;fill-rule:nonzero;stroke:none"
           id="path316" /><path
           d="m 1735.401,999.083 h 58.592 v 20.671 h -58.592 z m 59.258,-1.334 h -59.924 c -0.367,0 -0.667,0.3 -0.667,0.667 v 22.004 c 0,0.367 0.3,0.667 0.667,0.667 h 59.924 c 0.367,0 0.667,-0.3 0.667,-0.667 v -22.004 c 0,-0.367 -0.3,-0.667 -0.667,-0.667"
           style="fill:#000000;fill-opacity:1;fill-rule:nonzero;stroke:none"
           id="path318" /><path
           d="m 1662.987,954.405 h -4.766 v 22.005 h 4.766 z"
           style="fill:#3c45b3;fill-opacity:1;fill-rule:nonzero;stroke:none"
           id="path320" /><path
           d="m 1672.673,954.405 h -4.766 v 22.005 h 4.766 z"
           style="fill:#3c45b3;fill-opacity:1;fill-rule:nonzero;stroke:none"
           id="path322" /><g
           id="g324"
           transform="translate(1792.4463,954.4048)"><path
             d="M 0,0 H -1.333 V 21.337 H -143.994 V 0 h -1.333 v 22.004 c 0,0.367 0.299,0.667 0.666,0.667 H -0.667 C -0.3,22.671 0,22.371 0,22.004 Z"
             style="fill:#000000;fill-opacity:1;fill-rule:nonzero;stroke:none"
             id="path326" /></g><path
           d="m 1651.332,999.083 h 82.736 v 20.671 h -82.736 z m 83.403,-1.334 h -84.07 c -0.366,0 -0.666,0.3 -0.666,0.667 v 22.004 c 0,0.367 0.3,0.667 0.666,0.667 h 84.07 c 0.368,0 0.666,-0.3 0.666,-0.667 v -22.004 c 0,-0.367 -0.298,-0.667 -0.666,-0.667"
           style="fill:#000000;fill-opacity:1;fill-rule:nonzero;stroke:none"
           id="path328" /><g
           id="g330"
           transform="translate(1509.918,340.3125)"><path
             d="m 0,0 c -4.707,6.546 -11.081,11.732 -15.964,18.149 -4.883,6.417 -8.243,14.911 -5.584,22.523 1.496,4.28 4.815,8.108 4.652,12.64 -0.15,4.202 -3.25,7.616 -5.97,10.824 -10.284,12.131 -17.418,26.91 -20.52,42.509 0.772,-47.142 1.542,-94.284 2.313,-141.425 -16.444,54.075 -36.459,108.698 -58.906,159.684 5.204,-23.907 10.374,-49.057 3.342,-72.493 -1.788,-5.962 -4.366,-11.803 -4.667,-18.019 -0.801,-16.549 14.349,-30.034 16.026,-46.518 0.99,-9.739 -2.867,-19.447 -2.166,-29.212 0.813,-11.346 8.291,-21.965 18.698,-26.556 l 37.309,0.192 c -0.022,0.074 -0.044,0.149 -0.066,0.223 h 18.338 C 6.104,-53.623 13.856,-19.268 0,0"
             style="fill:#6b9a00;fill-opacity:1;fill-rule:nonzero;stroke:none"
             id="path332" /></g><path
           d="m 1826,271.943 h -551.902 v 1.334 H 1826 Z"
           style="fill:#000000;fill-opacity:1;fill-rule:nonzero;stroke:none"
           id="path334" /><g
           id="g336"
           transform="translate(1483.4639,991.6953)"><path
             d="m 0,0 c 0.326,55.262 6.255,155.366 -30.962,174.183 -37.346,18.88 -72.74,7.139 -72.74,7.139 0,0 -25.041,-2.936 -37.886,-29.914 -11.543,-24.232 -36.743,-121.145 -39.354,-178.642 -1.079,-23.762 -1.457,-55.917 6.252,-66.876 0,0 10.45,-19.69 83.449,-20.247 73,-0.557 76.852,12.19 82.982,18.912 C -2.408,-85.937 -0.346,-58.65 0,0"
             style="fill:#f9b300;fill-opacity:1;fill-rule:nonzero;stroke:none"
             id="path338" /></g><g
           id="g340"
           transform="translate(1399.7832,912.5801)"><path
             d="m 0,0 c 0,0 62.652,4.333 81.149,7.983 0,0 0.417,4.163 0.582,6.406 L 81.683,14.38 C 53.318,7.197 21.912,3.304 0,0"
             style="fill:#39302a;fill-opacity:1;fill-rule:nonzero;stroke:none"
             id="path342" /></g><g
           id="g344"
           transform="translate(1483.208,968.6113)"><path
             d="m 0,0 0.019,1.125 c -41.674,-12.223 -89.463,-38.645 -89.463,-38.645 0,0 53.65,27.149 89.438,37.509 C -0.005,-0.01 0,0 0,0"
             style="fill:#39302a;fill-opacity:1;fill-rule:nonzero;stroke:none"
             id="path346" /></g><g
           id="g348"
           transform="translate(1483.6533,1007.6333)"><path
             d="M 0,0 -0.002,0.005 C -10.64,17.727 -18.081,33.27 -24.306,49.99 c -2.384,6.407 -4.169,12.999 -5.473,19.583 l -0.022,0.051 c 0,0 4.258,-39.52 29.654,-80.631 0,0 0.12,10.265 0.147,11.007"
             style="fill:#39302a;fill-opacity:1;fill-rule:nonzero;stroke:none"
             id="path350" /></g><g
           id="g352"
           transform="translate(1549.0107,978.96)"><path
             d="m 0,0 c -4.666,59.665 -82.442,173.334 -82.442,173.334 -11.633,6.103 -24.22,-49.006 -7.221,-94.67 9.977,-26.801 23.075,-50.573 47.463,-85.151 -26.659,2.344 -113.047,-41.381 -113.047,-41.381 0,0 -9.105,-7.004 -12.425,-11.317 -3.32,-4.314 -0.333,-28.313 2.617,-33.202 2.951,-4.888 8.853,17.853 9.013,22.26 0,0 2.359,0.422 6.814,3.747 C -98.348,-58.709 3.744,-47.873 0,0"
             style="fill:#8b4622;fill-opacity:1;fill-rule:nonzero;stroke:none"
             id="path354" /></g><g
           id="g356"
           transform="translate(1431.707,1213.9526)"><path
             d="m 0,0 -1.42,24.68 c -0.001,0.118 -0.002,0.201 -0.002,0.201 l -0.01,-0.001 -0.298,5.206 c 5.551,3.738 5.695,10.76 2.545,13.667 -1.159,1.073 -2.325,1.608 -3.435,1.797 l -0.493,8.565 -6.05,-0.349 c 0,0.001 -0.002,0.007 -0.002,0.007 L -47.12,51.578 c 0,0 -5.491,-22.582 -0.723,-39.18 0.826,-2.874 1.893,-5.551 3.312,-7.89 -0.997,-28.494 -8.279,-47.308 -8.279,-47.308 0,0 -8.101,-15.129 0,-22.924 8.103,-7.794 52.375,5.358 59.932,23.959 C 3.275,-27.496 1.163,-12.287 0,0"
             style="fill:#8b4622;fill-opacity:1;fill-rule:nonzero;stroke:none"
             id="path358" /></g><g
           id="g360"
           transform="translate(1382.25,1235.2046)"><path
             d="m 0,0 c 0,0 -5.361,-2.868 -3.353,-9.09 0,0 -11.99,-6.165 -6.434,-21.971 l 13.6,-0.883 c 0,0 1.138,9.472 1.12,15.183 0,0 -4.035,6.297 -4.933,16.761"
             style="fill:#39302a;fill-opacity:1;fill-rule:nonzero;stroke:none"
             id="path362" /></g><g
           id="g364"
           transform="translate(1387.1826,1218.4434)"><path
             d="m 0,0 c 0,0 6.779,-11.999 21.682,-7.872 0,0 -5.835,-23.459 -24.909,-20.462 0,0 2.728,11.876 3.227,28.334"
             style="fill:#73371b;fill-opacity:1;fill-rule:nonzero;stroke:none"
             id="path366" /></g><g
           id="g368"
           transform="translate(1453.3486,1238.6382)"><path
             d="m 0,0 c 0,0 5.833,16.309 -7.134,22 0,0 1,13.303 -10.421,14.859 0,0 -2.889,10.837 -15.405,10.615 0,0 -9.928,5.333 -18.038,-1.666 0,0 -9.666,3.333 -14.333,-4.334 0,0 -6.701,-1.333 -6.101,-8.333 0,0 -2.663,-9.146 2.219,-8.323 l 0.451,2.074 c 0,0 0.549,-5.417 11.824,-3.75 0,0 4.607,-6.052 14.939,-2.193 0,0 2.451,-6.045 9.514,-6.517 0.267,1.163 0.653,2.369 1.227,3.614 0,0 5.286,5.787 10.432,1.021 4.146,-3.827 2.592,-14.787 -9.511,-15.993 0.553,-5.383 2.45,-10.77 7.752,-11.367 0,0 -14.13,-21.452 -3.272,-33.007 l 28.19,1.778 c 0,0 4,7.333 0,12.666 0,0 8.833,16.278 -2.333,26.856"
             style="fill:#39302a;fill-opacity:1;fill-rule:nonzero;stroke:none"
             id="path370" /></g></g></g></g></svg>
