<?xml version="1.0" encoding="UTF-8" standalone="no"?>
<!-- Created with Inkscape (http://www.inkscape.org/) -->

<svg
   version="1.1"
   id="svg2"
   xml:space="preserve"
   width="3120"
   height="2080"
   viewBox="0 0 3120 2080"
   sodipodi:docname="Online Study Illustration 1.ai"
   xmlns:inkscape="http://www.inkscape.org/namespaces/inkscape"
   xmlns:sodipodi="http://sodipodi.sourceforge.net/DTD/sodipodi-0.dtd"
   xmlns="http://www.w3.org/2000/svg"
   xmlns:svg="http://www.w3.org/2000/svg"><defs
     id="defs6"><clipPath
       clipPathUnits="userSpaceOnUse"
       id="clipPath18"><path
         d="M 0,1560 H 2340 V 0 H 0 Z"
         id="path16" /></clipPath></defs><sodipodi:namedview
     id="namedview4"
     pagecolor="#ffffff"
     bordercolor="#666666"
     borderopacity="1.0"
     inkscape:pageshadow="2"
     inkscape:pageopacity="0.0"
     inkscape:pagecheckerboard="0" /><g
     id="g8"
     inkscape:groupmode="layer"
     inkscape:label="Online Study Illustration 1"
     transform="matrix(1.3333333,0,0,-1.3333333,0,2080)"><path
       d="M 0,0 H 2340 V 1560 H 0 Z"
       style="fill:#ffffff;fill-opacity:1;fill-rule:nonzero;stroke:none"
       id="path10" /><g
       id="g12"><g
         id="g14"
         clip-path="url(#clipPath18)"><g
           id="g20"
           transform="translate(1467.7822,309.9814)"><path
             d="m 0,0 c -74.377,78.179 -153.092,165.902 -159.467,273.62 -3.008,50.832 19.771,110.901 69.565,121.552 31.738,6.788 64.854,-9.546 86.765,-33.488 C 18.774,337.74 31.656,307.116 44.125,277.151 59.478,240.257 74.83,203.362 90.183,166.467 41.174,259.121 5.356,358.739 -15.855,461.388 c -5.469,26.468 -9.976,53.83 -5.001,80.396 4.974,26.566 21.206,52.499 46.455,62.142 37.775,14.427 79.037,-11.425 106.196,-41.384 72.544,-80.021 97.351,-192.07 107.771,-299.576 8.335,-85.985 8.51,-176.826 1.97,-262.966 z"
             style="fill:#f2f0ef;fill-opacity:1;fill-rule:nonzero;stroke:none"
             id="path22" /></g><g
           id="g24"
           transform="translate(875.498,306.998)"><path
             d="m 0,0 c -88.167,77.179 -162.832,169.738 -219.608,272.238 -20.401,36.83 -38.917,76.624 -38.771,118.727 0.088,25.254 10.219,53.963 34.077,62.242 30.259,10.5 59.352,-17.298 78.441,-43.017 46.764,-63.004 86.964,-130.88 119.736,-202.171 -47.946,93.181 -96.311,187.466 -120.985,289.314 -14.835,61.231 -12.442,141.155 44.294,168.547 33.946,16.389 76.2,5.562 105.729,-17.866 29.53,-23.428 48.635,-57.367 64.982,-91.332 47.809,-99.338 78.433,-206.918 90.109,-316.542 -8.423,72.978 -16.847,145.957 -25.27,218.935 -5.694,49.329 -11.341,99.739 -0.719,148.246 10.621,48.508 40.675,95.634 87.083,113.301 56.235,21.407 119.359,-4.925 168.932,-39.03 C 590.539,542.274 608.595,219.687 535.95,3.435 Z"
             style="fill:#f2f0ef;fill-opacity:1;fill-rule:nonzero;stroke:none"
             id="path26" /></g><g
           id="g28"
           transform="translate(987.7954,562.0898)"><path
             d="m 0,0 c -18.572,0 -33.629,15.057 -33.629,33.63 v 3.637 c 0,18.573 15.057,33.629 33.629,33.629 h 626.712 v 10.6 H -4.819 c -22.569,0 -40.864,-18.295 -40.864,-40.864 V 30.264 c 0,-22.569 18.295,-40.864 40.864,-40.864 H 626.712 V 0 Z"
             style="fill:#4467ae;fill-opacity:1;fill-rule:nonzero;stroke:none"
             id="path30" /></g><g
           id="g32"
           transform="translate(1608.7979,562.0908)"><path
             d="m 0,0 h -621.086 c -18.526,0 -33.545,15.019 -33.545,33.545 v 3.805 c 0,18.526 15.019,33.546 33.545,33.546 H 0 Z"
             style="fill:#fcd7a8;fill-opacity:1;fill-rule:nonzero;stroke:none"
             id="path34" /></g><path
           d="m 1303.734,562.091 h 305.063 v 70.896 h -305.063 z"
           style="fill:#eecaa2;fill-opacity:1;fill-rule:nonzero;stroke:none"
           id="path36" /><g
           id="g38"
           transform="translate(1270.4268,614.7871)"><path
             d="M 0,0 H -15.243 V -35.301 L 0,-25.272 15.243,-35.301 V 0 Z"
             style="fill:#e7423b;fill-opacity:1;fill-rule:nonzero;stroke:none"
             id="path40" /></g><path
           d="m 1303.734,632.986 h 310.773 v 10.6 h -310.773 z"
           style="fill:#3b62ab;fill-opacity:1;fill-rule:nonzero;stroke:none"
           id="path42" /><path
           d="m 1614.508,562.09 h -310.773 v -10.6 h 310.773 z"
           style="fill:#3b62ab;fill-opacity:1;fill-rule:nonzero;stroke:none"
           id="path44" /><g
           id="g46"
           transform="translate(1050.9038,405.0176)"><path
             d="m 0,0 v -69.377 c 0,-8.751 7.093,-15.844 15.844,-15.844 h 531.294 c 1.524,2.743 2.398,5.898 2.398,9.258 V 6.585 c 0,3.361 -0.874,6.515 -2.398,9.259 H 15.844 C 7.093,15.844 0,8.75 0,0"
             style="fill:#fcd7a8;fill-opacity:1;fill-rule:nonzero;stroke:none"
             id="path48" /></g><g
           id="g50"
           transform="translate(1067.9375,319.7969)"><path
             d="m 0,0 c -8.751,0 -15.844,7.093 -15.844,15.844 v 69.377 c 0,8.75 7.093,15.843 15.844,15.843 h 540.86 c -3.261,5.875 -9.521,9.855 -16.716,9.855 h -659.61 c -10.556,0 -19.114,-8.558 -19.114,-19.113 V 9.258 c 0,-10.556 8.558,-19.113 19.114,-19.113 h 659.61 c 7.195,0 13.455,3.98 16.716,9.855 z"
             style="fill:#e74a2c;fill-opacity:1;fill-rule:nonzero;stroke:none"
             id="path52" /></g><g
           id="g54"
           transform="translate(1521.376,532.377)"><path
             d="m 0,0 c 0,3.36 -0.874,6.515 -2.396,9.259 h -459.553 c -8.751,0 -15.844,-7.094 -15.844,-15.845 v -69.377 c 0,-8.75 7.093,-15.844 15.844,-15.844 H -2.396 C -0.874,-89.063 0,-85.908 0,-82.548 Z"
             style="fill:#fcd7a8;fill-opacity:1;fill-rule:nonzero;stroke:none"
             id="path56" /></g><g
           id="g58"
           transform="translate(1043.583,456.4141)"><path
             d="m 0,0 v 69.377 c 0,8.751 7.133,15.845 15.932,15.845 h 467.822 c -3.261,5.874 -9.521,9.854 -16.717,9.854 h -657.212 c -10.556,0 -19.114,-8.557 -19.114,-19.113 V -6.585 c 0,-10.556 8.558,-19.113 19.114,-19.113 h 657.212 c 7.196,0 13.456,3.98 16.717,9.854 H 15.932 C 7.133,-15.844 0,-8.75 0,0"
             style="fill:#f49d04;fill-opacity:1;fill-rule:nonzero;stroke:none"
             id="path60" /></g><g
           id="g62"
           transform="translate(982.9761,551.4902)"><path
             d="M 0,0 272.208,-9.035 536.003,-9.854 527.644,0 H 320.758 Z"
             style="fill:#39302a;fill-opacity:1;fill-rule:nonzero;stroke:none"
             id="path64" /></g><g
           id="g66"
           transform="translate(1219.0439,643.5859)"><path
             d="m 0,0 c 0,0 56.617,-10.098 84.69,-10.6 l 196.989,-0.027 V 0 Z"
             style="fill:#39302a;fill-opacity:1;fill-rule:nonzero;stroke:none"
             id="path68" /></g><g
           id="g70"
           transform="translate(1356.3975,400.4219)"><path
             d="M 0,0 H -21.573 V -49.961 L 0,-35.768 21.573,-49.961 V 0 Z"
             style="fill:#eb6753;fill-opacity:1;fill-rule:nonzero;stroke:none"
             id="path72" /></g><g
           id="g74"
           transform="translate(1121.9717,507.9707)"><path
             d="M 0,0 H -21.574 V -49.961 L 0,-35.767 21.574,-49.961 V 0 Z"
             style="fill:#eb6753;fill-opacity:1;fill-rule:nonzero;stroke:none"
             id="path76" /></g><path
           d="M 896.434,430.716 H 884.062 V 551.49 h 12.372 z"
           style="fill:#f9b547;fill-opacity:1;fill-rule:nonzero;stroke:none"
           id="path78" /><path
           d="M 942.112,430.716 H 909.565 V 551.49 h 32.547 z"
           style="fill:#f9b547;fill-opacity:1;fill-rule:nonzero;stroke:none"
           id="path80" /><path
           d="m 982.976,309.941 h -32.547 v 120.774 h 32.547 z"
           style="fill:#ed7360;fill-opacity:1;fill-rule:nonzero;stroke:none"
           id="path82" /><g
           id="g84"
           transform="translate(932.4712,430.7158)"><path
             d="M 0,0 C 0,0 -10.964,0.017 -16.72,-9.854 H 180.936 618.53 c 0,0 -18.587,9.239 -40.381,9.854 z"
             style="fill:#39302a;fill-opacity:1;fill-rule:nonzero;stroke:none"
             id="path86" /></g><g
           id="g88"
           transform="translate(1511.3359,760.1533)"><path
             d="M 0,0 C 0,0 74.465,-9.864 54.243,-98.842 38.483,-168.186 -87.224,-435.396 -87.224,-435.396 h -35.211 c 0,0 35.334,300.392 97.335,329.893 0,0 -205.299,-1.428 -225.175,0 -19.876,1.427 -86.967,19.271 -95.532,102.68 z"
             style="fill:#2f5059;fill-opacity:1;fill-rule:nonzero;stroke:none"
             id="path90" /></g><g
           id="g92"
           transform="translate(1428.5352,673.665)"><path
             d="m 0,0 c -26.671,91.97 -93.938,86.129 -93.938,86.129 0,0 5.795,-0.376 -116.431,-0.376 -37.136,0 -68.856,4.574 -72.92,-2.088 -11.102,-18.2 0.385,-98.702 61.492,-113.744 h 117.125 c 14.552,4.053 20.98,8.553 20.98,8.553 2.122,-99.314 143.274,-327.381 143.274,-327.381 H 99.113 C 99.113,-348.907 26.926,-92.85 0,0"
             style="fill:#355560;fill-opacity:1;fill-rule:nonzero;stroke:none"
             id="path94" /></g><g
           id="g96"
           transform="translate(1382.1387,784.269)"><path
             d="m 0,0 -25.286,74.358 c -2.188,127.757 -24.031,167.553 -24.031,167.553 -13.677,28.723 -40.338,31.849 -40.338,31.849 0,0 -43.902,12.129 -83.664,-7.974 -9.128,-4.615 -16.885,-12.881 -23.549,-23.794 -0.131,0.058 -0.206,0.091 -0.206,0.091 0,0 -55.414,-93.152 -48.277,-167.725 0.705,-7.37 2.585,-13.812 5.435,-19.503 -3.511,-44.605 0.813,-75.02 3.024,-81.794 l 195.053,2.439 c 4.238,4.161 6.263,19.732 7.357,37.05 8.605,-11.093 16.334,-19.687 16.334,-19.687 z"
             style="fill:#7f78b6;fill-opacity:1;fill-rule:nonzero;stroke:none"
             id="path98" /></g><g
           id="g100"
           transform="translate(1382.1387,767.1973)"><path
             d="m 0,0 h 156.557 l 26.177,140.764 H 26.178 Z"
             style="fill:#e4dfe5;fill-opacity:1;fill-rule:nonzero;stroke:none"
             id="path102" /></g><path
           d="m 1306.045,758.773 h 232.65 v 8.424 h -232.65 z"
           style="fill:#e4dfe5;fill-opacity:1;fill-rule:nonzero;stroke:none"
           id="path104" /><path
           d="m 1538.695,767.197 h -232.65 v -4.212 h 232.65 z"
           style="fill:#39302a;fill-opacity:1;fill-rule:nonzero;stroke:none"
           id="path106" /><g
           id="g108"
           transform="translate(1382.1387,763.0557)"><path
             d="m 0,0 v -4.212 l -76.094,-0.07 v 6.317 z"
             style="fill:#39302a;fill-opacity:1;fill-rule:nonzero;stroke:none"
             id="path110" /></g><g
           id="g112"
           transform="translate(1294.8281,1052.5615)"><path
             d="m 0,0 c -0.039,0.017 -0.081,0.032 -0.121,0.049 -0.748,2.649 -5.492,20.56 -4.966,46.4 l 0.656,3.79 c 1.864,2.348 3.373,5.124 4.632,8.157 7.052,16.982 3.973,41.533 3.973,41.533 l -39.885,6.912 c 0,0 -0.003,-0.006 -0.003,-0.007 l -6.357,1.101 -2.01,-11.622 c -0.064,-0.031 -0.123,-0.047 -0.188,-0.081 -3.743,-1.945 -5.584,-8.292 -2.162,-13.502 l -1.361,-7.869 V 74.86 l -3.523,-20.376 c -2.571,-13.183 -6.58,-31.071 -12.152,-48.491 -0.032,-0.005 -0.072,-0.011 -0.072,-0.011 0.005,-0.051 0.016,-0.1 0.021,-0.152 -0.014,-0.046 -0.029,-0.093 -0.044,-0.14 0,0 0.044,-0.012 0.067,-0.019 C -59.433,-31.416 -10.79,-53.567 1.731,-37.32 14.288,-21.026 0,0 0,0"
             style="fill:#f29574;fill-opacity:1;fill-rule:nonzero;stroke:none"
             id="path114" /></g><g
           id="g116"
           transform="translate(1142.2471,839.1001)"><path
             d="m 0,0 -0.026,0.011 c 0,0 -0.535,-7.042 -0.735,-11.139 0,0 -0.737,-34.539 175.476,-60.294 0,0 -66.454,13.736 -125.694,35.386 C 27.07,-28.013 8.848,-17.64 0,0"
             style="fill:#39302a;fill-opacity:1;fill-rule:nonzero;stroke:none"
             id="path118" /></g><g
           id="g120"
           transform="translate(1217.2344,953.8608)"><path
             d="m 0,0 c -12.145,-43.75 -33.817,-99.646 -33.817,-99.646 46.124,0 141.597,-68.024 141.597,-68.024 0,0 -83.547,62.552 -135.174,69.213 0,0 21.717,68.205 27.394,98.457"
             style="fill:#39302a;fill-opacity:1;fill-rule:nonzero;stroke:none"
             id="path122" /></g><g
           id="g124"
           transform="translate(1342.7568,976.2285)"><path
             d="m 0,0 c 0,0 10.458,-113.538 5.749,-161.285 0,0 6.088,68.111 -5.749,161.285"
             style="fill:#39302a;fill-opacity:1;fill-rule:nonzero;stroke:none"
             id="path126" /></g><g
           id="g128"
           transform="translate(1325.0146,786.1904)"><path
             d="m 0,0 c 0,0 15.363,-5.49 20.003,-9.059 4.639,-3.568 22.442,-6.195 22.277,-9.934 0,0 -48.232,-0.053 -50.333,0.48 z"
             style="fill:#f29574;fill-opacity:1;fill-rule:nonzero;stroke:none"
             id="path130" /></g><g
           id="g132"
           transform="translate(1381.041,783.8374)"><path
             d="M 0,0 3.193,-5.371 1.098,-16.64 -11.757,-16.642 c 0,0 -5.294,4.821 -4.296,10.329 z"
             style="fill:#f29574;fill-opacity:1;fill-rule:nonzero;stroke:none"
             id="path134" /></g><g
           id="g136"
           transform="translate(1420.8174,324.7578)"><path
             d="m 0,0 -2.798,-25.448 c 0,0 4.259,-10.605 3.069,-22.77 H -34.71 c 0,0 -4.792,1.115 -5.306,6.421 C -40.529,-36.491 -28.008,0 -28.008,0 Z"
             style="fill:#39302a;fill-opacity:1;fill-rule:nonzero;stroke:none"
             id="path138" /></g><g
           id="g140"
           transform="translate(1521.3369,324.7578)"><path
             d="m 0,0 17.442,-25.448 c 0,0 28.883,-10.605 27.694,-22.77 H -14.47 c 0,0 -4.792,1.115 -5.305,6.421 C -20.288,-36.491 -28.008,0 -28.008,0 Z"
             style="fill:#39302a;fill-opacity:1;fill-rule:nonzero;stroke:none"
             id="path142" /></g><g
           id="g144"
           transform="translate(1012.8306,763.8457)"><path
             d="m 0,0 c 0,0 -30.939,24.708 -43.013,112.998 0,0 52.068,-38.853 54.332,-112.998 z"
             style="fill:#499e86;fill-opacity:1;fill-rule:nonzero;stroke:none"
             id="path146" /></g><g
           id="g148"
           transform="translate(1039.3457,763.8457)"><path
             d="m 0,0 c 0,0 -1.82,180.131 19.309,250.323 0,0 39.724,-130.064 -4.527,-250.323 z"
             style="fill:#499e86;fill-opacity:1;fill-rule:nonzero;stroke:none"
             id="path150" /></g><g
           id="g152"
           transform="translate(1054.1274,763.8457)"><path
             d="m 0,0 c 0,0 3.046,80.172 63.415,132.617 0,0 2.264,-96.202 -47.54,-132.617 z"
             style="fill:#4aaf96;fill-opacity:1;fill-rule:nonzero;stroke:none"
             id="path154" /></g><g
           id="g156"
           transform="translate(973.7881,748.0391)"><path
             d="M 0,0 H 137.605 L 136.721,-4.857 0,-4.855 Z"
             style="fill:#39302a;fill-opacity:1;fill-rule:nonzero;stroke:none"
             id="path158" /></g><g
           id="g160"
           transform="translate(1023.9434,763.8457)"><path
             d="m 0,0 c 0,0 -47.541,120.473 -27.166,231.436 0,0 60.235,-102.959 42.568,-231.436 z"
             style="fill:#4aaf96;fill-opacity:1;fill-rule:nonzero;stroke:none"
             id="path162" /></g><g
           id="g164"
           transform="translate(1005.8457,644.2988)"><path
             d="m 0,0 h 73.49 c 25.496,57.645 32.762,111.704 33.635,118.833 H -33.634 C -32.76,111.702 -25.492,57.637 0,0 M 74.418,-1.427 H -0.929 l -0.188,0.423 c -27.482,61.936 -33.967,119.896 -34.03,120.474 l -0.085,0.791 h 143.954 l -0.085,-0.791 c -0.063,-0.578 -6.549,-58.538 -34.03,-120.474 z"
             style="fill:#000000;fill-opacity:1;fill-rule:nonzero;stroke:none"
             id="path166" /></g><g
           id="g168"
           transform="translate(1429.6094,980.6055)"><path
             d="m 0,0 v 15.347 l 31.787,22.061 13.629,-8.774 c 0.117,-0.077 0.252,-0.114 0.386,-0.114 0.134,0 0.269,0.037 0.386,0.114 L 59.743,37.361 91.602,15.25 V 0 Z M 91.602,57.873 V 16.989 L 61.043,38.198 Z M 1.713,58.467 H 89.89 L 45.802,30.083 Z M 30.487,38.245 0,17.086 V 57.873 Z M 92.315,59.894 H -0.713 c -0.394,0 -0.714,-0.319 -0.714,-0.713 V -0.714 c 0,-0.394 0.32,-0.714 0.714,-0.714 h 93.028 c 0.395,0 0.714,0.32 0.714,0.714 v 59.895 c 0,0.394 -0.319,0.713 -0.714,0.713"
             style="fill:#000000;fill-opacity:1;fill-rule:nonzero;stroke:none"
             id="path170" /></g><g
           id="g172"
           transform="translate(808.4824,386.9834)"><path
             d="m 0,0 c -2.883,2.349 -6.228,4.535 -9.947,4.543 -6.447,0.012 -11.213,-6.841 -11.251,-13.287 -0.038,-6.446 3.316,-12.378 6.762,-17.826 11.595,-18.329 25.405,-35.256 41.034,-50.293 h 9.638 C 29.691,-49.261 21.996,-17.915 0,0"
             style="fill:#778d3b;fill-opacity:1;fill-rule:nonzero;stroke:none"
             id="path174" /></g><g
           id="g176"
           transform="translate(864.3667,400.3818)"><path
             d="m 0,0 c -5.468,5.951 -16.127,3.486 -21.104,-2.881 -4.977,-6.368 -5.729,-14.989 -5.884,-23.069 -0.411,-21.636 2.064,-43.325 7.34,-64.312 h 8.402 C 0.914,-67.363 6.333,-37.81 4.01,-11.987 3.625,-7.712 2.905,-3.161 0,0"
             style="fill:#778d3b;fill-opacity:1;fill-rule:nonzero;stroke:none"
             id="path178" /></g><g
           id="g180"
           transform="translate(1702.8506,359.5)"><path
             d="m 0,0 c -3.459,-1.662 -5.889,-4.872 -7.993,-8.082 -3.588,-5.475 -6.604,-11.588 -9.062,-17.949 1.576,19.941 0.392,40.428 -3.674,59.573 -1.811,8.526 -4.341,17.263 -10.123,23.786 -5.781,6.524 -15.634,10.174 -23.502,6.42 -11.565,-5.519 -11.915,-21.754 -9.372,-34.314 3.729,-18.411 9.976,-36.3 18.446,-53.066 -2.116,2.768 -4.326,5.432 -6.631,7.947 -2.761,3.012 -6.115,6.11 -10.201,6.11 -6.404,-0.001 -10.244,-8.149 -8.304,-14.252 1.94,-6.102 7.508,-10.245 12.952,-13.617 5.443,-3.372 10.519,-6.594 17.18,-12.075 h 10.492 0.406 6.049 3.093 11.007 c 9.612,6.777 26.443,17.603 28.927,29.098 C 22.176,-8.926 10.601,5.093 0,0"
             style="fill:#778d3b;fill-opacity:1;fill-rule:nonzero;stroke:none"
             id="path182" /></g><path
           d="m 1429.61,1074.146 h 225.887 v 84.542 H 1429.61 Z m 226.601,-1.427 h -227.315 c -0.394,0 -0.713,0.32 -0.713,0.714 v 85.969 c 0,0.395 0.319,0.714 0.713,0.714 h 227.315 c 0.394,0 0.714,-0.319 0.714,-0.714 v -85.969 c 0,-0.394 -0.32,-0.714 -0.714,-0.714"
           style="fill:#000000;fill-opacity:1;fill-rule:nonzero;stroke:none"
           id="path184" /><g
           id="g186"
           transform="translate(1635.9199,1095.6563)"><path
             d="M 0,0 -130.376,0.062 V 1.49 L 0,1.427 Z"
             style="fill:#000000;fill-opacity:1;fill-rule:nonzero;stroke:none"
             id="path188" /></g><g
           id="g190"
           transform="translate(1635.9199,1112.2627)"><path
             d="M 0,0 -130.376,0.063 V 1.49 L 0,1.427 Z"
             style="fill:#000000;fill-opacity:1;fill-rule:nonzero;stroke:none"
             id="path192" /></g><path
           d="m 1030.005,1127.155 h 23.615 v 21.509 h -23.615 z m 24.328,-1.427 h -25.041 c -0.395,0 -0.714,0.319 -0.714,0.713 v 22.937 c 0,0.394 0.319,0.714 0.714,0.714 h 25.041 c 0.395,0 0.714,-0.32 0.714,-0.714 v -22.937 c 0,-0.394 -0.319,-0.713 -0.714,-0.713"
           style="fill:#000000;fill-opacity:1;fill-rule:nonzero;stroke:none"
           id="path194" /><path
           d="m 1030.005,1084.171 h 23.615 v 21.509 h -23.615 z m 24.328,-1.427 h -25.041 c -0.395,0 -0.714,0.319 -0.714,0.714 v 22.936 c 0,0.395 0.319,0.714 0.714,0.714 h 25.041 c 0.395,0 0.714,-0.319 0.714,-0.714 v -22.936 c 0,-0.395 -0.319,-0.714 -0.714,-0.714"
           style="fill:#000000;fill-opacity:1;fill-rule:nonzero;stroke:none"
           id="path196" /><g
           id="g198"
           transform="translate(1120.7891,1125.6953)"><path
             d="M 0,0 -57.795,0.064 -57.792,1.492 0.003,1.427 Z"
             style="fill:#000000;fill-opacity:1;fill-rule:nonzero;stroke:none"
             id="path200" /></g><g
           id="g202"
           transform="translate(1120.7891,1137.1636)"><path
             d="M 0,0 -57.795,0.064 -57.792,1.492 0.003,1.428 Z"
             style="fill:#000000;fill-opacity:1;fill-rule:nonzero;stroke:none"
             id="path204" /></g><g
           id="g206"
           transform="translate(1120.7891,1082.7437)"><path
             d="M 0,0 -57.795,0.062 -57.792,1.49 0.003,1.427 Z"
             style="fill:#000000;fill-opacity:1;fill-rule:nonzero;stroke:none"
             id="path208" /></g><g
           id="g210"
           transform="translate(1120.7891,1094.2119)"><path
             d="M 0,0 -57.795,0.063 -57.792,1.49 0.003,1.427 Z"
             style="fill:#000000;fill-opacity:1;fill-rule:nonzero;stroke:none"
             id="path212" /></g><path
           d="m 1492,1091.789 h -46.861 v 46.861 H 1492 Z"
           style="fill:#e4dfe5;fill-opacity:1;fill-rule:nonzero;stroke:none"
           id="path214" /><g
           id="g216"
           transform="translate(1426.1768,1208.1499)"><path
             d="m 0,0 c -0.127,-0.104 -1.155,0.86 -2.993,2.782 -0.911,0.977 -2.031,2.176 -3.353,3.59 -1.294,1.445 -2.808,3.089 -4.655,4.807 -7.013,7.209 -17.927,16.973 -32.867,26.97 -3.643,2.639 -7.82,4.841 -11.997,7.408 -4.237,2.464 -8.836,4.695 -13.532,7.102 -4.862,2.061 -9.737,4.565 -15.065,6.394 -2.642,0.968 -5.292,2.035 -8.03,2.965 -2.765,0.853 -5.566,1.718 -8.403,2.593 -2.815,0.956 -5.765,1.556 -8.711,2.303 -2.96,0.695 -5.922,1.543 -8.998,2.012 -3.058,0.553 -6.148,1.112 -9.268,1.676 -3.149,0.371 -6.328,0.746 -9.536,1.123 -12.855,1.232 -26.28,1.345 -39.913,-0.037 -13.614,-1.569 -26.703,-4.554 -38.996,-8.509 -3.052,-1.056 -6.078,-2.103 -9.075,-3.139 -2.926,-1.22 -5.825,-2.427 -8.694,-3.622 -2.904,-1.117 -5.616,-2.579 -8.357,-3.891 -2.718,-1.361 -5.473,-2.579 -8.018,-4.115 -2.583,-1.463 -5.135,-2.908 -7.652,-4.333 -2.476,-1.494 -4.837,-3.104 -7.209,-4.615 -4.813,-2.927 -9.038,-6.417 -13.346,-9.471 -4.073,-3.357 -8.087,-6.52 -11.699,-9.835 -3.53,-3.401 -7.138,-6.447 -10.132,-9.804 -12.453,-12.965 -21.023,-24.839 -26.331,-33.383 -1.436,-2.073 -2.563,-4.003 -3.518,-5.692 -0.987,-1.664 -1.824,-3.075 -2.506,-4.224 -1.383,-2.271 -2.181,-3.432 -2.328,-3.359 -0.146,0.074 0.396,1.366 1.563,3.765 0.602,1.201 1.341,2.677 2.213,4.417 0.866,1.752 1.915,3.747 3.283,5.886 5.034,8.803 13.492,20.954 25.968,34.18 3,3.423 6.622,6.532 10.174,9.995 3.632,3.376 7.676,6.599 11.784,10.013 4.343,3.112 8.611,6.655 13.473,9.634 2.397,1.538 4.783,3.172 7.287,4.69 2.545,1.449 5.125,2.916 7.739,4.403 2.574,1.558 5.36,2.797 8.111,4.178 2.775,1.333 5.521,2.815 8.46,3.95 2.905,1.213 5.84,2.438 8.805,3.675 3.035,1.052 6.098,2.114 9.191,3.185 12.453,4.014 25.722,7.04 39.527,8.63 13.825,1.402 27.434,1.288 40.458,0.034 3.25,-0.385 6.47,-0.767 9.661,-1.144 3.16,-0.574 6.289,-1.142 9.386,-1.705 3.115,-0.479 6.115,-1.338 9.11,-2.046 2.983,-0.761 5.969,-1.374 8.818,-2.346 2.87,-0.892 5.705,-1.773 8.502,-2.643 2.771,-0.947 5.451,-2.032 8.121,-3.021 5.388,-1.868 10.316,-4.416 15.224,-6.526 4.744,-2.455 9.384,-4.737 13.655,-7.258 4.211,-2.622 8.415,-4.884 12.078,-7.585 C -27.573,29.81 -16.709,19.751 -9.907,12.229 -8.113,10.434 -6.661,8.71 -5.439,7.183 -4.215,5.67 -3.178,4.387 -2.333,3.343 -0.679,1.249 0.127,0.103 0,0"
             style="fill:#3a3d40;fill-opacity:1;fill-rule:nonzero;stroke:none"
             id="path218" /></g><g
           id="g220"
           transform="translate(1605.3662,1043.9131)"><path
             d="m 0,0 c 0.269,0.117 1.642,-2.263 3.222,-6.948 1.492,-4.681 3.29,-11.735 3.11,-20.671 -0.099,-4.446 -0.726,-9.372 -2.501,-14.378 -1.735,-5.061 -5.123,-9.96 -9.788,-13.731 -4.612,-3.774 -10.694,-6.642 -17.431,-6.582 -3.343,0.034 -6.752,0.887 -9.798,2.635 -3.165,1.937 -5.228,5.163 -6.169,8.636 -0.48,1.744 -0.697,3.578 -0.442,5.426 0.236,1.824 0.957,3.739 2.417,5.128 2.95,2.788 7.715,2.609 10.491,0.062 2.753,-2.473 3.837,-5.763 4.536,-8.826 0.644,-3.105 0.768,-6.249 0.374,-9.242 -1.477,-11.645 -5.227,-21.793 -10.148,-29.267 -4.932,-7.527 -11.383,-11.797 -16.194,-13.238 -2.428,-0.67 -4.352,-1.001 -5.676,-0.934 -1.315,-0.014 -1.993,0.058 -1.998,0.222 -0.006,0.164 0.659,0.379 1.901,0.638 1.254,0.178 3.042,0.71 5.265,1.503 4.394,1.706 10.2,5.814 14.779,13.064 4.554,7.199 8.12,17.046 9.507,28.321 0.352,2.728 0.227,5.585 -0.359,8.391 -0.603,2.756 -1.69,5.636 -3.696,7.383 -0.987,0.864 -2.177,1.338 -3.471,1.337 -1.338,0.013 -2.61,-0.472 -3.5,-1.313 -1.821,-1.742 -2.099,-5.095 -1.254,-7.969 0.774,-2.924 2.573,-5.613 4.976,-7.066 2.59,-1.482 5.569,-2.246 8.495,-2.273 5.914,-0.072 11.508,2.495 15.767,5.97 4.321,3.47 7.446,7.939 9.076,12.564 1.708,4.674 2.373,9.349 2.546,13.614 C 4.374,-18.971 2.876,-12.049 1.765,-7.37 0.57,-2.684 -0.335,-0.138 0,0"
             style="fill:#3a3d40;fill-opacity:1;fill-rule:nonzero;stroke:none"
             id="path222" /></g><g
           id="g224"
           transform="translate(1290.3955,1102.7847)"><path
             d="m 0,0 c 0,0 -12.29,-16.52 -31.81,-0.252 0,0 3.372,-33.129 31.953,-25.553 0,0 -1.645,10.455 -0.143,25.805"
             style="fill:#d07b61;fill-opacity:1;fill-rule:nonzero;stroke:none"
             id="path226" /></g><g
           id="g228"
           transform="translate(1299.5645,1157.0728)"><path
             d="m 0,0 c -3.378,5.472 -28.834,19.746 -40.016,18.081 -11.181,-1.665 -16.654,-23.791 -13.085,-51.15 0,0 1.867,4.089 3.725,9.144 -5.703,5.454 -3.906,13.423 0.371,15.646 5.923,3.089 9.585,-2.511 10.294,-3.73 2.37,0.99 5.27,2.629 8.687,5.347 0,0 28.168,-18.035 30.024,-5.567 0,0 3.377,6.757 0,12.229"
             style="fill:#39302a;fill-opacity:1;fill-rule:nonzero;stroke:none"
             id="path230" /></g></g></g></g></svg>
