<?xml version="1.0" encoding="UTF-8" standalone="no"?>
<!-- Created with Inkscape (http://www.inkscape.org/) -->

<svg
   version="1.1"
   id="svg2"
   xml:space="preserve"
   width="3120"
   height="2080"
   viewBox="0 0 3120 2080"
   sodipodi:docname="Online Book Library illustration 1.ai"
   xmlns:inkscape="http://www.inkscape.org/namespaces/inkscape"
   xmlns:sodipodi="http://sodipodi.sourceforge.net/DTD/sodipodi-0.dtd"
   xmlns="http://www.w3.org/2000/svg"
   xmlns:svg="http://www.w3.org/2000/svg"><defs
     id="defs6"><clipPath
       clipPathUnits="userSpaceOnUse"
       id="clipPath18"><path
         d="M 0,1560 H 2340 V 0 H 0 Z"
         id="path16" /></clipPath></defs><sodipodi:namedview
     id="namedview4"
     pagecolor="#ffffff"
     bordercolor="#666666"
     borderopacity="1.0"
     inkscape:pageshadow="2"
     inkscape:pageopacity="0.0"
     inkscape:pagecheckerboard="0" /><g
     id="g8"
     inkscape:groupmode="layer"
     inkscape:label="Online Book Library illustration 1"
     transform="matrix(1.3333333,0,0,-1.3333333,0,2080)"><path
       d="M 0,0 H 2340 V 1560 H 0 Z"
       style="fill:#ffffff;fill-opacity:1;fill-rule:nonzero;stroke:none"
       id="path10" /><g
       id="g12"><g
         id="g14"
         clip-path="url(#clipPath18)"><g
           id="g20"
           transform="translate(1019.5366,285.3779)"><path
             d="m 0,0 c 42.329,133.576 84.509,272.925 98.674,412.329 14.164,139.404 1.585,284.167 -56.987,411.46 -19.597,42.588 -50.029,87.065 -96.345,94.322 -63.293,9.917 -114.835,-58.537 -118.516,-122.497 -3.68,-63.96 23.32,-125.171 36.405,-187.885 30.129,-144.396 -13.607,-298.15 25.978,-440.245 -61.998,129.718 -34.63,282.57 -54.175,425.008 -6.002,43.741 -17.66,88.994 -47.878,121.186 -30.217,32.191 -83.645,46.074 -119.556,20.388 -33.448,-23.925 -40.049,-70.61 -39.218,-111.725 1.771,-87.526 24.284,-174.564 65.175,-251.97 43.091,-81.572 107.939,-158.128 110.57,-250.345 -7.269,51.829 -16.353,107.477 -53.092,144.75 -36.74,37.274 -105.847,41.41 -133.745,-6.959 C -445.462,149.021 -295.379,30.187 -234.668,0 Z"
             style="fill:#ddeae8;fill-opacity:1;fill-rule:nonzero;stroke:none"
             id="path22" /></g><g
           id="g24"
           transform="translate(1558.6338,285.5459)"><path
             d="m 0,0 h -514.057 c -14.683,0 -26.586,11.902 -26.586,26.585 v 937.136 c 0,14.683 11.903,26.586 26.586,26.586 H 0 c 14.683,0 26.585,-11.903 26.585,-26.586 V 26.585 C 26.585,11.902 14.683,0 0,0"
             style="fill:#39302a;fill-opacity:1;fill-rule:nonzero;stroke:none"
             id="path26" /></g><g
           id="g28"
           transform="translate(1553.1172,303.8408)"><path
             d="m 0,0 h -504.413 c -8.512,0 -15.412,6.9 -15.412,15.413 v 923.354 c 0,8.512 6.9,15.412 15.412,15.412 H 0 c 8.513,0 15.413,-6.9 15.413,-15.412 V 15.413 C 15.413,6.9 8.513,0 0,0"
             style="fill:#f3f1f0;fill-opacity:1;fill-rule:nonzero;stroke:none"
             id="path30" /></g><g
           id="g32"
           transform="translate(1406.873,1229.9321)"><path
             d="m 0,0 h -210.536 c -16.519,0 -29.908,13.391 -29.908,29.908 v 0.985 c 0,0.651 0.528,1.181 1.181,1.181 H 28.728 c 0.651,0 1.18,-0.53 1.18,-1.181 V 29.908 C 29.908,13.391 16.518,0 0,0"
             style="fill:#39302a;fill-opacity:1;fill-rule:nonzero;stroke:none"
             id="path34" /></g><g
           id="g36"
           transform="translate(1201.1973,1251.1733)"><path
             d="m 0,0 c 0,-2.318 -1.879,-4.197 -4.197,-4.197 -2.319,0 -4.198,1.879 -4.198,4.197 0,2.318 1.879,4.198 4.198,4.198 C -1.879,4.198 0,2.318 0,0"
             style="fill:#ffffff;fill-opacity:1;fill-rule:nonzero;stroke:none"
             id="path38" /></g><path
           d="m 1133.85,961.948 h -46.585 v 210.094 h 46.585 z"
           style="fill:#f9b300;fill-opacity:1;fill-rule:nonzero;stroke:none"
           id="path40" /><path
           d="m 1354.015,961.948 h -34.816 v 210.094 h 34.816 z"
           style="fill:#dc6e36;fill-opacity:1;fill-rule:nonzero;stroke:none"
           id="path42" /><path
           d="m 1381.398,961.948 h -23.918 v 142.221 h 23.918 z"
           style="fill:#a50000;fill-opacity:1;fill-rule:nonzero;stroke:none"
           id="path44" /><path
           d="m 1232.979,961.948 h -46.586 v 210.094 h 46.586 z"
           style="fill:#00c89d;fill-opacity:1;fill-rule:nonzero;stroke:none"
           id="path46" /><path
           d="m 1268.263,961.948 h -31.939 v 162.121 h 31.939 z"
           style="fill:#ffbe00;fill-opacity:1;fill-rule:nonzero;stroke:none"
           id="path48" /><path
           d="m 1127.403,968.501 h -33.692 v 117.309 h 33.692 z"
           style="fill:#ff4e00;fill-opacity:1;fill-rule:nonzero;stroke:none"
           id="path50" /><path
           d="m 1127.403,1135.22 h -33.692 v 29.389 h 33.692 z"
           style="fill:#ff4e00;fill-opacity:1;fill-rule:nonzero;stroke:none"
           id="path52" /><path
           d="m 1454.431,961.948 h -30.846 v 210.094 h 30.846 z"
           style="fill:#f9b300;fill-opacity:1;fill-rule:nonzero;stroke:none"
           id="path54" /><path
           d="m 1450.162,968.501 h -22.309 v 117.309 h 22.309 z"
           style="fill:#ff4e00;fill-opacity:1;fill-rule:nonzero;stroke:none"
           id="path56" /><path
           d="m 1450.162,1135.22 h -22.309 v 29.389 h 22.309 z"
           style="fill:#ff4e00;fill-opacity:1;fill-rule:nonzero;stroke:none"
           id="path58" /><path
           d="m 1183.383,961.948 h -46.585 v 202.661 h 46.585 z"
           style="fill:#3c45b3;fill-opacity:1;fill-rule:nonzero;stroke:none"
           id="path60" /><path
           d="m 1420.505,961.948 h -35.574 v 210.094 h 35.574 z"
           style="fill:#ff4e00;fill-opacity:1;fill-rule:nonzero;stroke:none"
           id="path62" /><path
           d="m 1176.937,968.501 h -33.692 v 8.889 h 33.692 z"
           style="fill:#d1d8dc;fill-opacity:1;fill-rule:nonzero;stroke:none"
           id="path64" /><path
           d="m 1176.937,1027.156 h -33.692 v 8.888 h 33.692 z"
           style="fill:#d1d8dc;fill-opacity:1;fill-rule:nonzero;stroke:none"
           id="path66" /><path
           d="m 1263.816,975.872 h -23.047 v 121.376 h 23.047 z"
           style="fill:#fed174;fill-opacity:1;fill-rule:nonzero;stroke:none"
           id="path68" /><path
           d="m 1511.98,961.948 h -52.644 v 162.121 h 52.644 z"
           style="fill:#00c89d;fill-opacity:1;fill-rule:nonzero;stroke:none"
           id="path70" /><path
           d="m 1321.966,428.113 h -52.645 v 188.009 h 52.645 z"
           style="fill:#00c89d;fill-opacity:1;fill-rule:nonzero;stroke:none"
           id="path72" /><path
           d="m 1521.006,428.113 h -62.349 v 23.657 h 62.349 z"
           style="fill:#8c0000;fill-opacity:1;fill-rule:nonzero;stroke:none"
           id="path74" /><path
           d="M 1458.657,428.113 H 1347.86 v 23.657 h 110.797 z"
           style="fill:#a50000;fill-opacity:1;fill-rule:nonzero;stroke:none"
           id="path76" /><path
           d="m 1447.146,428.113 h -17.881 v 23.657 h 17.881 z"
           style="fill:#c02929;fill-opacity:1;fill-rule:nonzero;stroke:none"
           id="path78" /><path
           d="M 1419.391,431.984 H 1356.25 V 447.9 h 63.141 z"
           style="fill:#c02929;fill-opacity:1;fill-rule:nonzero;stroke:none"
           id="path80" /><path
           d="m 1515.838,451.771 h -62.349 v 28.277 h 62.349 z"
           style="fill:#ec4000;fill-opacity:1;fill-rule:nonzero;stroke:none"
           id="path82" /><path
           d="m 1453.489,451.771 h -110.798 v 28.277 h 110.798 z"
           style="fill:#ff4e00;fill-opacity:1;fill-rule:nonzero;stroke:none"
           id="path84" /><path
           d="m 1509.469,495.775 h -62.349 v 37.428 h 62.349 z"
           style="fill:#c96233;fill-opacity:1;fill-rule:nonzero;stroke:none"
           id="path86" /><path
           d="m 1447.12,495.775 h -110.797 v 37.428 h 110.797 z"
           style="fill:#dc6e36;fill-opacity:1;fill-rule:nonzero;stroke:none"
           id="path88" /><path
           d="m 1431.853,495.775 h -22.16 v 37.428 h 22.16 z"
           style="fill:#d1d8dc;fill-opacity:1;fill-rule:nonzero;stroke:none"
           id="path90" /><path
           d="m 1402.802,501.838 h -60.386 v 25.302 h 60.386 z"
           style="fill:#d1d8dc;fill-opacity:1;fill-rule:nonzero;stroke:none"
           id="path92" /><path
           d="m 1522.545,480.048 h -62.349 v 15.728 h 62.349 z"
           style="fill:#283e85;fill-opacity:1;fill-rule:nonzero;stroke:none"
           id="path94" /><path
           d="m 1460.196,480.048 h -110.797 v 15.728 h 110.797 z"
           style="fill:#3c45b3;fill-opacity:1;fill-rule:nonzero;stroke:none"
           id="path96" /><path
           d="m 1450.8,484.158 h -92.004 v 7.506 h 92.004 z"
           style="fill:#5361be;fill-opacity:1;fill-rule:nonzero;stroke:none"
           id="path98" /><path
           d="m 1444.564,451.771 h -5.176 v 28.277 h 5.176 z"
           style="fill:#d1d8dc;fill-opacity:1;fill-rule:nonzero;stroke:none"
           id="path100" /><path
           d="m 1431.853,451.771 h -5.176 v 28.277 h 5.176 z"
           style="fill:#d1d8dc;fill-opacity:1;fill-rule:nonzero;stroke:none"
           id="path102" /><path
           d="m 1414.223,456.397 h -63.142 v 19.023 h 63.142 z"
           style="fill:#d1d8dc;fill-opacity:1;fill-rule:nonzero;stroke:none"
           id="path104" /><path
           d="m 1504.653,975.872 h -37.989 v 133.25 h 37.989 z"
           style="fill:#d1d8dc;fill-opacity:1;fill-rule:nonzero;stroke:none"
           id="path106" /><path
           d="m 1348.13,1020.91 h -23.048 v 137.027 h 23.048 z"
           style="fill:#d1d8dc;fill-opacity:1;fill-rule:nonzero;stroke:none"
           id="path108" /><path
           d="m 1410.955,975.872 h -16.475 v 182.065 h 16.475 z"
           style="fill:#ff753c;fill-opacity:1;fill-rule:nonzero;stroke:none"
           id="path110" /><path
           d="m 1354.015,1000.508 h -34.816 v 6.515 h 34.816 z"
           style="fill:#d1d8dc;fill-opacity:1;fill-rule:nonzero;stroke:none"
           id="path112" /><path
           d="m 1381.398,975.872 h -23.918 v 3.257 h 23.918 z"
           style="fill:#d1d8dc;fill-opacity:1;fill-rule:nonzero;stroke:none"
           id="path114" /><path
           d="m 1381.398,1086.166 h -23.918 v 3.257 h 23.918 z"
           style="fill:#d1d8dc;fill-opacity:1;fill-rule:nonzero;stroke:none"
           id="path116" /><path
           d="m 1354.015,995.806 h -34.816 v -16.335 h 34.816 z"
           style="fill:#d1d8dc;fill-opacity:1;fill-rule:nonzero;stroke:none"
           id="path118" /><g
           id="g120"
           transform="translate(1303.665,961.9482)"><path
             d="m 0,0 -35.402,2.626 14.991,202.105 35.403,-2.626 z"
             style="fill:#3c45b3;fill-opacity:1;fill-rule:nonzero;stroke:none"
             id="path122" /></g><g
           id="g124"
           transform="translate(1304.6953,975.833)"><path
             d="m 0,0 -35.403,2.626 2.388,32.201 35.404,-2.626 z"
             style="fill:#283e85;fill-opacity:1;fill-rule:nonzero;stroke:none"
             id="path126" /></g><g
           id="g128"
           transform="translate(1314.4639,1107.5249)"><path
             d="m 0,0 -35.403,2.626 2.388,32.201 35.404,-2.626 z"
             style="fill:#283e85;fill-opacity:1;fill-rule:nonzero;stroke:none"
             id="path130" /></g><path
           d="m 1176.937,1085.811 h -33.692 v 8.889 h 33.692 z"
           style="fill:#d1d8dc;fill-opacity:1;fill-rule:nonzero;stroke:none"
           id="path132" /><path
           d="m 1176.937,1114.414 h -33.692 v 43.024 h 33.692 z"
           style="fill:#d1d8dc;fill-opacity:1;fill-rule:nonzero;stroke:none"
           id="path134" /><path
           d="m 1232.979,968.501 h -46.586 v 8.889 h 46.586 z"
           style="fill:#61d5e3;fill-opacity:1;fill-rule:nonzero;stroke:none"
           id="path136" /><path
           d="m 1232.979,983.943 h -46.586 v 8.889 h 46.586 z"
           style="fill:#61d5e3;fill-opacity:1;fill-rule:nonzero;stroke:none"
           id="path138" /><path
           d="m 1544.69,961.254 h -486.17 v 1.388 h 486.17 z"
           style="fill:#000000;fill-opacity:1;fill-rule:nonzero;stroke:none"
           id="path140" /><path
           d="m 1544.69,949.079 h -486.17 v 1.388 h 486.17 z"
           style="fill:#000000;fill-opacity:1;fill-rule:nonzero;stroke:none"
           id="path142" /><path
           d="m 1127.401,688.943 h -46.585 v 210.094 h 46.585 z"
           style="fill:#00c89d;fill-opacity:1;fill-rule:nonzero;stroke:none"
           id="path144" /><path
           d="m 1276.675,688.943 h -34.816 v 210.094 h 34.816 z"
           style="fill:#3c45b3;fill-opacity:1;fill-rule:nonzero;stroke:none"
           id="path146" /><path
           d="m 1303.467,688.943 h -23.918 v 195.489 h 23.918 z"
           style="fill:#a50000;fill-opacity:1;fill-rule:nonzero;stroke:none"
           id="path148" /><g
           id="g150"
           transform="translate(1205.7842,692.5957)"><path
             d="m 0,0 -29.746,-3.695 -21.933,176.578 29.745,3.695 z"
             style="fill:#ff4e00;fill-opacity:1;fill-rule:nonzero;stroke:none"
             id="path152" /></g><g
           id="g154"
           transform="translate(1241.1641,693.1445)"><path
             d="m 0,0 -31.662,-4.201 -21.328,160.712 31.661,4.201 z"
             style="fill:#a50000;fill-opacity:1;fill-rule:nonzero;stroke:none"
             id="path156" /></g><path
           d="m 1120.955,732.008 h -33.692 v 142.167 h 33.692 z"
           style="fill:#d1d8dc;fill-opacity:1;fill-rule:nonzero;stroke:none"
           id="path158" /><path
           d="m 1120.955,884.433 h -33.692 v 7.171 h 33.692 z"
           style="fill:#d1d8dc;fill-opacity:1;fill-rule:nonzero;stroke:none"
           id="path160" /><path
           d="m 1127.401,716.656 h -46.585 v 7.171 h 46.585 z"
           style="fill:#d1d8dc;fill-opacity:1;fill-rule:nonzero;stroke:none"
           id="path162" /><path
           d="m 1127.401,698.384 h -46.585 v 15.252 h 46.585 z"
           style="fill:#d1d8dc;fill-opacity:1;fill-rule:nonzero;stroke:none"
           id="path164" /><path
           d="m 1376.795,688.943 h -30.846 v 210.094 h 30.846 z"
           style="fill:#00c89d;fill-opacity:1;fill-rule:nonzero;stroke:none"
           id="path166" /><path
           d="m 1372.526,695.496 h -22.309 v 117.31 h 22.309 z"
           style="fill:#61d5e3;fill-opacity:1;fill-rule:nonzero;stroke:none"
           id="path168" /><path
           d="m 1372.526,862.215 h -22.309 v 29.389 h 22.309 z"
           style="fill:#61d5e3;fill-opacity:1;fill-rule:nonzero;stroke:none"
           id="path170" /><path
           d="m 1153.642,688.943 h -23.292 v 202.66 h 23.292 z"
           style="fill:#dc6e36;fill-opacity:1;fill-rule:nonzero;stroke:none"
           id="path172" /><path
           d="m 1342.416,688.943 h -35.573 v 210.094 h 35.573 z"
           style="fill:#dc6e36;fill-opacity:1;fill-rule:nonzero;stroke:none"
           id="path174" /><path
           d="m 1153.642,695.496 h -23.292 v 8.889 h 23.292 z"
           style="fill:#d1d8dc;fill-opacity:1;fill-rule:nonzero;stroke:none"
           id="path176" /><path
           d="m 1153.642,786.864 h -23.292 v 8.889 h 23.292 z"
           style="fill:#d1d8dc;fill-opacity:1;fill-rule:nonzero;stroke:none"
           id="path178" /><g
           id="g180"
           transform="translate(1234.9248,706.3623)"><path
             d="m 0,0 -22.847,-3.032 -17.53,132.091 22.847,3.032 z"
             style="fill:#c02929;fill-opacity:1;fill-rule:nonzero;stroke:none"
             id="path182" /></g><path
           d="m 1433.102,688.943 h -52.645 V 841.32 h 52.645 z"
           style="fill:#ff4e00;fill-opacity:1;fill-rule:nonzero;stroke:none"
           id="path184" /><path
           d="m 1425.773,702.029 h -37.988 V 827.27 h 37.988 z"
           style="fill:#ff753c;fill-opacity:1;fill-rule:nonzero;stroke:none"
           id="path186" /><path
           d="m 1270.79,747.904 h -23.047 v 137.027 h 23.047 z"
           style="fill:#d1d8dc;fill-opacity:1;fill-rule:nonzero;stroke:none"
           id="path188" /><path
           d="m 1339.479,836.116 h -29.697 v 48.815 h 29.697 z"
           style="fill:#d1d8dc;fill-opacity:1;fill-rule:nonzero;stroke:none"
           id="path190" /><path
           d="m 1521.006,688.943 h -35.573 v 210.094 h 35.573 z"
           style="fill:#a50000;fill-opacity:1;fill-rule:nonzero;stroke:none"
           id="path192" /><path
           d="m 1518.067,883.187 h -29.696 v 3.769 h 29.696 z"
           style="fill:#d1d8dc;fill-opacity:1;fill-rule:nonzero;stroke:none"
           id="path194" /><path
           d="m 1518.067,871.478 h -29.696 v 3.769 h 29.696 z"
           style="fill:#d1d8dc;fill-opacity:1;fill-rule:nonzero;stroke:none"
           id="path196" /><path
           d="m 1518.067,797.96 h -29.696 v 3.768 h 29.696 z"
           style="fill:#d1d8dc;fill-opacity:1;fill-rule:nonzero;stroke:none"
           id="path198" /><path
           d="m 1518.067,786.251 h -29.696 v 3.768 h 29.696 z"
           style="fill:#d1d8dc;fill-opacity:1;fill-rule:nonzero;stroke:none"
           id="path200" /><path
           d="m 1518.067,712.733 h -29.696 v 3.769 h 29.696 z"
           style="fill:#d1d8dc;fill-opacity:1;fill-rule:nonzero;stroke:none"
           id="path202" /><path
           d="m 1518.067,701.024 h -29.696 v 3.769 h 29.696 z"
           style="fill:#d1d8dc;fill-opacity:1;fill-rule:nonzero;stroke:none"
           id="path204" /><path
           d="m 1339.479,695.496 h -29.697 v 4.444 h 29.697 z"
           style="fill:#d1d8dc;fill-opacity:1;fill-rule:nonzero;stroke:none"
           id="path206" /><path
           d="m 1339.479,704.243 h -29.697 v 4.444 h 29.697 z"
           style="fill:#d1d8dc;fill-opacity:1;fill-rule:nonzero;stroke:none"
           id="path208" /><path
           d="m 1276.675,727.503 h -34.816 v 6.515 h 34.816 z"
           style="fill:#d1d8dc;fill-opacity:1;fill-rule:nonzero;stroke:none"
           id="path210" /><path
           d="m 1303.467,708.081 h -23.918 v 4.478 h 23.918 z"
           style="fill:#d1d8dc;fill-opacity:1;fill-rule:nonzero;stroke:none"
           id="path212" /><path
           d="m 1303.467,859.686 h -23.918 v 4.478 h 23.918 z"
           style="fill:#d1d8dc;fill-opacity:1;fill-rule:nonzero;stroke:none"
           id="path214" /><path
           d="m 1276.675,722.801 h -34.816 v -16.336 h 34.816 z"
           style="fill:#d1d8dc;fill-opacity:1;fill-rule:nonzero;stroke:none"
           id="path216" /><g
           id="g218"
           transform="translate(1470.4209,688.9434)"><path
             d="m 0,0 -35.402,2.626 14.991,202.105 35.403,-2.626 z"
             style="fill:#3c45b3;fill-opacity:1;fill-rule:nonzero;stroke:none"
             id="path220" /></g><g
           id="g222"
           transform="translate(1471.4512,702.8281)"><path
             d="M 0,0 -35.402,2.626 -33.015,34.827 2.389,32.2 Z"
             style="fill:#283e85;fill-opacity:1;fill-rule:nonzero;stroke:none"
             id="path224" /></g><g
           id="g226"
           transform="translate(1481.2197,834.5195)"><path
             d="m 0,0 -35.402,2.626 2.388,32.201 35.403,-2.626 z"
             style="fill:#283e85;fill-opacity:1;fill-rule:nonzero;stroke:none"
             id="path228" /></g><path
           d="m 1153.642,869.73 h -23.292 v 8.889 h 23.292 z"
           style="fill:#d1d8dc;fill-opacity:1;fill-rule:nonzero;stroke:none"
           id="path230" /><g
           id="g232"
           transform="translate(1186.21,690.373)"><path
             d="m 0,0 -4.993,-0.62 -21.908,176.372 4.994,0.62 z"
             style="fill:#ff753c;fill-opacity:1;fill-rule:nonzero;stroke:none"
             id="path234" /></g><g
           id="g236"
           transform="translate(1201.625,692.2881)"><path
             d="m 0,0 -4.994,-0.621 -21.907,176.372 4.993,0.621 z"
             style="fill:#ff753c;fill-opacity:1;fill-rule:nonzero;stroke:none"
             id="path238" /></g><path
           d="m 1115.632,428.155 h -34.816 V 638.25 h 34.816 z"
           style="fill:#a50000;fill-opacity:1;fill-rule:nonzero;stroke:none"
           id="path240" /><path
           d="m 1142.424,428.155 h -23.918 v 195.49 h 23.918 z"
           style="fill:#a50000;fill-opacity:1;fill-rule:nonzero;stroke:none"
           id="path242" /><g
           id="g244"
           transform="translate(1268.7422,432.3574)"><path
             d="m 0,0 -31.661,-4.202 -21.328,160.713 31.661,4.201 z"
             style="fill:#a50000;fill-opacity:1;fill-rule:nonzero;stroke:none"
             id="path246" /></g><path
           d="m 1215.753,428.155 h -30.847 V 638.25 h 30.847 z"
           style="fill:#3c45b3;fill-opacity:1;fill-rule:nonzero;stroke:none"
           id="path248" /><path
           d="m 1211.484,434.709 h -22.31 v 117.309 h 22.31 z"
           style="fill:#283e85;fill-opacity:1;fill-rule:nonzero;stroke:none"
           id="path250" /><path
           d="m 1211.484,601.428 h -22.31 v 29.389 h 22.31 z"
           style="fill:#283e85;fill-opacity:1;fill-rule:nonzero;stroke:none"
           id="path252" /><path
           d="M 1181.374,428.155 H 1145.8 V 638.25 h 35.574 z"
           style="fill:#ffbe00;fill-opacity:1;fill-rule:nonzero;stroke:none"
           id="path254" /><g
           id="g256"
           transform="translate(1262.5039,445.5742)"><path
             d="m 0,0 -22.848,-3.031 -17.53,132.091 22.848,3.032 z"
             style="fill:#c02929;fill-opacity:1;fill-rule:nonzero;stroke:none"
             id="path258" /></g><path
           d="M 1109.748,487.117 H 1086.7 v 137.026 h 23.048 z"
           style="fill:#d1d8dc;fill-opacity:1;fill-rule:nonzero;stroke:none"
           id="path260" /><path
           d="m 1178.436,575.328 h -29.697 v 48.815 h 29.697 z"
           style="fill:#ff4e00;fill-opacity:1;fill-rule:nonzero;stroke:none"
           id="path262" /><path
           d="m 1178.436,434.709 h -29.697 v 4.444 h 29.697 z"
           style="fill:#ff4e00;fill-opacity:1;fill-rule:nonzero;stroke:none"
           id="path264" /><path
           d="m 1178.436,443.456 h -29.697 v 4.444 h 29.697 z"
           style="fill:#ff4e00;fill-opacity:1;fill-rule:nonzero;stroke:none"
           id="path266" /><path
           d="m 1115.632,466.716 h -34.816 v 6.515 h 34.816 z"
           style="fill:#d1d8dc;fill-opacity:1;fill-rule:nonzero;stroke:none"
           id="path268" /><path
           d="m 1142.424,447.294 h -23.918 v 4.477 h 23.918 z"
           style="fill:#d1d8dc;fill-opacity:1;fill-rule:nonzero;stroke:none"
           id="path270" /><path
           d="m 1142.424,598.898 h -23.918 v 4.478 h 23.918 z"
           style="fill:#d1d8dc;fill-opacity:1;fill-rule:nonzero;stroke:none"
           id="path272" /><path
           d="m 1115.632,462.014 h -34.816 v -16.336 h 34.816 z"
           style="fill:#d1d8dc;fill-opacity:1;fill-rule:nonzero;stroke:none"
           id="path274" /><path
           d="m 1544.69,688.249 h -486.17 v 1.388 h 486.17 z"
           style="fill:#000000;fill-opacity:1;fill-rule:nonzero;stroke:none"
           id="path276" /><path
           d="m 1544.69,676.074 h -486.17 v 1.388 h 486.17 z"
           style="fill:#000000;fill-opacity:1;fill-rule:nonzero;stroke:none"
           id="path278" /><path
           d="m 1544.69,427.419 h -486.17 v 1.388 h 486.17 z"
           style="fill:#000000;fill-opacity:1;fill-rule:nonzero;stroke:none"
           id="path280" /><path
           d="m 1544.69,415.244 h -486.17 v 1.388 h 486.17 z"
           style="fill:#000000;fill-opacity:1;fill-rule:nonzero;stroke:none"
           id="path282" /><path
           d="m 1311.938,561.461 h -32.588 v 47.646 h 32.588 z"
           style="fill:#61d5e3;fill-opacity:1;fill-rule:nonzero;stroke:none"
           id="path284" /><path
           d="m 1311.938,552.018 h -32.588 v 5.008 h 32.588 z"
           style="fill:#61d5e3;fill-opacity:1;fill-rule:nonzero;stroke:none"
           id="path286" /><path
           d="M 1524.351,380.536 H 1078.86 v 5.146 h 445.491 z"
           style="fill:#d1d8dc;fill-opacity:1;fill-rule:nonzero;stroke:none"
           id="path288" /><path
           d="M 1524.351,353.301 H 1078.86 v 5.146 h 445.491 z"
           style="fill:#d1d8dc;fill-opacity:1;fill-rule:nonzero;stroke:none"
           id="path290" /><g
           id="g292"
           transform="translate(827.3408,284.8398)"><path
             d="M 0,0 -5.551,447.753 H 9.506 V 0 Z"
             style="fill:#dc6e36;fill-opacity:1;fill-rule:nonzero;stroke:none"
             id="path294" /></g><g
           id="g296"
           transform="translate(940.4741,284.8398)"><path
             d="M 0,0 -19.428,447.753 H -4.372 L 9.506,0 Z"
             style="fill:#dc6e36;fill-opacity:1;fill-rule:nonzero;stroke:none"
             id="path298" /></g><g
           id="g300"
           transform="translate(821.79,732.5928)"><path
             d="M 0,0 V -8.427 L 15.057,-45.578 V 0 Z"
             style="fill:#bf572f;fill-opacity:1;fill-rule:nonzero;stroke:none"
             id="path302" /></g><g
           id="g304"
           transform="translate(921.0459,732.5928)"><path
             d="M 0,0 V -8.427 L 16.469,-45.578 15.057,0 Z"
             style="fill:#bf572f;fill-opacity:1;fill-rule:nonzero;stroke:none"
             id="path306" /></g><g
           id="g308"
           transform="translate(662.2944,284.8398)"><path
             d="M 0,0 16.941,447.753 H 31.998 L 9.505,0 Z"
             style="fill:#dc6e36;fill-opacity:1;fill-rule:nonzero;stroke:none"
             id="path310" /></g><g
           id="g312"
           transform="translate(781.2671,284.8398)"><path
             d="M 0,0 -2.775,447.753 H 12.281 L 9.506,0 Z"
             style="fill:#dc6e36;fill-opacity:1;fill-rule:nonzero;stroke:none"
             id="path314" /></g><g
           id="g316"
           transform="translate(679.2354,732.5928)"><path
             d="M 0,0 V -8.427 L 12.722,-46.472 15.057,0 Z"
             style="fill:#cd6233;fill-opacity:1;fill-rule:nonzero;stroke:none"
             id="path318" /></g><g
           id="g320"
           transform="translate(778.4917,732.5928)"><path
             d="M 0,0 V -8.427 L 14.774,-45.578 15.057,0 Z"
             style="fill:#cd6233;fill-opacity:1;fill-rule:nonzero;stroke:none"
             id="path322" /></g><path
           d="M 952.283,732.593 H 786.02 v 24.645 h 166.263 z"
           style="fill:#cd6233;fill-opacity:1;fill-rule:nonzero;stroke:none"
           id="path324" /><path
           d="M 832.052,493.144 H 680.54 v 12.321 h 151.512 z"
           style="fill:#dc6e36;fill-opacity:1;fill-rule:nonzero;stroke:none"
           id="path326" /><g
           id="g328"
           transform="translate(935.7803,493.1436)"><path
             d="M 0,0 H -98.934 V 12.321 H -0.535 Z"
             style="fill:#cd6233;fill-opacity:1;fill-rule:nonzero;stroke:none"
             id="path330" /></g><path
           d="M 832.052,381.412 H 672.618 v 12.322 h 159.434 z"
           style="fill:#dc6e36;fill-opacity:1;fill-rule:nonzero;stroke:none"
           id="path332" /><g
           id="g334"
           transform="translate(939.7422,381.4121)"><path
             d="M 0,0 H -102.896 V 12.322 H -0.535 Z"
             style="fill:#cd6233;fill-opacity:1;fill-rule:nonzero;stroke:none"
             id="path336" /></g><path
           d="M 786.02,732.593 H 662.294 v 24.645 H 786.02 Z"
           style="fill:#dc6e36;fill-opacity:1;fill-rule:nonzero;stroke:none"
           id="path338" /><g
           id="g340"
           transform="translate(996.1699,445.8857)"><path
             d="m 0,0 1.648,-24.74 c 0,0 25.188,-33.573 27.269,-61.137 l -58.292,42.052 c 0,0 -5.716,3.05 -4.915,10.537 0.551,5.153 7.061,33.288 7.061,33.288 z"
             style="fill:#8b4622;fill-opacity:1;fill-rule:nonzero;stroke:none"
             id="path342" /></g><g
           id="g344"
           transform="translate(1068.8013,757.2373)"><path
             d="m 0,0 c -8.095,104.855 -99.86,104.659 -99.86,104.659 0,0 -117.716,7.767 -218.94,6.554 -36.099,-0.432 -66.941,4.447 -70.891,-2.029 -10.463,-17.155 -0.386,-91.836 54.452,-109.185 h 41.869 66.839 C -203.303,-0.337 -70.081,0 -70.081,0 -99.86,-31.562 -106.162,-311.352 -106.162,-311.352 h 38.433 c 0,0 75.212,214.426 67.729,311.352"
             style="fill:#324395;fill-opacity:1;fill-rule:nonzero;stroke:none"
             id="path346" /></g><g
           id="g348"
           transform="translate(950.5498,820.2534)"><path
             d="m 0,0 c -5.112,134.431 -113.703,92.829 -113.703,92.829 0,0 -153.786,-40.185 -157.736,-46.662 -10.464,-17.154 -0.386,-91.835 54.452,-109.184 h 41.869 66.839 c 19.031,3.308 32.267,80.152 32.267,80.152 -14.363,-45.795 11.557,-289.784 11.557,-289.784 h 38.432 c 0,0 29.717,175.506 26.023,272.649"
             style="fill:#3c45b3;fill-opacity:1;fill-rule:nonzero;stroke:none"
             id="path350" /></g><g
           id="g352"
           transform="translate(922.3955,1110.7715)"><path
             d="m 0,0 -21.51,0.147 c 0,0 -7.323,-55.827 -6.175,-99.854 -10.028,31.198 -22.711,69.983 -32.476,97.609 -4.686,13.258 -14.481,35.477 -34.143,44.665 -8.486,4.597 -15.365,5.413 -15.365,5.413 0,0 -55.697,10.931 -94.353,-8.612 -8.277,-4.185 -14.958,-12.198 -20.365,-22.758 l -0.003,0.004 c 0,0 -0.03,-0.062 -0.075,-0.153 -0.613,-1.203 -1.208,-2.441 -1.788,-3.708 -10.156,-21.31 -58.138,-125.764 -47.741,-175.844 3.587,-17.274 12.173,-29.888 26.555,-36.841 0.909,-24.039 2.646,-39.797 4.154,-44.419 3.95,6.476 157.736,46.662 157.736,46.662 0,0 17.674,6.769 39.096,6.021 0.081,0.875 0.151,1.751 0.227,2.626 1.353,-1.065 2.719,-2.031 4.1,-2.879 6.389,-0.53 13.02,-1.785 19.544,-4.119 C 24.297,-188.036 10.753,-61.16 0,0"
             style="fill:#ff4e00;fill-opacity:1;fill-rule:nonzero;stroke:none"
             id="path354" /></g><path
           d="M 968.941,284.146 H 610.155 v 1.388 h 358.786 z"
           style="fill:#000000;fill-opacity:1;fill-rule:nonzero;stroke:none"
           id="path356" /><path
           d="M 1668.995,284.146 H 986.209 v 1.388 h 682.786 z"
           style="fill:#000000;fill-opacity:1;fill-rule:nonzero;stroke:none"
           id="path358" /><g
           id="g360"
           transform="translate(702.4839,904.7168)"><path
             d="m 0,0 c -10.815,0.386 -19.892,2.501 -27.422,6.128 l -0.106,-0.004 c 0.01,-1.225 0.257,-6.127 0.257,-6.127 13.479,-20.889 190.085,14.449 190.085,14.449 C 162.814,14.446 41.357,-1.474 0,0"
             style="fill:#39302a;fill-opacity:1;fill-rule:nonzero;stroke:none"
             id="path362" /></g><g
           id="g364"
           transform="translate(953.7988,862.8154)"><path
             d="m 0,0 c -4.112,0.24 -9.763,0.549 -9.763,0.549 l 0.002,-0.021 c 3.545,-11.831 5.864,-26.039 6.512,-43.09 0.712,-18.723 0.18,-40.361 -1.138,-63.087 l 10e-4,-0.028 2.87,0.099 C 6.168,-56.844 0,0 0,0"
             style="fill:#39302a;fill-opacity:1;fill-rule:nonzero;stroke:none"
             id="path366" /></g><g
           id="g368"
           transform="translate(809.5952,1157.8364)"><path
             d="m 0,0 c 0,0 -7.147,18.46 -8.478,46.657 l 0.164,1.512 c 1.662,2.394 2.954,5.181 3.988,8.202 5.787,16.912 1.277,40.541 1.277,40.541 l -39.125,4.231 c 0,0 -0.002,-0.006 -0.002,-0.006 l -6.236,0.673 -1.361,-12.621 c -0.258,-0.172 -0.517,-0.359 -0.777,-0.577 -2.786,-2.324 -3.435,-7.606 -0.55,-11.725 L -51.842,70 v -0.001 l -2.72,-25.223 0.037,-0.004 C -56.134,32.217 -58.541,16.545 -61.941,1.496 -62.881,1.364 -63.82,1.224 -64.758,1.072 h 2.722 c 0,0 10.737,-35.994 41.961,-35.994 C 11.149,-34.922 0,0 0,0"
             style="fill:#f1996c;fill-opacity:1;fill-rule:nonzero;stroke:none"
             id="path370" /></g><g
           id="g372"
           transform="translate(880.4419,1190.6274)"><path
             d="M 0,0 54.195,0.209 32.488,-71.563 -20.246,-73.302 Z"
             style="fill:#a50000;fill-opacity:1;fill-rule:nonzero;stroke:none"
             id="path374" /></g><g
           id="g376"
           transform="translate(934.6367,1190.8369)"><path
             d="M 0,0 -24.852,21.055 -32.763,-0.126 Z"
             style="fill:#a50000;fill-opacity:1;fill-rule:nonzero;stroke:none"
             id="path378" /></g><g
           id="g380"
           transform="translate(898.9668,1190.6606)"><path
             d="M 0,0 7.932,20.375 32.68,0.05 Z"
             style="fill:#bfc3c5;fill-opacity:1;fill-rule:nonzero;stroke:none"
             id="path382" /></g><g
           id="g384"
           transform="translate(882.0352,1190.6338)"><path
             d="m 0,0 0.579,2.473 c 0,0 44.638,6.421 47.645,-2.396 z"
             style="fill:#d1d8dc;fill-opacity:1;fill-rule:nonzero;stroke:none"
             id="path386" /></g><g
           id="g388"
           transform="translate(931.647,1190.7104)"><path
             d="m 0,0 -21.394,-71.734 2.677,0.088 L 2.99,0.126 Z"
             style="fill:#8c0000;fill-opacity:1;fill-rule:nonzero;stroke:none"
             id="path390" /></g><g
           id="g392"
           transform="translate(906.8989,1211.0352)"><path
             d="m 0,0 h 2.566 l 23.917,-20.198 -1.735,-0.127 z"
             style="fill:#ababac;fill-opacity:1;fill-rule:nonzero;stroke:none"
             id="path394" /></g><g
           id="g396"
           transform="translate(885.9673,1181.8931)"><path
             d="M 0,0 H 36.478 L 34.173,-6.766 H -1.778 Z"
             style="fill:#f9b300;fill-opacity:1;fill-rule:nonzero;stroke:none"
             id="path398" /></g><g
           id="g400"
           transform="translate(868.3979,939.145)"><path
             d="m 0,0 c 0,0 14.621,-2.36 18.263,-4.269 3.643,-1.908 17.357,-11.605 23.944,-25.144 0,0 -6.073,3.081 -8.497,4.109 0,0 -5.981,2.281 -18.127,4.621 0,0 -16.141,-1.452 -18.294,3.202 z"
             style="fill:#f1996c;fill-opacity:1;fill-rule:nonzero;stroke:none"
             id="path402" /></g><g
           id="g404"
           transform="translate(903.9214,1110.8979)"><path
             d="m 0,0 c 0,0 -1.12,4.326 -1.384,7.824 l 4.595,0.152 c 0,0 5.551,-5.373 5.984,-8.039 z"
             style="fill:#f1996c;fill-opacity:1;fill-rule:nonzero;stroke:none"
             id="path406" /></g><g
           id="g408"
           transform="translate(903.9214,1110.8979)"><path
             d="m 0,0 c 0,0 2.255,8.46 4.51,12.71 2.255,4.25 11.112,19.754 11.627,19.028 0,0 2.607,-20.99 0,-31.848 z"
             style="fill:#f1996c;fill-opacity:1;fill-rule:nonzero;stroke:none"
             id="path410" /></g><g
           id="g412"
           transform="translate(903.9214,1110.8979)"><path
             d="M 0,0 C 0,0 3.44,25.431 4.782,27.859 6.185,30.398 5.758,10.882 3.905,0 Z"
             style="fill:#f1996c;fill-opacity:1;fill-rule:nonzero;stroke:none"
             id="path414" /></g><g
           id="g416"
           transform="translate(913.6064,547.7949)"><path
             d="m 0,0 4.586,-18.319 c 0,0 37.046,-20.759 41.672,-42.359 l -68.68,18.348 c 0,0 -4.207,0.979 -4.659,5.637 -0.45,4.658 2.493,36.693 2.493,36.693 z"
             style="fill:#8b4622;fill-opacity:1;fill-rule:nonzero;stroke:none"
             id="path418" /></g><g
           id="g420"
           transform="translate(931.436,493.1436)"><path
             d="M 0,0 C 0,0 -37.116,-1.117 -40.251,12.321 L 0,1.568 Z"
             style="fill:#39302a;fill-opacity:1;fill-rule:nonzero;stroke:none"
             id="path422" /></g><path
           d="m 1717.091,552.59 h -171.4 v 8.871 h 171.4 z"
           style="fill:#dc6e36;fill-opacity:1;fill-rule:nonzero;stroke:none"
           id="path424" /><g
           id="g426"
           transform="translate(1566.4404,552.5898)"><path
             d="m 0,0 -33.342,-267.044 h 6.039 L 10.87,0 Z"
             style="fill:#dc6e36;fill-opacity:1;fill-rule:nonzero;stroke:none"
             id="path428" /></g><g
           id="g430"
           transform="translate(1606.0498,552.5898)"><path
             d="m 0,0 -72.951,-267.044 h 6.039 L 10.871,0 Z"
             style="fill:#dc6e36;fill-opacity:1;fill-rule:nonzero;stroke:none"
             id="path432" /></g><g
           id="g434"
           transform="translate(1696.5029,552.5898)"><path
             d="M 0,0 33.341,-267.044 H 27.302 L -10.871,0 Z"
             style="fill:#dc6e36;fill-opacity:1;fill-rule:nonzero;stroke:none"
             id="path436" /></g><g
           id="g438"
           transform="translate(1656.8936,552.5898)"><path
             d="M 0,0 72.95,-267.044 H 66.911 L -10.871,0 Z"
             style="fill:#dc6e36;fill-opacity:1;fill-rule:nonzero;stroke:none"
             id="path440" /></g><g
           id="g442"
           transform="translate(1566.4404,552.5898)"><path
             d="M 0,0 -2.421,-19.387 6.513,-30.485 10.87,0 Z"
             style="fill:#c96233;fill-opacity:1;fill-rule:nonzero;stroke:none"
             id="path444" /></g><g
           id="g446"
           transform="translate(1606.0498,552.5898)"><path
             d="M 0,0 -7.822,-28.636 3.813,-24.229 10.871,0 Z"
             style="fill:#c96233;fill-opacity:1;fill-rule:nonzero;stroke:none"
             id="path448" /></g><g
           id="g450"
           transform="translate(1696.5029,552.5898)"><path
             d="M 0,0 2.42,-19.387 -6.513,-30.485 -10.871,0 Z"
             style="fill:#c96233;fill-opacity:1;fill-rule:nonzero;stroke:none"
             id="path452" /></g><g
           id="g454"
           transform="translate(1656.8936,552.5898)"><path
             d="M 0,0 7.822,-28.636 -3.813,-24.229 -10.871,0 Z"
             style="fill:#c96233;fill-opacity:1;fill-rule:nonzero;stroke:none"
             id="path456" /></g><g
           id="g458"
           transform="translate(1640.5889,657.873)"><path
             d="M 0,0 C 0,0 1.702,-61.287 -8.963,-96.412 H 6.929 C 27.642,-58.05 31.576,-21.32 31.755,0 Z"
             style="fill:#39302a;fill-opacity:1;fill-rule:nonzero;stroke:none"
             id="path460" /></g><g
           id="g462"
           transform="translate(1617.4248,815.7183)"><path
             d="m 0,0 c -6.566,8.9 -11.468,19.224 -12.871,30.195 -1.403,10.971 0.912,22.611 7.497,31.497 C 6.215,77.328 27.654,81.449 43.432,92.844 39.154,84.406 41.835,74.335 42.667,64.912 44.468,44.524 35.521,22.414 17.542,12.635 11.308,9.243 3.609,6.783 0.771,0.277"
             style="fill:#6b9a00;fill-opacity:1;fill-rule:nonzero;stroke:none"
             id="path464" /></g><g
           id="g466"
           transform="translate(1613.9717,738.3496)"><path
             d="m 0,0 c 4.589,10.49 4.835,22.805 0.667,33.469 -4.168,10.665 -12.697,19.55 -23.184,24.149 -4.998,2.192 -10.359,3.43 -15.46,5.373 -8.375,3.191 -16.011,8.304 -22.15,14.834 1.708,-8.238 3.417,-16.477 5.125,-24.716 2.109,-10.17 4.271,-20.489 9.059,-29.706 4.789,-9.217 12.63,-17.354 22.647,-20.1 7.565,-2.074 16.402,-1.216 22.363,-6.315"
             style="fill:#6b9a00;fill-opacity:1;fill-rule:nonzero;stroke:none"
             id="path468" /></g><g
           id="g470"
           transform="translate(1623.8506,784.3687)"><path
             d="M 0,0 C -2.909,14.104 4.541,28.866 15.705,37.962 33.871,52.76 61.938,53.813 81.16,40.416 76.834,41.202 72.683,37.944 70.553,34.097 68.423,30.25 67.69,25.802 66.121,21.694 61.182,8.762 47.098,-0.036 33.31,1.197 27.472,1.719 21.876,3.829 16.054,4.508 10.232,5.187 3.642,4.073 -0.003,-0.518"
             style="fill:#6b9a00;fill-opacity:1;fill-rule:nonzero;stroke:none"
             id="path472" /></g><g
           id="g474"
           transform="translate(1635.6777,698.7695)"><path
             d="m 0,0 c 4.611,6.825 7.835,14.583 9.42,22.665 1.484,7.57 1.561,15.463 4.159,22.727 C 18.471,59.065 31.853,68.418 45.98,71.779 42.21,66.256 42.455,58.942 43.739,52.379 45.022,45.814 47.205,39.297 46.815,32.62 46.411,25.7 43.098,18.998 37.847,14.474 31.39,8.911 22.652,6.872 14.206,5.732 8.98,5.028 2.654,3.799 0.934,-1.185"
             style="fill:#6b9a00;fill-opacity:1;fill-rule:nonzero;stroke:none"
             id="path476" /></g><g
           id="g478"
           transform="translate(1662.043,744.8574)"><path
             d="m 0,0 c -1.097,-2.627 -1.942,-5.882 -2.736,-9.428 -0.82,-3.541 -1.617,-7.423 -3.176,-11.138 -3.151,-7.455 -9.209,-12.301 -13.323,-15.739 -2.07,-1.656 -4.017,-3.185 -4.783,-4.783 -0.81,-1.591 -0.456,-2.655 -0.178,-2.627 0.351,-0.02 0.52,0.794 1.413,1.819 0.86,1.079 2.596,2.189 4.908,3.822 2.25,1.63 4.867,3.711 7.469,6.397 2.58,2.681 5.166,6.048 6.843,10.117 1.69,4.039 2.495,8.047 3.277,11.584 0.755,3.555 1.491,6.674 2.372,9.183 C 3.782,4.265 6.104,6.692 5.58,7.192 5.238,7.635 2.154,5.359 0,0"
             style="fill:#668a00;fill-opacity:1;fill-rule:nonzero;stroke:none"
             id="path480" /></g><g
           id="g482"
           transform="translate(1618.0693,803.9961)"><path
             d="m 0,0 c 1.765,-11.376 4.296,-23.761 7.143,-36.682 2.849,-12.918 5.39,-25.234 7.219,-36.505 0.744,-5.652 1.646,-11.008 1.946,-16.066 0.195,-2.523 0.469,-4.96 0.586,-7.306 0.044,-2.347 0.088,-4.6 0.129,-6.752 0.236,-4.309 -0.167,-8.182 -0.323,-11.598 -0.105,-1.706 -0.14,-3.302 -0.271,-4.76 -0.202,-1.448 -0.387,-2.771 -0.554,-3.967 -0.185,-1.385 -0.329,-2.571 -0.439,-3.593 h 1.159 c 0.222,0.961 0.467,2.077 0.736,3.364 0.243,1.201 0.513,2.532 0.807,3.987 0.208,1.469 0.313,3.08 0.483,4.807 0.284,3.455 0.79,7.393 0.634,11.761 -0.008,2.184 -0.017,4.472 -0.026,6.855 -0.087,2.38 -0.337,4.845 -0.513,7.403 -0.262,5.132 -1.14,10.536 -1.872,16.25 -1.805,11.367 -4.361,23.745 -7.209,36.664 -1.081,4.906 -2.092,9.689 -3.056,14.398 0.766,1.436 1.877,3.918 3.606,7.015 1.398,2.564 3.337,5.46 5.733,8.48 2.46,2.968 5.417,6.029 8.886,8.829 3.505,2.753 7.151,4.95 10.593,6.684 3.482,1.658 6.738,2.9 9.549,3.689 5.61,1.632 9.263,2.013 9.21,2.732 -0.018,0.552 -3.835,0.812 -9.785,-0.576 C 41.396,14.446 37.959,13.227 34.304,11.528 30.686,9.754 26.874,7.456 23.215,4.58 19.592,1.657 16.499,-1.543 13.96,-4.672 11.486,-7.854 9.527,-10.931 8.212,-13.681 7.206,-15.736 6.493,-17.551 6.022,-19.025 4.674,-12.302 3.462,-5.796 2.482,0.375 1.771,6.03 0.883,11.389 0.619,16.448 0.44,18.973 0.185,21.41 0.079,23.755 c -0.026,2.348 -0.052,4.601 -0.075,6.752 -0.203,4.311 0.236,8.18 0.426,11.594 0.122,1.704 0.174,3.3 0.317,4.756 0.218,1.445 0.418,2.767 0.599,3.96 0.688,4.767 0.934,7.455 0.625,7.53 C 1.661,58.421 0.945,55.834 -0.108,51.063 -0.365,49.864 -0.649,48.536 -0.96,47.084 -1.182,45.617 -1.303,44.006 -1.49,42.282 -1.809,38.829 -2.352,34.895 -2.228,30.525 -2.237,28.34 -2.247,26.052 -2.257,23.668 -2.18,21.289 -1.949,18.821 -1.789,16.261 -1.565,11.125 -0.701,5.718 0,0"
             style="fill:#668a00;fill-opacity:1;fill-rule:nonzero;stroke:none"
             id="path484" /></g><g
           id="g486"
           transform="translate(1631.1006,676.7676)"><path
             d="m 0,0 h 0.056 0.469 0.386 c -0.235,5.276 -4.657,26.667 -13.397,51.292 -9.93,28.345 -21.633,49.805 -22.661,49.225 -1.224,-0.619 10.389,-21.913 20.255,-50.074 C -6.293,26.217 -1.908,5.187 0,0"
             style="fill:#668a00;fill-opacity:1;fill-rule:nonzero;stroke:none"
             id="path488" /></g><g
           id="g490"
           transform="translate(1647.1035,562.1553)"><path
             d="M 0,0 H -31.425 C -51.567,37.491 -55.626,73.686 -55.919,95.023 H 24.494 C 24.201,73.686 20.143,37.491 0,0 m -55.108,113.919 h 78.792 c 0.229,-1.884 0.884,-8.144 0.825,-17.508 h -80.443 c -0.06,9.364 0.596,15.624 0.826,17.508 m 80.087,0.795 c -0.049,0.341 -0.341,0.593 -0.686,0.593 h -80.011 c -0.345,0 -0.637,-0.252 -0.686,-0.593 -0.084,-0.558 -7.963,-56.627 23.955,-115.737 0.119,-0.225 0.355,-0.365 0.609,-0.365 H 0.414 c 0.255,0 0.491,0.14 0.61,0.365 31.918,59.11 24.038,115.179 23.955,115.737"
             style="fill:#000000;fill-opacity:1;fill-rule:nonzero;stroke:none"
             id="path492" /></g><g
           id="g494"
           transform="translate(1301.7734,326.4717)"><path
             d="m 0,0 c 0,-2.893 -2.345,-5.238 -5.238,-5.238 -2.893,0 -5.238,2.345 -5.238,5.238 0,2.893 2.345,5.238 5.238,5.238 C -2.345,5.238 0,2.893 0,0"
             style="fill:#d1d8dc;fill-opacity:1;fill-rule:nonzero;stroke:none"
             id="path496" /></g><path
           d="m 1130.634,321.233 h -10.476 v 10.477 h 10.476 z"
           style="fill:#d1d8dc;fill-opacity:1;fill-rule:nonzero;stroke:none"
           id="path498" /><g
           id="g500"
           transform="translate(1472.5762,331.71)"><path
             d="M 0,0 10.476,-5.238 0,-10.477 Z"
             style="fill:#d1d8dc;fill-opacity:1;fill-rule:nonzero;stroke:none"
             id="path502" /></g><g
           id="g504"
           transform="translate(808.772,1251.9575)"><path
             d="m 0,0 c 5.269,6.395 3.987,16.28 0.824,19.56 -4.464,4.626 -15.566,6.013 -20.886,-2.082 0,0 -17.259,4.626 -24.819,0.925 0,0 -1.151,-1.216 -2.044,-3.235 -1.048,0.57 -2.453,1.001 -4.115,0.691 -3.715,-0.694 -9.319,-13.585 -0.384,-44.669 0,0 2.323,3.325 4.899,8.205 -6.838,3.929 -6.851,12.051 -3.202,15.096 3.662,3.066 7.15,1.407 9.108,-0.086 0.661,2.823 1.015,5.653 0.863,8.329 7.669,-4.34 19.626,-9.727 29.64,-8.153 3.707,0.582 6.488,1.988 8.574,3.831 -0.002,-0.025 -0.006,-0.059 -0.006,-0.059 0.184,-1.577 0.566,-5.271 0.566,-5.271 3.092,3.387 1.014,6.91 1.014,6.91 C 0.02,-0.002 0.012,-0.005 0,0"
             style="fill:#39302a;fill-opacity:1;fill-rule:nonzero;stroke:none"
             id="path506" /></g><g
           id="g508"
           transform="translate(801.2783,1205.9814)"><path
             d="m 0,0 c 0,0 -10.486,-16.572 -30.199,-2.727 0,0 10.088,-29.324 32.54,-21.783 0,0 -2.505,10.917 -2.341,24.51"
             style="fill:#c15b29;fill-opacity:1;fill-rule:nonzero;stroke:none"
             id="path510" /></g><g
           id="g512"
           transform="translate(860.1753,1098.4634)"><path
             d="m 0,0 c 0,0 16.598,-83.177 17.366,-156.238 0,0 2.894,64.383 -17.366,156.238"
             style="fill:#39302a;fill-opacity:1;fill-rule:nonzero;stroke:none"
             id="path514" /></g><g
           id="g516"
           transform="translate(720.0781,1065.7168)"><path
             d="m 0,0 c 0.278,-4.813 0.219,-9.777 -0.292,-14.849 -4.146,-41.216 -18.542,-80.729 -23.727,-93.939 22.172,8.289 172.468,-16.952 172.468,-16.952 0,0 -132.551,24.852 -165.856,19.994 0,0 20.483,60.545 17.407,105.746"
             style="fill:#39302a;fill-opacity:1;fill-rule:nonzero;stroke:none"
             id="path518" /></g><g
           id="g520"
           transform="translate(720.0161,1066.6831)"><path
             d="M 0,0 C -0.015,0.194 -0.021,0.393 -0.037,0.586 L -0.044,0.56 C -0.031,0.373 -0.012,0.188 0,0"
             style="fill:#39302a;fill-opacity:1;fill-rule:nonzero;stroke:none"
             id="path522" /></g></g></g></g></svg>
