<?xml version="1.0" encoding="UTF-8"?>
<svg xmlns="http://www.w3.org/2000/svg" xmlns:xlink="http://www.w3.org/1999/xlink" width="48pt" height="48pt" viewBox="0 0 48 48" version="1.1">
<defs>
<clipPath id="clip1">
  <path d="M 0 0 L 48 0 L 48 48 L 0 48 Z M 0 0 "/>
</clipPath>
<clipPath id="clip2">
  <path d="M 0 1.132813 L 48 1.132813 L 48 46.882813 L 0 46.882813 Z M 0 1.132813 "/>
</clipPath>
</defs>
<g id="surface1">
<g clip-path="url(#clip1)" clip-rule="nonzero">
<rect x="0" y="0" width="48" height="48" style="fill:transparent;fill-opacity:1;stroke:none;"/>
</g>
<path style=" stroke:none;fill-rule:nonzero;fill:transparent;fill-opacity:1;" d="M 0 0 L 48 0 L 48 48 L 0 48 Z M 0 0 "/>
<path style=" stroke:none;fill-rule:nonzero;fill:transparent;fill-opacity:1;" d="M 0 0 L 48 0 L 48 48 L 0 48 Z M 0 0 "/>
<path style=" stroke:none;fill-rule:nonzero;fill:rgb(100%,8.628845%,8.628845%);fill-opacity:1;" d="M 30.871094 28.960938 L 36.402344 28.960938 C 36.59375 28.960938 36.757813 29.027344 36.894531 29.164063 C 37.03125 29.300781 37.101563 29.46875 37.101563 29.660156 L 37.101563 41.867188 C 37.101563 42.058594 37.03125 42.226563 36.894531 42.363281 C 36.757813 42.5 36.59375 42.566406 36.402344 42.566406 L 30.871094 42.566406 C 30.675781 42.566406 30.511719 42.5 30.375 42.363281 C 30.238281 42.226563 30.167969 42.058594 30.167969 41.867188 L 30.167969 29.660156 C 30.167969 29.46875 30.238281 29.300781 30.375 29.164063 C 30.511719 29.027344 30.675781 28.960938 30.871094 28.960938 Z M 30.871094 28.960938 "/>
<path style=" stroke:none;fill-rule:nonzero;fill:rgb(100%,8.628845%,8.628845%);fill-opacity:1;" d="M 11.308594 16.261719 L 16.839844 16.261719 C 17.03125 16.261719 17.195313 16.328125 17.332031 16.464844 C 17.46875 16.601563 17.539063 16.769531 17.539063 16.960938 L 17.539063 41.871094 C 17.539063 42.066406 17.46875 42.230469 17.332031 42.367188 C 17.195313 42.503906 17.03125 42.574219 16.839844 42.574219 L 11.308594 42.574219 C 11.113281 42.574219 10.949219 42.503906 10.8125 42.367188 C 10.675781 42.230469 10.605469 42.066406 10.605469 41.871094 L 10.605469 16.960938 C 10.605469 16.769531 10.675781 16.601563 10.8125 16.464844 C 10.949219 16.328125 11.113281 16.261719 11.308594 16.261719 Z M 11.308594 16.261719 "/>
<path style=" stroke:none;fill-rule:nonzero;fill:rgb(100%,8.628845%,8.628845%);fill-opacity:1;" d="M 21.089844 33.859375 L 26.621094 33.859375 C 26.816406 33.859375 26.980469 33.929688 27.117188 34.066406 C 27.253906 34.203125 27.324219 34.367188 27.324219 34.5625 L 27.324219 41.867188 C 27.324219 42.058594 27.253906 42.226563 27.117188 42.363281 C 26.980469 42.5 26.816406 42.566406 26.621094 42.566406 L 21.089844 42.566406 C 20.898438 42.566406 20.734375 42.5 20.597656 42.363281 C 20.460938 42.226563 20.390625 42.058594 20.390625 41.867188 L 20.390625 34.5625 C 20.390625 34.367188 20.460938 34.203125 20.597656 34.066406 C 20.734375 33.929688 20.898438 33.859375 21.089844 33.859375 Z M 21.089844 33.859375 "/>
<path style=" stroke:none;fill-rule:nonzero;fill:rgb(100%,8.628845%,8.628845%);fill-opacity:1;" d="M 40.65625 37.125 L 46.191406 37.125 C 46.382813 37.125 46.550781 37.191406 46.6875 37.328125 C 46.824219 37.464844 46.890625 37.628906 46.890625 37.824219 L 46.890625 41.867188 C 46.890625 42.058594 46.824219 42.226563 46.6875 42.363281 C 46.550781 42.5 46.382813 42.566406 46.191406 42.566406 L 40.65625 42.566406 C 40.460938 42.566406 40.296875 42.5 40.160156 42.363281 C 40.023438 42.226563 39.953125 42.058594 39.953125 41.867188 L 39.953125 37.824219 C 39.953125 37.628906 40.023438 37.464844 40.160156 37.328125 C 40.296875 37.191406 40.460938 37.125 40.65625 37.125 Z M 40.65625 37.125 "/>
<path style=" stroke:none;fill-rule:nonzero;fill:rgb(100%,8.628845%,8.628845%);fill-opacity:1;" d="M 22.765625 15.503906 C 22.910156 15.652344 23.082031 15.726563 23.289063 15.730469 C 23.496094 15.722656 23.671875 15.640625 23.808594 15.488281 L 29.183594 9.320313 L 44.0625 24.738281 L 38.285156 24.738281 C 38.089844 24.738281 37.925781 24.808594 37.789063 24.945313 C 37.652344 25.082031 37.582031 25.246094 37.582031 25.4375 C 37.582031 25.632813 37.652344 25.796875 37.789063 25.933594 C 37.925781 26.070313 38.089844 26.140625 38.285156 26.140625 L 45.828125 26.140625 C 46.019531 26.140625 46.1875 26.074219 46.324219 25.9375 C 46.460938 25.800781 46.527344 25.632813 46.527344 25.4375 L 46.527344 17.898438 C 46.527344 17.703125 46.457031 17.539063 46.320313 17.402344 C 46.183594 17.265625 46.019531 17.199219 45.828125 17.199219 C 45.632813 17.199219 45.46875 17.265625 45.332031 17.402344 C 45.195313 17.539063 45.125 17.703125 45.125 17.898438 L 45.125 23.847656 L 29.660156 7.804688 C 29.515625 7.664063 29.339844 7.589844 29.136719 7.585938 C 28.933594 7.59375 28.765625 7.675781 28.628906 7.828125 L 23.265625 13.972656 L 14.023438 4 C 13.894531 3.867188 13.734375 3.796875 13.542969 3.792969 C 13.355469 3.785156 13.191406 3.847656 13.054688 3.976563 C 12.914063 4.101563 12.839844 4.261719 12.828125 4.449219 C 12.816406 4.636719 12.871094 4.804688 12.996094 4.945313 Z M 22.765625 15.503906 "/>
<g clip-path="url(#clip2)" clip-rule="nonzero">
<path style=" stroke:none;fill-rule:nonzero;fill:rgb(100%,8.628845%,8.628845%);fill-opacity:1;" d="M 47.222656 45.472656 L 1.460938 45.472656 L 1.460938 42.730469 L 4.570313 42.730469 C 4.765625 42.730469 4.929688 42.660156 5.066406 42.523438 C 5.203125 42.386719 5.273438 42.222656 5.273438 42.027344 C 5.273438 41.835938 5.203125 41.671875 5.066406 41.535156 C 4.929688 41.398438 4.765625 41.328125 4.570313 41.328125 L 1.460938 41.328125 L 1.460938 35.277344 L 4.570313 35.277344 C 4.765625 35.277344 4.929688 35.210938 5.066406 35.074219 C 5.203125 34.9375 5.273438 34.773438 5.273438 34.578125 C 5.273438 34.382813 5.203125 34.21875 5.066406 34.082031 C 4.929688 33.945313 4.765625 33.878906 4.570313 33.878906 L 1.460938 33.878906 L 1.460938 27.792969 L 4.570313 27.792969 C 4.765625 27.792969 4.929688 27.726563 5.066406 27.589844 C 5.203125 27.453125 5.273438 27.285156 5.273438 27.09375 C 5.273438 26.898438 5.203125 26.734375 5.066406 26.597656 C 4.929688 26.460938 4.765625 26.390625 4.570313 26.390625 L 1.460938 26.390625 L 1.460938 20.320313 L 4.570313 20.320313 C 4.765625 20.320313 4.929688 20.253906 5.066406 20.113281 C 5.203125 19.976563 5.273438 19.8125 5.273438 19.621094 C 5.273438 19.425781 5.203125 19.261719 5.066406 19.125 C 4.929688 18.988281 4.765625 18.917969 4.570313 18.917969 L 1.460938 18.917969 L 1.460938 12.851563 L 4.570313 12.851563 C 4.765625 12.851563 4.929688 12.785156 5.066406 12.648438 C 5.203125 12.511719 5.273438 12.34375 5.273438 12.152344 C 5.273438 11.957031 5.203125 11.792969 5.066406 11.65625 C 4.929688 11.519531 4.765625 11.449219 4.570313 11.449219 L 1.460938 11.449219 L 1.460938 5.382813 L 4.570313 5.382813 C 4.765625 5.382813 4.929688 5.316406 5.066406 5.179688 C 5.203125 5.042969 5.273438 4.878906 5.273438 4.683594 C 5.273438 4.488281 5.203125 4.324219 5.066406 4.1875 C 4.929688 4.050781 4.765625 3.984375 4.570313 3.984375 L 1.460938 3.984375 L 1.460938 1.847656 C 1.460938 1.652344 1.394531 1.488281 1.257813 1.351563 C 1.121094 1.214844 0.953125 1.144531 0.761719 1.144531 C 0.566406 1.144531 0.402344 1.214844 0.265625 1.351563 C 0.128906 1.488281 0.0625 1.652344 0.0625 1.847656 L 0.0625 46.171875 C 0.0625 46.367188 0.128906 46.53125 0.265625 46.667969 C 0.402344 46.804688 0.566406 46.875 0.761719 46.875 L 47.222656 46.875 C 47.414063 46.875 47.582031 46.804688 47.71875 46.667969 C 47.855469 46.53125 47.921875 46.367188 47.921875 46.171875 C 47.921875 45.980469 47.855469 45.8125 47.71875 45.675781 C 47.582031 45.539063 47.414063 45.472656 47.222656 45.472656 Z M 47.222656 45.472656 "/>
</g>
</g>
</svg>
