<?xml version="1.0" encoding="UTF-8"?>
<svg xmlns="http://www.w3.org/2000/svg" xmlns:xlink="http://www.w3.org/1999/xlink" width="595.5pt" height="842.249979pt" viewBox="0 0 595.5 842.249979" version="1.1">
<defs>
<clipPath id="clip1">
  <path d="M 1 296 L 568 296 L 568 842.25 L 1 842.25 Z M 1 296 "/>
</clipPath>
<clipPath id="clip2">
  <path d="M 0 281 L 582 281 L 582 842.25 L 0 842.25 Z M 0 281 "/>
</clipPath>
<clipPath id="clip3">
  <path d="M 0 0 L 344 0 L 344 655 L 0 655 Z M 0 0 "/>
</clipPath>
<clipPath id="clip4">
  <path d="M 140.546875 -394.503906 L 546.683594 341.59375 L -21.160156 654.898438 L -427.296875 -81.199219 Z M 140.546875 -394.503906 "/>
</clipPath>
</defs>
<g id="surface1">
<rect x="0" y="0" width="595.5" height="842.249979" style="fill:rgb(100%,100%,100%);fill-opacity:1;stroke:none;"/>
<path style=" stroke:none;fill-rule:nonzero;fill:rgb(100%,100%,100%);fill-opacity:1;" d="M 0 0 L 596 0 L 596 842.957031 L 0 842.957031 Z M 0 0 "/>
<path style=" stroke:none;fill-rule:nonzero;fill:rgb(100%,100%,100%);fill-opacity:1;" d="M 0 0 L 596 0 L 596 842.957031 L 0 842.957031 Z M 0 0 "/>
<g clip-path="url(#clip1)" clip-rule="nonzero">
<path style=" stroke:none;fill-rule:nonzero;fill:rgb(92.158508%,95.289612%,98.039246%);fill-opacity:1;" d="M 1.417969 296.582031 L 1.417969 862.875 L 567.710938 862.875 Z M 1.417969 296.582031 "/>
</g>
<g clip-path="url(#clip2)" clip-rule="nonzero">
<path style=" stroke:none;fill-rule:nonzero;fill:rgb(92.158508%,95.289612%,98.039246%);fill-opacity:1;" d="M 567.710938 875.875 L 1.417969 875.875 C -7.867188 875.875 -13.4375 870.304688 -13.4375 862.875 L -13.4375 296.582031 C -13.4375 291.015625 -9.722656 285.445313 -4.152344 283.585938 C -0.4375 279.875 6.988281 281.730469 10.703125 285.445313 L 576.996094 851.738281 C 580.707031 855.449219 582.5625 861.019531 580.707031 866.589844 C 576.996094 872.160156 573.28125 875.875 567.710938 875.875 Z M 14.414063 848.023438 L 532.433594 848.023438 L 14.414063 330.003906 Z M 14.414063 848.023438 "/>
</g>
<g clip-path="url(#clip3)" clip-rule="nonzero">
<g clip-path="url(#clip4)" clip-rule="nonzero">
<path style=" stroke:none;fill-rule:nonzero;fill:rgb(92.158508%,95.289612%,98.039246%);fill-opacity:1;" d="M 343.617188 -26.457031 L -21.160156 654.898438 L -427.296875 -81.195313 L 343.617188 -26.457031 "/>
</g>
</g>
</g>
</svg>
