<?xml version="1.0" encoding="UTF-8" standalone="no"?>
<!-- Created with Inkscape (http://www.inkscape.org/) -->

<svg
   version="1.1"
   id="svg2"
   xml:space="preserve"
   width="3120"
   height="2080"
   viewBox="0 0 3120 2080"
   sodipodi:docname="Student Studying Online Illustration.ai"
   xmlns:inkscape="http://www.inkscape.org/namespaces/inkscape"
   xmlns:sodipodi="http://sodipodi.sourceforge.net/DTD/sodipodi-0.dtd"
   xmlns="http://www.w3.org/2000/svg"
   xmlns:svg="http://www.w3.org/2000/svg"><defs
     id="defs6"><clipPath
       clipPathUnits="userSpaceOnUse"
       id="clipPath18"><path
         d="M 0,1560 H 2340 V 0 H 0 Z"
         id="path16" /></clipPath></defs><sodipodi:namedview
     id="namedview4"
     pagecolor="#ffffff"
     bordercolor="#666666"
     borderopacity="1.0"
     inkscape:pageshadow="2"
     inkscape:pageopacity="0.0"
     inkscape:pagecheckerboard="0" /><g
     id="g8"
     inkscape:groupmode="layer"
     inkscape:label="Student Studying Online Illustration"
     transform="matrix(1.3333333,0,0,-1.3333333,0,2080)"><path
       d="M 0,0 H 2340 V 1560 H 0 Z"
       style="fill:#ffffff;fill-opacity:1;fill-rule:nonzero;stroke:none"
       id="path10" /><g
       id="g12"><g
         id="g14"
         clip-path="url(#clipPath18)"><g
           id="g20"
           transform="translate(771.0376,633.5234)"><path
             d="M 0,0 -15.248,4.594 C -26.593,38.81 -27.416,73.063 -25.699,97.28 -8.078,93.152 11.496,84.177 11.496,84.177 c -15.882,10.488 -28.932,16.355 -36.666,19.462 0.824,8.698 1.915,15.765 2.812,20.518 5.216,27.658 5.316,48.815 5.316,48.815 14.651,-10.16 26.734,-20.983 36.649,-32.201 l -5.045,-17.032 7.857,13.74 C 42.416,113.693 52.943,88.262 57.53,63.613 47.458,57.527 30.832,46.574 25.056,37.428 c 0,0 16.223,13.718 33.215,21.959 C 69.292,-9.62 35.155,-71.272 35.155,-71.272 10.222,-50.212 -5.022,-24.538 -14.12,1.353 Z"
             style="fill:#778e3c;fill-opacity:1;fill-rule:nonzero;stroke:none"
             id="path22" /></g><g
           id="g24"
           transform="translate(705.5347,514.2383)"><path
             d="M 0,0 C 1.05,0.085 1.708,0.184 1.806,0.302 L 0,0 c -4.595,-0.37 -17.115,-0.444 -27.469,-0.436 -18.924,19.83 -28.51,43.074 -33.506,59.66 13.782,0.886 33.989,1.577 48.808,-0.528 0,0 -22.61,5.402 -50.158,5.218 -1.301,4.773 -2.207,8.807 -2.838,11.742 -5.419,25.215 -16.381,35.866 -16.381,35.866 12.66,4.352 24.143,6.676 34.591,7.353 4.37,-5.617 9.534,-13.458 10.527,-19.96 0,0 0.024,8.819 -3.359,20.181 25.732,-0.228 44.614,-11.114 58.46,-27.089 C 19.654,66.416 27.738,34.891 27.738,34.891 24.9,50.102 24.211,72.632 24.058,85.213 57.742,38.751 56.762,-39.024 56.762,-39.024 19.837,-35.507 -5.906,-21.384 -23.92,-3.996 Z"
             style="fill:#778e3c;fill-opacity:1;fill-rule:nonzero;stroke:none"
             id="path26" /></g><g
           id="g28"
           transform="translate(818.5352,362.0352)"><path
             d="m 0,0 c -0.087,2.312 -8.695,232.203 -25.481,314.473 l -1.269,-0.26 C -9.983,232.048 -1.378,2.265 -1.294,-0.047 Z"
             style="fill:#000000;fill-opacity:1;fill-rule:nonzero;stroke:none"
             id="path30" /></g><g
           id="g32"
           transform="translate(799.2476,360.1533)"><path
             d="M 0,0 1.254,0.302 C 0.897,1.799 -35.258,150.812 -91.38,209.207 l -0.93,-0.895 C -36.432,150.17 -0.36,1.495 0,0"
             style="fill:#000000;fill-opacity:1;fill-rule:nonzero;stroke:none"
             id="path34" /></g><g
           id="g36"
           transform="translate(1170.1953,1054.79)"><path
             d="m 0,0 c 0,0 -24.157,-40.796 -10.155,-43.867 0,0 4.464,2.117 7.333,2.842 0,0 5.435,17.201 2.822,41.025"
             style="fill:#39302a;fill-opacity:1;fill-rule:nonzero;stroke:none"
             id="path38" /></g><path
           d="m 584.471,843.92 h 457.885 v 320.41 H 584.471 Z m 458.53,-1.293 H 583.824 c -0.356,0 -0.646,0.29 -0.646,0.646 v 321.703 c 0,0.357 0.29,0.646 0.646,0.646 h 459.177 c 0.356,0 0.647,-0.289 0.647,-0.646 V 843.273 c 0,-0.356 -0.291,-0.646 -0.647,-0.646"
           style="fill:#000000;fill-opacity:1;fill-rule:nonzero;stroke:none"
           id="path40" /><g
           id="g42"
           transform="translate(767.0967,1010.9043)"><path
             d="M 0,0 V 1.292 L 231.702,1.648 V 0.356 Z"
             style="fill:#000000;fill-opacity:1;fill-rule:nonzero;stroke:none"
             id="path44" /></g><g
           id="g46"
           transform="translate(767.0967,1045.3257)"><path
             d="M 0,0 V 1.292 L 231.702,1.648 V 0.356 Z"
             style="fill:#000000;fill-opacity:1;fill-rule:nonzero;stroke:none"
             id="path48" /></g><g
           id="g50"
           transform="translate(767.0967,1079.7485)"><path
             d="M 0,0 V 1.292 L 231.702,1.648 V 0.356 Z"
             style="fill:#000000;fill-opacity:1;fill-rule:nonzero;stroke:none"
             id="path52" /></g><g
           id="g54"
           transform="translate(606.665,1050.6548)"><path
             d="m 0,0 45.821,57.732 64.912,-96.659 H 0 Z"
             style="fill:#e5e0e6;fill-opacity:1;fill-rule:nonzero;stroke:none"
             id="path56" /></g><g
           id="g58"
           transform="translate(688.6411,1058.8984)"><path
             d="M 0,0 28.757,40.12 44.778,16.207 V -47.17 H 31.665 Z"
             style="fill:#e5e0e6;fill-opacity:1;fill-rule:nonzero;stroke:none"
             id="path60" /></g><path
           d="m 607.311,1012.375 h 125.463 v 125.461 H 607.311 Z m 126.109,-1.293 H 606.664 c -0.356,0 -0.646,0.289 -0.646,0.647 v 126.752 c 0,0.358 0.29,0.647 0.646,0.647 H 733.42 c 0.356,0 0.646,-0.289 0.646,-0.647 v -126.752 c 0,-0.358 -0.29,-0.647 -0.646,-0.647"
           style="fill:#000000;fill-opacity:1;fill-rule:nonzero;stroke:none"
           id="path62" /><path
           d="m 584.471,1165.622 h 457.885 v 25.377 H 584.471 Z m 458.53,-1.292 H 583.824 c -0.356,0 -0.646,0.288 -0.646,0.646 v 26.669 c 0,0.357 0.29,0.646 0.646,0.646 h 459.177 c 0.356,0 0.647,-0.289 0.647,-0.646 v -26.669 c 0,-0.358 -0.291,-0.646 -0.647,-0.646"
           style="fill:#000000;fill-opacity:1;fill-rule:nonzero;stroke:none"
           id="path64" /><g
           id="g66"
           transform="translate(694.5444,918.0562)"><path
             d="m 0,0 c 1.603,3.366 2.767,6.903 3.578,10.506 1.865,0.531 3.729,1.133 5.589,1.811 C 6.99,7.593 3.853,3.404 0,0 m -58.203,12.381 c 1.21,-0.384 3.185,-0.973 5.787,-1.625 0.839,-3.806 2.067,-7.545 3.789,-11.085 -4.043,3.476 -7.328,7.807 -9.576,12.71 m 8.35,42.375 c -0.592,-2.085 -1.48,-5.519 -2.284,-9.831 -2.711,-0.672 -4.766,-1.281 -6.02,-1.679 2.013,4.358 4.846,8.261 8.304,11.51 M 9.126,43.3 C 7.19,44.004 5.25,44.63 3.31,45.175 2.557,49.162 1.736,52.394 1.157,54.458 4.46,51.283 7.175,47.505 9.126,43.3 M 5.185,27.118 h 7.351 C 12.456,22.475 11.519,18.04 9.875,13.96 7.884,13.197 5.885,12.521 3.884,11.934 4.896,17.014 5.247,22.178 5.185,27.118 M -8.919,9.226 c 0.32,6.125 0.427,12.175 0.398,17.892 H 3.907 C 3.972,22.052 3.601,16.748 2.503,11.557 -1.328,10.504 -5.154,9.739 -8.919,9.226 M -8.987,7.915 c 3.676,0.49 7.411,1.204 11.156,2.198 -1.007,-4.214 -2.512,-8.326 -4.673,-12.146 -2.383,-1.764 -4.984,-3.25 -7.756,-4.408 0.583,4.732 0.998,9.558 1.273,14.356 M -23.856,7.037 c 0.403,-0.004 0.805,-0.011 1.211,-0.011 3.975,0 8.12,0.216 12.353,0.722 -0.287,-4.928 -0.72,-9.883 -1.335,-14.729 -3.821,-1.421 -7.938,-2.221 -12.229,-2.294 z M -38.51,8.105 c 4.073,-0.543 8.577,-0.941 13.362,-1.047 V -9.275 c -4.204,0.072 -8.24,0.839 -11.994,2.205 -0.636,4.991 -1.079,10.1 -1.368,15.175 m -1.302,0.182 c 0.276,-4.953 0.699,-9.938 1.303,-14.822 -2.719,1.114 -5.274,2.543 -7.625,4.24 -2.292,3.982 -3.854,8.294 -4.883,12.709 3.08,-0.731 6.881,-1.504 11.205,-2.127 m -12.872,18.831 h 12.426 c -0.03,-5.6 0.073,-11.519 0.378,-17.517 -4.469,0.654 -8.367,1.465 -11.457,2.217 -1.055,5.107 -1.41,10.318 -1.347,15.3 m 12.994,18.923 c -0.277,-5.139 -0.503,-11.145 -0.56,-17.631 h -12.409 c 0.156,5.673 0.834,10.999 1.634,15.46 3.084,0.742 6.931,1.534 11.335,2.171 m 0.072,1.313 c -4.295,-0.612 -8.064,-1.372 -11.148,-2.098 1.157,6.024 2.453,10.213 2.746,11.123 2.852,2.348 6.062,4.272 9.531,5.691 -0.219,-2.168 -0.716,-7.488 -1.129,-14.716 m 14.47,1.196 c -4.711,-0.105 -9.144,-0.49 -13.167,-1.021 0.462,8.011 1.023,13.603 1.178,15.07 3.753,1.365 7.787,2.131 11.989,2.204 z m 14.663,-0.67 c -4.598,0.54 -9.089,0.742 -13.371,0.696 v 16.227 c 4.289,-0.074 8.403,-0.873 12.222,-2.291 0.167,-1.591 0.7,-6.989 1.149,-14.632 m 1.301,-0.161 c -0.403,6.949 -0.879,12.078 -1.098,14.259 3.507,-1.464 6.741,-3.453 9.607,-5.866 0.404,-1.29 1.557,-5.171 2.608,-10.561 -3.733,0.98 -7.454,1.687 -11.117,2.168 M -23.856,28.41 v 18.878 c 4.304,0.047 8.822,-0.161 13.446,-0.717 0.291,-5.246 0.531,-11.449 0.59,-18.161 z m -15.104,0 c 0.058,6.565 0.289,12.638 0.571,17.81 4.036,0.542 8.496,0.936 13.241,1.043 V 28.41 Z m -0.008,-1.292 h 13.82 V 8.351 c -4.818,0.108 -9.345,0.513 -13.429,1.067 -0.315,6.059 -0.421,12.043 -0.391,17.7 M -10.221,9.065 c -4.69,-0.573 -9.273,-0.788 -13.635,-0.74 v 18.793 h 14.044 c 0.03,-5.766 -0.08,-11.873 -0.409,-18.053 M 3.882,28.41 H -8.53 c -0.058,6.641 -0.293,12.782 -0.58,18.001 3.727,-0.5 7.514,-1.244 11.309,-2.272 0.821,-4.515 1.525,-9.94 1.683,-15.729 m 8.654,0 H 5.162 C 5.01,34.033 4.352,39.31 3.567,43.766 5.66,43.161 7.752,42.464 9.835,41.667 11.504,37.561 12.455,33.09 12.536,28.41 m -71.381,13.251 c 0.739,0.253 3.01,0.997 6.458,1.872 -0.767,-4.408 -1.406,-9.597 -1.554,-15.123 h -7.602 c 0.081,4.678 1.03,9.146 2.698,13.251 m -2.698,-14.543 h 7.579 c -0.062,-4.866 0.279,-9.95 1.257,-14.957 -3.333,0.855 -5.5,1.572 -6.177,1.805 -1.643,4.078 -2.579,8.511 -2.659,13.152 m 75.388,0.646 c 0,11.624 -5.207,22.049 -13.402,29.088 -0.026,0.08 -0.042,0.128 -0.046,0.139 L 0.314,56.963 c -6.693,5.699 -15.357,9.149 -24.816,9.149 -21.146,0 -38.35,-17.203 -38.35,-38.348 0,-21.145 17.204,-38.348 38.35,-38.348 8.536,0 16.429,2.807 22.808,7.542 l 0.085,-0.049 c 0.035,0.061 0.065,0.125 0.1,0.186 9.316,7.003 15.354,18.143 15.354,30.669"
             style="fill:#000000;fill-opacity:1;fill-rule:nonzero;stroke:none"
             id="path68" /></g><g
           id="g70"
           transform="translate(767.0967,907.4453)"><path
             d="M 0,0 V 1.292 L 231.702,1.648 V 0.356 Z"
             style="fill:#000000;fill-opacity:1;fill-rule:nonzero;stroke:none"
             id="path72" /></g><g
           id="g74"
           transform="translate(1432.9473,339.6572)"><path
             d="m 0,0 h 64.029 c 16.557,49.744 36.501,308.062 37.678,323.435 H -37.681 C -36.504,308.062 -16.56,49.744 0,0 M 64.955,-1.293 H -0.927 l -0.148,0.437 C -18.14,49.191 -38.814,321.289 -39.021,324.033 l -0.053,0.695 h 142.175 l -0.054,-0.695 C 102.84,321.289 82.166,49.191 65.104,-0.856 Z"
             style="fill:#000000;fill-opacity:1;fill-rule:nonzero;stroke:none"
             id="path76" /></g><g
           id="g78"
           transform="translate(1397.1289,631.5029)"><path
             d="M 0,0 H 135.664 L 134.587,-13.017 0,-6.509 Z"
             style="fill:#39302a;fill-opacity:1;fill-rule:nonzero;stroke:none"
             id="path80" /></g><g
           id="g82"
           transform="translate(1361.9766,934.7388)"><path
             d="M 0,0 C 6.507,-24.05 6.529,-42.484 6.529,-42.484 4.944,-26.189 -1.55,-7.688 -5.301,1.942 -21.88,7.368 -40.123,6.943 -57.163,3.91 l 3.916,-13.76 -8.783,12.819 c -32.682,-6.819 -59.71,-22.287 -59.71,-22.287 19.579,-1.651 39.679,-17.138 64.504,-39.617 9.1,4.713 25.035,11.531 42.762,12.573 0,0 -22.627,-6.69 -38.062,-16.851 6.307,-5.786 12.919,-11.972 19.906,-18.464 10.369,-9.636 21.527,-16.202 32.214,-20.665 4.985,2.44 10.499,5.252 10.499,5.252 l -4.067,-7.706 c 24.621,-8.601 45.197,-6.6 45.197,-6.6 C 50.879,-43.021 28.528,-11.857 0,0"
             style="fill:#778e3c;fill-opacity:1;fill-rule:nonzero;stroke:none"
             id="path84" /></g><g
           id="g86"
           transform="translate(1473.1934,938.4595)"><path
             d="m 0,0 14.747,6.012 c 8.066,35.134 5.653,69.311 1.659,93.259 -17.152,-5.772 -35.793,-16.554 -35.793,-16.554 14.822,11.939 27.26,19.012 34.667,22.834 -1.641,8.581 -3.394,15.514 -4.735,20.161 -7.804,27.042 -9.899,48.096 -9.899,48.096 -13.627,-11.497 -24.635,-23.412 -33.448,-35.516 l 6.63,-16.479 -9.119,12.937 c -17.662,-25.566 -25.743,-51.878 -27.983,-76.849 10.6,-5.109 28.186,-14.443 34.799,-23.005 0,0 -17.446,12.127 -35.139,18.728 -4.461,-69.739 35.341,-127.895 35.341,-127.895 22.835,23.318 35.588,50.316 42.203,76.95 z"
             style="fill:#778e3c;fill-opacity:1;fill-rule:nonzero;stroke:none"
             id="path88" /></g><g
           id="g90"
           transform="translate(1549.6592,825.8867)"><path
             d="M 0,0 C -1.054,-0.015 -1.718,0.021 -1.827,0.13 L 0,0 C 4.609,0.065 17.08,1.172 27.387,2.158 44.355,23.684 51.706,47.729 55.115,64.712 41.311,64.295 21.13,63.076 6.574,59.583 c 0,0 22,7.51 49.443,9.927 0.844,4.873 1.365,8.975 1.716,11.957 3.016,25.613 12.925,37.251 12.925,37.251 -13.013,3.138 -24.666,4.368 -35.132,4.057 -3.818,-6.004 -8.22,-14.298 -8.595,-20.865 0,0 -0.856,8.778 1.439,20.407 -25.596,-2.654 -43.366,-15.272 -55.642,-32.483 1.439,-25.569 -3.634,-57.716 -3.634,-57.716 1.389,15.411 -0.05,37.905 -1.084,50.445 -29.151,-49.434 -20.837,-126.77 -20.837,-126.77 36.429,6.987 60.724,23.476 77.017,42.485 z"
             style="fill:#778e3c;fill-opacity:1;fill-rule:nonzero;stroke:none"
             id="path92" /></g><g
           id="g94"
           transform="translate(1461.3408,663.6904)"><path
             d="m 0,0 c -0.03,0.396 -3.058,40.025 -18.029,87.971 -13.805,44.209 -40.881,104.735 -91.473,142.012 l 0.767,1.04 C -57.855,193.532 -30.648,132.73 -16.787,88.327 -1.774,40.245 1.259,0.489 1.287,0.096 Z"
             style="fill:#000000;fill-opacity:1;fill-rule:nonzero;stroke:none"
             id="path96" /></g><g
           id="g98"
           transform="translate(1451.5234,663.7002)"><path
             d="m 0,0 c -0.131,2.31 -13.253,231.988 -4.304,315.475 l 1.287,-0.139 C -11.955,231.955 1.158,2.386 1.292,0.076 Z"
             style="fill:#000000;fill-opacity:1;fill-rule:nonzero;stroke:none"
             id="path100" /></g><g
           id="g102"
           transform="translate(1470.9023,663.6475)"><path
             d="m 0,0 -1.277,0.182 c 0.215,1.524 22.148,153.283 72.51,216.713 l 1.01,-0.803 C 22.101,152.937 0.217,1.521 0,0"
             style="fill:#000000;fill-opacity:1;fill-rule:nonzero;stroke:none"
             id="path104" /></g><g
           id="g106"
           transform="translate(1440.3408,555.7002)"><path
             d="m 0,0 h -616.511 c -2.418,0 -4.378,1.96 -4.378,4.377 v 74.602 c 0,2.418 1.96,4.377 4.378,4.377 H 0 c 2.418,0 4.378,-1.959 4.378,-4.377 V 4.377 C 4.378,1.96 2.418,0 0,0"
             style="fill:#ff4418;fill-opacity:1;fill-rule:nonzero;stroke:none"
             id="path108" /></g><path
           d="m 958.034,570.324 h 342.925 v 54.137 H 958.034 Z"
           style="fill:#ff7257;fill-opacity:1;fill-rule:nonzero;stroke:none"
           id="path110" /><path
           d="M 933.716,565.298 H 819.452 v 64.19 h 114.264 z"
           style="fill:#fcd8a9;fill-opacity:1;fill-rule:nonzero;stroke:none"
           id="path112" /><g
           id="g114"
           transform="translate(1397.2744,555.7002)"><path
             d="m 0,0 h -557.685 c -6.514,0 -12.183,-3.604 -15.135,-8.923 h 7.568 486.606 23.695 c 25.268,0 45.753,-20.484 45.753,-45.753 0,-25.268 -20.485,-45.753 -45.753,-45.753 h -23.695 -486.606 -7.568 c 2.952,-5.319 8.621,-8.923 15.135,-8.923 H 0 c 30.197,0 54.676,24.48 54.676,54.676 C 54.676,-24.479 30.197,0 0,0"
             style="fill:#4bb097;fill-opacity:1;fill-rule:nonzero;stroke:none"
             id="path116" /></g><g
           id="g118"
           transform="translate(829.8521,538.3945)"><path
             d="m 0,0 c 0,3.043 0.792,5.898 2.17,8.383 h 510.301 c 25.269,0 45.753,-20.485 45.753,-45.753 0,-25.269 -20.484,-45.753 -45.753,-45.753 H 2.17 C 0.792,-80.639 0,-77.783 0,-74.74 Z"
             style="fill:#fcd8a9;fill-opacity:1;fill-rule:nonzero;stroke:none"
             id="path120" /></g><g
           id="g122"
           transform="translate(993.5146,516.2969)"><path
             d="M 0,0 H 19.533 V -45.235 L 0,-32.385 -19.533,-45.235 V 0 Z"
             style="fill:#ff684d;fill-opacity:1;fill-rule:nonzero;stroke:none"
             id="path124" /></g><g
           id="g126"
           transform="translate(1124.937,639.0859)"><path
             d="m 0,0 4.935,-9.598 h 98.148 c 0,0 33.388,0.562 38.558,9.598 z"
             style="fill:#39302a;fill-opacity:1;fill-rule:nonzero;stroke:none"
             id="path128" /></g><g
           id="g130"
           transform="translate(1422.167,555.7002)"><path
             d="M 0,0 C 0,0 -295.421,-8.923 -321.038,-8.923 L -543.754,-9.251 -571.802,0 Z"
             style="fill:#39302a;fill-opacity:1;fill-rule:nonzero;stroke:none"
             id="path132" /></g><g
           id="g134"
           transform="translate(1132.6069,977.0908)"><path
             d="m 0,0 c 0,0 -46.371,-120.791 -43.329,-226.115 h 19.581 z"
             style="fill:#dc6d48;fill-opacity:1;fill-rule:nonzero;stroke:none"
             id="path136" /></g><g
           id="g138"
           transform="translate(1027.4248,734.249)"><path
             d="m 0,0 c 9.045,6.593 18.727,9.747 28.6,9.784 0,0.002 0,0.005 0,0.008 l 64.945,0.14 3.5,-104.186 c 39.821,-77.648 72.104,-135.962 72.104,-135.962 l -29.295,-15.269 c 0,0 -117.095,138.45 -137.774,164.298 C -18.6,-55.337 -24.269,-17.69 0,0"
             style="fill:#2c3b4f;fill-opacity:1;fill-rule:nonzero;stroke:none"
             id="path140" /></g><g
           id="g142"
           transform="translate(1297.7529,1056.2031)"><path
             d="m 0,0 v 13.896 l 28.779,19.973 12.339,-7.943 c 0.109,-0.07 0.23,-0.104 0.351,-0.104 0.121,0 0.243,0.034 0.351,0.104 l 12.273,7.9 28.845,-20.018 V 0 Z M 82.938,52.396 V 15.382 L 55.27,34.584 Z M 1.551,52.936 H 81.387 L 41.469,27.237 Z M 27.603,34.627 0,15.47 V 52.396 Z M 83.585,54.229 H -0.646 c -0.357,0 -0.647,-0.29 -0.647,-0.647 V -0.646 c 0,-0.357 0.29,-0.646 0.647,-0.646 h 84.231 c 0.355,0 0.646,0.289 0.646,0.646 v 54.228 c 0,0.357 -0.291,0.647 -0.646,0.647"
             style="fill:#000000;fill-opacity:1;fill-rule:nonzero;stroke:none"
             id="path144" /></g><g
           id="g146"
           transform="translate(1011.4854,689.5273)"><path
             d="m 0,0 c 39.209,59.149 82.41,54.747 82.41,54.747 0,0 19.423,-0.341 130.09,-0.341 33.623,0 62.344,4.142 66.023,-1.889 10.052,-16.48 -0.348,-89.368 -55.676,-102.988 H 116.799 c -13.174,3.67 -71.154,7.114 -71.154,7.114 -3.646,-40.067 -137.151,-160.347 -137.151,-160.347 l -22.787,23.298 c 0,0 65.647,107.021 114.293,180.406"
             style="fill:#324058;fill-opacity:1;fill-rule:nonzero;stroke:none"
             id="path148" /></g><g
           id="g150"
           transform="translate(1113.4023,744.252)"><path
             d="m 0,0 176.606,-2.208 c 2.369,7.255 3.792,44.093 0.228,97.46 -4.641,69.463 -9.474,149.44 -45.353,167.579 -36.002,18.202 -75.751,7.22 -75.751,7.22 0,0 -21.293,-3.72 -33.676,-29.727 C 10.926,216.962 -3.095,113.933 -3.095,68.267 -3.095,45.336 -3.902,9.622 0,0"
             style="fill:#ffaab5;fill-opacity:1;fill-rule:nonzero;stroke:none"
             id="path152" /></g><g
           id="g154"
           transform="translate(1267.9326,754.7354)"><path
             d="m 0,0 c -25.688,-2.388 -49.722,-3.513 -69.325,-4.005 l -0.475,-0.055 8.32,-1.907 c 0,0 75.875,-2.052 85.233,6.028 0,0 0.232,5.34 0.352,6.628 L 24.039,6.682 C 17.067,3.102 8.968,0.833 0,0"
             style="fill:#39302a;fill-opacity:1;fill-rule:nonzero;stroke:none"
             id="path156" /></g><g
           id="g158"
           transform="translate(1239.4307,912.7544)"><path
             d="m 0,0 c 6.349,-24.923 30.201,-114.276 30.201,-114.276 -50.174,-2.97 -122.627,-31.876 -122.627,-31.876 0,0 87.091,30.386 128.853,30.386 0,0 -25.431,76.154 -36.427,115.766"
             style="fill:#39302a;fill-opacity:1;fill-rule:nonzero;stroke:none"
             id="path160" /></g><g
           id="g162"
           transform="translate(1122.8496,933.2939)"><path
             d="m 0,0 c 0,0 -13.104,-74.456 -12.611,-144.248 0,0 -3.058,66.195 12.611,144.248"
             style="fill:#39302a;fill-opacity:1;fill-rule:nonzero;stroke:none"
             id="path164" /></g><g
           id="g166"
           transform="translate(899.2764,506.9902)"><path
             d="m 0,0 -21.823,-24.61 c 0,0 -55.277,12.098 -59.549,2.652 l 59.753,-27.022 12.165,0.617 -2.297,-5.08 15.624,-7.066 c 0,0 6.557,16.691 6.922,21.148 l 9.908,18.194 z"
             style="fill:#39302a;fill-opacity:1;fill-rule:nonzero;stroke:none"
             id="path168" /></g><g
           id="g170"
           transform="translate(1155.4023,456.1074)"><path
             d="m 0,0 c 8.858,12.879 18.985,20.912 18.985,20.912 l -3.99,13.282 25.496,13.288 9.154,-14.303 C 52.864,30.075 61.636,14.434 61.636,14.434 L 46.276,6.811 43.797,11.805 36.164,1.561 24.209,-8.392 h -9.101 -20.251 -4.09 c 0,0 1.877,6.216 9.233,8.392"
             style="fill:#39302a;fill-opacity:1;fill-rule:nonzero;stroke:none"
             id="path172" /></g><g
           id="g174"
           transform="translate(904.707,639.7314)"><path
             d="m 0,0 h 44.281 v 117.562 c 0,8.099 -6.588,14.687 -14.689,14.687 H 14.689 C 6.588,132.249 0,125.661 0,117.562 Z M 45.574,-1.292 H -1.292 v 118.854 c 0,8.81 7.168,15.98 15.981,15.98 h 14.903 c 8.813,0 15.982,-7.17 15.982,-15.98 z"
             style="fill:#000000;fill-opacity:1;fill-rule:nonzero;stroke:none"
             id="path176" /></g><path
           d="m 918.409,773.273 h 16.878 v 7.108 h -16.878 z m 18.17,-1.293 h -19.462 v 9.693 h 19.462 z"
           style="fill:#000000;fill-opacity:1;fill-rule:nonzero;stroke:none"
           id="path178" /><g
           id="g180"
           transform="translate(931.0581,721.3105)"><path
             d="M 0,0 C -0.167,0 -0.335,0.027 -0.502,0.088 -6.073,2.095 -2.729,43.161 -2.001,51.373 L -0.714,51.26 C -2.782,27.9 -3.256,2.453 -0.063,1.305 2.989,3.523 2.063,33.126 0.798,51.271 l 1.287,0.09 C 2.426,46.486 5.278,3.635 0.869,0.3 0.606,0.101 0.306,0 0,0"
             style="fill:#000000;fill-opacity:1;fill-rule:nonzero;stroke:none"
             id="path182" /></g><g
           id="g184"
           transform="translate(711.52,404.5459)"><path
             d="m 0,0 c -8.635,-2.005 -13.908,-11.432 -17.124,-22.635 -6.22,26.215 -18.959,42.765 -25.798,29.088 -6.57,-13.14 3.664,-39.52 11.977,-56.972 -5.257,8.488 -12.168,16.953 -18.799,16.894 -13.276,-0.117 20.475,-33.924 20.475,-33.924 h 7.198 7.729 c 0,0 38.167,73.08 14.342,67.549"
             style="fill:#4bb097;fill-opacity:1;fill-rule:nonzero;stroke:none"
             id="path186" /></g><g
           id="g188"
           transform="translate(1582.0039,406.2187)"><path
             d="M 0,0 C -9.913,0 -18.934,-15.908 -25.641,-32.473 -25.792,5.299 -37.113,34.326 -48.396,20.032 -63.19,1.292 -37.48,-69.222 -37.48,-69.222 h 8.4 C -29.08,-69.222 20.68,0 0,0"
             style="fill:#4bb097;fill-opacity:1;fill-rule:nonzero;stroke:none"
             id="path190" /></g><g
           id="g192"
           transform="translate(1297.2783,1221.9468)"><path
             d="m 0,0 v -88.168 l 21.037,31.221 c 0.119,0.178 0.321,0.285 0.535,0.285 H 155.599 V 0 Z m -0.646,-90.93 c -0.064,0 -0.126,0.009 -0.19,0.028 -0.269,0.084 -0.457,0.335 -0.457,0.619 V 0.646 c 0,0.357 0.291,0.646 0.647,0.646 h 156.89 c 0.357,0 0.647,-0.289 0.647,-0.646 v -57.954 c 0,-0.358 -0.29,-0.647 -0.647,-0.647 H 21.916 l -22.027,-32.69 c -0.121,-0.181 -0.324,-0.285 -0.535,-0.285"
             style="fill:#000000;fill-opacity:1;fill-rule:nonzero;stroke:none"
             id="path194" /></g><g
           id="g196"
           transform="translate(1326.2432,1186.0049)"><path
             d="m 0,0 c 0,-1.402 -1.138,-2.539 -2.54,-2.539 -1.402,0 -2.539,1.137 -2.539,2.539 0,1.402 1.137,2.539 2.539,2.539 C -1.138,2.539 0,1.402 0,0"
             style="fill:#39302a;fill-opacity:1;fill-rule:nonzero;stroke:none"
             id="path198" /></g><g
           id="g200"
           transform="translate(1364.0273,1186.0049)"><path
             d="m 0,0 c 0,-1.402 -1.137,-2.539 -2.539,-2.539 -1.402,0 -2.539,1.137 -2.539,2.539 0,1.402 1.137,2.539 2.539,2.539 C -1.137,2.539 0,1.402 0,0"
             style="fill:#39302a;fill-opacity:1;fill-rule:nonzero;stroke:none"
             id="path202" /></g><g
           id="g204"
           transform="translate(1401.8125,1186.0049)"><path
             d="m 0,0 c 0,-1.402 -1.137,-2.539 -2.539,-2.539 -1.402,0 -2.54,1.137 -2.54,2.539 0,1.402 1.138,2.539 2.54,2.539 C -1.137,2.539 0,1.402 0,0"
             style="fill:#39302a;fill-opacity:1;fill-rule:nonzero;stroke:none"
             id="path206" /></g><g
           id="g208"
           transform="translate(1439.5967,1186.0049)"><path
             d="m 0,0 c 0,-1.402 -1.137,-2.539 -2.539,-2.539 -1.402,0 -2.539,1.137 -2.539,2.539 0,1.402 1.137,2.539 2.539,2.539 C -1.137,2.539 0,1.402 0,0"
             style="fill:#39302a;fill-opacity:1;fill-rule:nonzero;stroke:none"
             id="path210" /></g><g
           id="g212"
           transform="translate(1272.0273,974.4106)"><path
             d="m 0,0 c -2.268,4.743 -11.552,21.648 -19.039,27.095 0,0 -35.338,-50.194 -4.475,-119.503 v 0 c 12.004,-39.077 27.344,-85.014 27.344,-85.014 -41.761,0 -128.853,-30.386 -128.853,-30.386 0,0 -14.512,-3.989 -18.712,-7.22 -4.201,-3.231 -20.321,-5.609 -20.172,-8.996 0,0 39.558,-0.046 41.659,0.432 l 0.025,-0.143 c 0,0 53.937,-1.906 118.128,4.06 27.877,2.591 47.524,18.867 50.145,46.248 C 52.513,-105.907 0,0 0,0"
             style="fill:#dc6d48;fill-opacity:1;fill-rule:nonzero;stroke:none"
             id="path214" /></g><g
           id="g216"
           transform="translate(1223.7314,1014.4697)"><path
             d="m 0,0 c -5.09,15.858 -8.748,32.173 -11.087,44.179 l -3.191,18.448 v 10e-4 l -5.18,29.946 -5.756,-0.996 c 0,0 -0.003,0.005 -0.003,0.005 L -61.33,85.326 c 0,0 -2.787,-22.23 3.598,-37.605 1.14,-2.746 2.506,-5.26 4.193,-7.386 l 0.595,-3.433 c 0.355,-17.447 -1.941,-30.9 -3.415,-37.607 l -3.153,-0.963 c 0,0 -18.179,-24.767 -8.27,-43.076 9.908,-18.31 66.489,-3.26 72.987,43.605 z"
             style="fill:#dc6d48;fill-opacity:1;fill-rule:nonzero;stroke:none"
             id="path218" /></g><g
           id="g220"
           transform="translate(1240.2363,1039.5176)"><path
             d="m 0,0 c -17.403,18.417 -25.99,53.585 -28.806,66.536 -2.798,12.878 -30.31,12.017 -48.718,-5.965 l -0.009,0.003 -0.111,-0.116 c -0.063,-0.062 -0.128,-0.118 -0.19,-0.18 0,0 0.009,-0.007 0.01,-0.008 l -0.009,-0.009 c 0,0.006 0,0.011 -0.001,0.017 0,0 -0.157,-0.153 -0.384,-0.42 l -0.006,-0.006 c -1.064,-1.25 -3.731,-5.082 -0.216,-8.8 0,0 1.149,3.34 0.662,8.629 l 0.005,-0.002 0.383,0.278 c 2.821,-2.015 18.77,-13.039 30.828,-13.816 -0.235,1.63 -0.268,3.452 0.068,5.456 0,0 3.448,6.721 9.443,3.595 3.229,-1.678 4.893,-6.972 2.365,-11.548 0.632,-19.719 3.662,-68.827 18.181,-68.692 0,0 15.468,-3.479 29.257,-12.964 0,0 4.652,19.595 -12.752,38.012"
             style="fill:#39302a;fill-opacity:1;fill-rule:nonzero;stroke:none"
             id="path222" /></g><g
           id="g224"
           transform="translate(1462.7734,336.7607)"><path
             d="m 0,0 h -661.376 c -2.875,0 -5.206,2.331 -5.206,5.205 v 99.311 c 0,2.875 2.331,5.205 5.206,5.205 H 0 c 2.875,0 5.206,-2.33 5.206,-5.205 V 5.205 C 5.206,2.331 2.875,0 0,0"
             style="fill:#4d4d96;fill-opacity:1;fill-rule:nonzero;stroke:none"
             id="path226" /></g><path
           d="m 835.905,336.997 h 29.469 v 109.352 h -29.469 z"
           style="fill:#6969a6;fill-opacity:1;fill-rule:nonzero;stroke:none"
           id="path228" /><path
           d="m 884.063,336.997 h 29.469 v 109.352 h -29.469 z"
           style="fill:#6969a6;fill-opacity:1;fill-rule:nonzero;stroke:none"
           id="path230" /><path
           d="m 1318.628,555.7 h 68.762 v 83.386 h -68.762 z"
           style="fill:#ff7257;fill-opacity:1;fill-rule:nonzero;stroke:none"
           id="path232" /><path
           d="m 1397.129,555.7 h 7.239 v 83.386 h -7.239 z"
           style="fill:#ffffff;fill-opacity:1;fill-rule:nonzero;stroke:none"
           id="path234" /><path
           d="m 947.654,336.997 h 3.961 v 109.352 h -3.961 z"
           style="fill:#ffffff;fill-opacity:1;fill-rule:nonzero;stroke:none"
           id="path236" /><path
           d="m 981.071,353.384 h 372.378 v 76.578 H 981.071 Z"
           style="fill:#6969a6;fill-opacity:1;fill-rule:nonzero;stroke:none"
           id="path238" /><g
           id="g240"
           transform="translate(1429.9219,391.6729)"><path
             d="m 0,0 c 0,-15.813 -12.819,-28.634 -28.633,-28.634 -15.814,0 -28.634,12.821 -28.634,28.634 0,15.813 12.82,28.634 28.634,28.634 C -12.819,28.634 0,15.813 0,0"
             style="fill:#ffffff;fill-opacity:1;fill-rule:nonzero;stroke:none"
             id="path242" /></g><g
           id="g244"
           transform="translate(1137.5552,750.6758)"><path
             d="m 0,0 h -141.75 l -23.702,127.451 h 141.75 z"
             style="fill:#e5e0e6;fill-opacity:1;fill-rule:nonzero;stroke:none"
             id="path246" /></g><path
           d="M 1206.452,743.05 H 995.805 v 7.626 h 210.647 z"
           style="fill:#e5e0e6;fill-opacity:1;fill-rule:nonzero;stroke:none"
           id="path248" /><path
           d="m 995.805,750.676 h 210.647 v -3.813 H 995.805 Z"
           style="fill:#39302a;fill-opacity:1;fill-rule:nonzero;stroke:none"
           id="path250" /><g
           id="g252"
           transform="translate(1137.5552,746.9258)"><path
             d="M 0,0 V -3.813 L 68.897,-3.876 V 1.843 Z"
             style="fill:#39302a;fill-opacity:1;fill-rule:nonzero;stroke:none"
             id="path254" /></g><g
           id="g256"
           transform="translate(1170.1953,1054.79)"><path
             d="m 0,0 c 0,0 11.127,-14.957 28.801,-0.228 0,0 -3.053,-29.996 -28.931,-23.136 0,0 1.488,9.466 0.13,23.364"
             style="fill:#bb593f;fill-opacity:1;fill-rule:nonzero;stroke:none"
             id="path258" /></g><g
           id="g260"
           transform="translate(1113.8037,1186.3877)"><path
             d="M 0,0 58.198,-29.381 116.4,0.587 V 17.951 L 58.299,-12.014 0,17.37 Z M 58.202,-30.503 -1,-0.615 V 18.994 L 58.293,-10.892 117.4,19.592 V -0.023 l -0.271,-0.14 z"
             style="fill:#000000;fill-opacity:1;fill-rule:nonzero;stroke:none"
             id="path262" /></g><g
           id="g264"
           transform="translate(1094.8848,1214.873)"><path
             d="M 0,0 77.215,-39.376 154.24,0 77.215,39.376 Z M 77.215,-40.5 76.987,-40.383 -2.201,0 77.215,40.5 156.437,0 Z"
             style="fill:#000000;fill-opacity:1;fill-rule:nonzero;stroke:none"
             id="path266" /></g><g
           id="g268"
           transform="translate(1212.418,1184.8862)"><path
             d="m 0,0 h -1 v 10.54 l -39.63,18.996 0.432,0.901 L 0,11.169 Z"
             style="fill:#000000;fill-opacity:1;fill-rule:nonzero;stroke:none"
             id="path270" /></g><g
           id="g272"
           transform="translate(1173.835,1214.873)"><path
             d="m 0,0 c 0,-1.011 -0.82,-1.831 -1.831,-1.831 -1.012,0 -1.831,0.82 -1.831,1.831 0,1.011 0.819,1.831 1.831,1.831 C -0.82,1.831 0,1.011 0,0"
             style="fill:#000000;fill-opacity:1;fill-rule:nonzero;stroke:none"
             id="path274" /></g><g
           id="g276"
           transform="translate(1214.4932,1184.8862)"><path
             d="m 0,0 c 0,-1.422 -1.152,-2.575 -2.575,-2.575 -1.422,0 -2.575,1.153 -2.575,2.575 0,1.422 1.153,2.576 2.575,2.576 C -1.152,2.576 0,1.422 0,0"
             style="fill:#000000;fill-opacity:1;fill-rule:nonzero;stroke:none"
             id="path278" /></g><path
           d="m 1212.418,1165.017 h -1 v 19.644 h 1 z"
           style="fill:#000000;fill-opacity:1;fill-rule:nonzero;stroke:none"
           id="path280" /><g
           id="g282"
           transform="translate(1213.1953,1164.9883)"><path
             d="M 0,0 -1.115,19.589 -0.117,19.646 0.998,0.057 Z"
             style="fill:#000000;fill-opacity:1;fill-rule:nonzero;stroke:none"
             id="path284" /></g><g
           id="g286"
           transform="translate(1210.5869,1164.9883)"><path
             d="M 0,0 -0.998,0.057 0.117,19.646 1.115,19.589 Z"
             style="fill:#000000;fill-opacity:1;fill-rule:nonzero;stroke:none"
             id="path288" /></g></g></g></g></svg>
