<?xml version="1.0" encoding="UTF-8" standalone="no" ?>
<!DOCTYPE svg PUBLIC "-//W3C//DTD SVG 1.1//EN" "http://www.w3.org/Graphics/SVG/1.1/DTD/svg11.dtd">
<svg xmlns="http://www.w3.org/2000/svg" xmlns:xlink="http://www.w3.org/1999/xlink" version="1.1" width="640" height="480" viewBox="0 0 640 480" xml:space="preserve">
<desc>Created with Fabric.js 3.6.3</desc>
<defs>
</defs>
<g transform="matrix(0.89 0 0 0.89 300.71 242.71)"  >
<path style="stroke: rgb(0,0,0); stroke-width: 2; stroke-dasharray: none; stroke-linecap: butt; stroke-dashoffset: 0; stroke-linejoin: miter; stroke-miterlimit: 4; fill: rgb(255,255,255); fill-rule: nonzero; opacity: 1;" vector-effect="non-scaling-stroke"  transform=" translate(-288.02, -256)" d="M 547.6 103.8 L 490.3 13.1 C 485.2 5 476.1 0 466.4 0 H 109.6 C 99.9 0 90.8 5 85.7 13.1 L 28.3 103.8 c -29.6 46.8 -3.4 111.9 51.9 119.4 c 4 0.5 8.1 0.8 12.1 0.8 c 26.1 0 49.3 -11.4 65.2 -29 c 15.9 17.6 39.1 29 65.2 29 c 26.1 0 49.3 -11.4 65.2 -29 c 15.9 17.6 39.1 29 65.2 29 c 26.2 0 49.3 -11.4 65.2 -29 c 16 17.6 39.1 29 65.2 29 c 4.1 0 8.1 -0.3 12.1 -0.8 c 55.5 -7.4 81.8 -72.5 52.1 -119.4 z M 499.7 254.9 l -0.1 0 c -5.3 0.7 -10.7 1.1 -16.2 1.1 c -12.4 0 -24.3 -1.9 -35.4 -5.3 V 384 H 128 V 250.6 c -11.2 3.5 -23.2 5.4 -35.6 5.4 c -5.5 0 -11 -0.4 -16.3 -1.1 l -0.1 0 c -4.1 -0.6 -8.1 -1.3 -12 -2.3 V 384 v 64 c 0 35.3 28.7 64 64 64 H 448 c 35.3 0 64 -28.7 64 -64 V 384 V 252.6 c -4 1 -8 1.8 -12.3 2.3 z" stroke-linecap="round" />
</g>
</svg>